G04 #@! TF.FileFunction,Other,Fab,Top*
%FSLAX46Y46*%
G04 Gerber Fmt 4.6, Leading zero omitted, Abs format (unit mm)*
G04 Created by KiCad (PCBNEW 4.0.7) date 03/28/18 11:52:59*
%MOMM*%
%LPD*%
G01*
G04 APERTURE LIST*
%ADD10C,0.100000*%
%ADD11C,0.200000*%
%ADD12C,0.150000*%
G04 APERTURE END LIST*
D10*
D11*
X137000000Y-87000000D02*
X137000000Y-47000000D01*
X202000000Y-87000000D02*
X137000000Y-87000000D01*
X202000000Y-47000000D02*
X202000000Y-87000000D01*
X137000000Y-47000000D02*
X202000000Y-47000000D01*
D10*
X163013000Y-73091000D02*
G75*
G03X163013000Y-73091000I-1095000J0D01*
G01*
X165478000Y-64831000D02*
X160648000Y-64831000D01*
X160648000Y-64831000D02*
X160648000Y-74361000D01*
X160648000Y-74361000D02*
X165478000Y-74361000D01*
X165478000Y-74361000D02*
X165478000Y-64831000D01*
X162614000Y-73922000D02*
X161087000Y-72395000D01*
X162748000Y-73788000D02*
X161221000Y-72261000D01*
X154829000Y-73406000D02*
X149479000Y-73406000D01*
X149479000Y-73406000D02*
X149479000Y-63246000D01*
X149479000Y-63246000D02*
X155829000Y-63246000D01*
X155829000Y-63246000D02*
X155829000Y-72406000D01*
X155829000Y-72406000D02*
X154829000Y-73406000D01*
X144536000Y-74606000D02*
X144536000Y-59506000D01*
X138236000Y-74606000D02*
X138236000Y-59506000D01*
X138236000Y-59506000D02*
X145736000Y-59506000D01*
X145736000Y-59506000D02*
X145736000Y-74606000D01*
X145736000Y-74606000D02*
X138236000Y-74606000D01*
X186817000Y-65643000D02*
X186817000Y-70993000D01*
X186817000Y-70993000D02*
X169037000Y-70993000D01*
X169037000Y-70993000D02*
X169037000Y-64643000D01*
X169037000Y-64643000D02*
X185817000Y-64643000D01*
X185817000Y-64643000D02*
X186817000Y-65643000D01*
X194300000Y-59312000D02*
X194300000Y-69212000D01*
X200600000Y-59262000D02*
X193100000Y-59262000D01*
X193100000Y-59262000D02*
X193100000Y-69262000D01*
X193100000Y-69262000D02*
X200600000Y-69262000D01*
X200600000Y-69262000D02*
X200600000Y-59262000D01*
X166730000Y-51635000D02*
X166730000Y-49730000D01*
X166730000Y-49730000D02*
X171810000Y-49730000D01*
X171810000Y-49730000D02*
X171810000Y-52270000D01*
X171810000Y-52270000D02*
X167365000Y-52270000D01*
X167365000Y-52270000D02*
X166730000Y-51635000D01*
X183914000Y-78686000D02*
X183914000Y-84366000D01*
X183914000Y-84366000D02*
X169654000Y-84366000D01*
X169654000Y-84366000D02*
X169654000Y-77686000D01*
X169654000Y-77686000D02*
X182914000Y-77686000D01*
X182914000Y-77686000D02*
X183914000Y-78686000D01*
X182499000Y-79216000D02*
X181229000Y-79216000D01*
X181229000Y-79216000D02*
X181229000Y-82836000D01*
X181229000Y-82836000D02*
X182499000Y-82836000D01*
X182499000Y-82836000D02*
X182499000Y-79216000D01*
X182499000Y-81026000D02*
X181229000Y-81026000D01*
X179959000Y-79216000D02*
X178689000Y-79216000D01*
X178689000Y-79216000D02*
X178689000Y-82836000D01*
X178689000Y-82836000D02*
X179959000Y-82836000D01*
X179959000Y-82836000D02*
X179959000Y-79216000D01*
X179959000Y-81026000D02*
X178689000Y-81026000D01*
X177419000Y-79216000D02*
X176149000Y-79216000D01*
X176149000Y-79216000D02*
X176149000Y-82836000D01*
X176149000Y-82836000D02*
X177419000Y-82836000D01*
X177419000Y-82836000D02*
X177419000Y-79216000D01*
X177419000Y-81026000D02*
X176149000Y-81026000D01*
X174879000Y-79216000D02*
X173609000Y-79216000D01*
X173609000Y-79216000D02*
X173609000Y-82836000D01*
X173609000Y-82836000D02*
X174879000Y-82836000D01*
X174879000Y-82836000D02*
X174879000Y-79216000D01*
X174879000Y-81026000D02*
X173609000Y-81026000D01*
X172339000Y-79216000D02*
X171069000Y-79216000D01*
X171069000Y-79216000D02*
X171069000Y-82836000D01*
X171069000Y-82836000D02*
X172339000Y-82836000D01*
X172339000Y-82836000D02*
X172339000Y-79216000D01*
X172339000Y-81026000D02*
X171069000Y-81026000D01*
X185500000Y-54770000D02*
X181690000Y-54770000D01*
X181690000Y-54770000D02*
X181690000Y-49690000D01*
X181690000Y-49690000D02*
X186770000Y-49690000D01*
X186770000Y-49690000D02*
X186770000Y-53500000D01*
X186770000Y-53500000D02*
X185500000Y-54770000D01*
X178500000Y-54770000D02*
X174690000Y-54770000D01*
X174690000Y-54770000D02*
X174690000Y-49690000D01*
X174690000Y-49690000D02*
X179770000Y-49690000D01*
X179770000Y-49690000D02*
X179770000Y-53500000D01*
X179770000Y-53500000D02*
X178500000Y-54770000D01*
D12*
X159666667Y-76452381D02*
X159095238Y-76452381D01*
X159380952Y-76452381D02*
X159380952Y-75452381D01*
X159285714Y-75595238D01*
X159190476Y-75690476D01*
X159095238Y-75738095D01*
X160285714Y-75452381D02*
X160380953Y-75452381D01*
X160476191Y-75500000D01*
X160523810Y-75547619D01*
X160571429Y-75642857D01*
X160619048Y-75833333D01*
X160619048Y-76071429D01*
X160571429Y-76261905D01*
X160523810Y-76357143D01*
X160476191Y-76404762D01*
X160380953Y-76452381D01*
X160285714Y-76452381D01*
X160190476Y-76404762D01*
X160142857Y-76357143D01*
X160095238Y-76261905D01*
X160047619Y-76071429D01*
X160047619Y-75833333D01*
X160095238Y-75642857D01*
X160142857Y-75547619D01*
X160190476Y-75500000D01*
X160285714Y-75452381D01*
X161047619Y-76452381D02*
X161047619Y-75452381D01*
X161142857Y-76071429D02*
X161428572Y-76452381D01*
X161428572Y-75785714D02*
X161047619Y-76166667D01*
X162619048Y-76071429D02*
X163380953Y-76071429D01*
X165095239Y-75452381D02*
X164619048Y-75452381D01*
X164571429Y-75928571D01*
X164619048Y-75880952D01*
X164714286Y-75833333D01*
X164952382Y-75833333D01*
X165047620Y-75880952D01*
X165095239Y-75928571D01*
X165142858Y-76023810D01*
X165142858Y-76261905D01*
X165095239Y-76357143D01*
X165047620Y-76404762D01*
X164952382Y-76452381D01*
X164714286Y-76452381D01*
X164619048Y-76404762D01*
X164571429Y-76357143D01*
X165761905Y-75452381D02*
X165857144Y-75452381D01*
X165952382Y-75500000D01*
X166000001Y-75547619D01*
X166047620Y-75642857D01*
X166095239Y-75833333D01*
X166095239Y-76071429D01*
X166047620Y-76261905D01*
X166000001Y-76357143D01*
X165952382Y-76404762D01*
X165857144Y-76452381D01*
X165761905Y-76452381D01*
X165666667Y-76404762D01*
X165619048Y-76357143D01*
X165571429Y-76261905D01*
X165523810Y-76071429D01*
X165523810Y-75833333D01*
X165571429Y-75642857D01*
X165619048Y-75547619D01*
X165666667Y-75500000D01*
X165761905Y-75452381D01*
X166523810Y-76452381D02*
X166523810Y-75452381D01*
X166619048Y-76071429D02*
X166904763Y-76452381D01*
X166904763Y-75785714D02*
X166523810Y-76166667D01*
X151252381Y-68223810D02*
X151252381Y-68033333D01*
X151300000Y-67938095D01*
X151395238Y-67842857D01*
X151585714Y-67795238D01*
X151919048Y-67795238D01*
X152109524Y-67842857D01*
X152204762Y-67938095D01*
X152252381Y-68033333D01*
X152252381Y-68223810D01*
X152204762Y-68319048D01*
X152109524Y-68414286D01*
X151919048Y-68461905D01*
X151585714Y-68461905D01*
X151395238Y-68414286D01*
X151300000Y-68319048D01*
X151252381Y-68223810D01*
X152252381Y-67366667D02*
X151252381Y-67366667D01*
X151252381Y-66985714D01*
X151300000Y-66890476D01*
X151347619Y-66842857D01*
X151442857Y-66795238D01*
X151585714Y-66795238D01*
X151680952Y-66842857D01*
X151728571Y-66890476D01*
X151776190Y-66985714D01*
X151776190Y-67366667D01*
X151347619Y-66414286D02*
X151300000Y-66366667D01*
X151252381Y-66271429D01*
X151252381Y-66033333D01*
X151300000Y-65938095D01*
X151347619Y-65890476D01*
X151442857Y-65842857D01*
X151538095Y-65842857D01*
X151680952Y-65890476D01*
X152252381Y-66461905D01*
X152252381Y-65842857D01*
X151585714Y-64985714D02*
X152252381Y-64985714D01*
X151204762Y-65223810D02*
X151919048Y-65461905D01*
X151919048Y-64842857D01*
X152252381Y-64414286D02*
X152252381Y-64223810D01*
X152204762Y-64128571D01*
X152157143Y-64080952D01*
X152014286Y-63985714D01*
X151823810Y-63938095D01*
X151442857Y-63938095D01*
X151347619Y-63985714D01*
X151300000Y-64033333D01*
X151252381Y-64128571D01*
X151252381Y-64319048D01*
X151300000Y-64414286D01*
X151347619Y-64461905D01*
X151442857Y-64509524D01*
X151680952Y-64509524D01*
X151776190Y-64461905D01*
X151823810Y-64414286D01*
X151871429Y-64319048D01*
X151871429Y-64128571D01*
X151823810Y-64033333D01*
X151776190Y-63985714D01*
X151680952Y-63938095D01*
X153738095Y-73952381D02*
X153738095Y-74761905D01*
X153785714Y-74857143D01*
X153833333Y-74904762D01*
X153928571Y-74952381D01*
X154119048Y-74952381D01*
X154214286Y-74904762D01*
X154261905Y-74857143D01*
X154309524Y-74761905D01*
X154309524Y-73952381D01*
X154738095Y-74047619D02*
X154785714Y-74000000D01*
X154880952Y-73952381D01*
X155119048Y-73952381D01*
X155214286Y-74000000D01*
X155261905Y-74047619D01*
X155309524Y-74142857D01*
X155309524Y-74238095D01*
X155261905Y-74380952D01*
X154690476Y-74952381D01*
X155309524Y-74952381D01*
X135204762Y-75438096D02*
X135252381Y-75295239D01*
X135252381Y-75057143D01*
X135204762Y-74961905D01*
X135157143Y-74914286D01*
X135061905Y-74866667D01*
X134966667Y-74866667D01*
X134871429Y-74914286D01*
X134823810Y-74961905D01*
X134776190Y-75057143D01*
X134728571Y-75247620D01*
X134680952Y-75342858D01*
X134633333Y-75390477D01*
X134538095Y-75438096D01*
X134442857Y-75438096D01*
X134347619Y-75390477D01*
X134300000Y-75342858D01*
X134252381Y-75247620D01*
X134252381Y-75009524D01*
X134300000Y-74866667D01*
X135204762Y-74009524D02*
X135252381Y-74104762D01*
X135252381Y-74295239D01*
X135204762Y-74390477D01*
X135157143Y-74438096D01*
X135061905Y-74485715D01*
X134776190Y-74485715D01*
X134680952Y-74438096D01*
X134633333Y-74390477D01*
X134585714Y-74295239D01*
X134585714Y-74104762D01*
X134633333Y-74009524D01*
X135252381Y-73580953D02*
X134585714Y-73580953D01*
X134776190Y-73580953D02*
X134680952Y-73533334D01*
X134633333Y-73485715D01*
X134585714Y-73390477D01*
X134585714Y-73295238D01*
X135204762Y-72580952D02*
X135252381Y-72676190D01*
X135252381Y-72866667D01*
X135204762Y-72961905D01*
X135109524Y-73009524D01*
X134728571Y-73009524D01*
X134633333Y-72961905D01*
X134585714Y-72866667D01*
X134585714Y-72676190D01*
X134633333Y-72580952D01*
X134728571Y-72533333D01*
X134823810Y-72533333D01*
X134919048Y-73009524D01*
X134585714Y-72200000D02*
X135252381Y-72009524D01*
X134776190Y-71819047D01*
X135252381Y-71628571D01*
X134585714Y-71438095D01*
X135347619Y-71295238D02*
X135347619Y-70533333D01*
X134252381Y-70438095D02*
X134252381Y-69866666D01*
X135252381Y-70152381D02*
X134252381Y-70152381D01*
X135204762Y-69152380D02*
X135252381Y-69247618D01*
X135252381Y-69438095D01*
X135204762Y-69533333D01*
X135109524Y-69580952D01*
X134728571Y-69580952D01*
X134633333Y-69533333D01*
X134585714Y-69438095D01*
X134585714Y-69247618D01*
X134633333Y-69152380D01*
X134728571Y-69104761D01*
X134823810Y-69104761D01*
X134919048Y-69580952D01*
X135252381Y-68676190D02*
X134585714Y-68676190D01*
X134776190Y-68676190D02*
X134680952Y-68628571D01*
X134633333Y-68580952D01*
X134585714Y-68485714D01*
X134585714Y-68390475D01*
X135252381Y-68057142D02*
X134585714Y-68057142D01*
X134680952Y-68057142D02*
X134633333Y-68009523D01*
X134585714Y-67914285D01*
X134585714Y-67771427D01*
X134633333Y-67676189D01*
X134728571Y-67628570D01*
X135252381Y-67628570D01*
X134728571Y-67628570D02*
X134633333Y-67580951D01*
X134585714Y-67485713D01*
X134585714Y-67342856D01*
X134633333Y-67247618D01*
X134728571Y-67199999D01*
X135252381Y-67199999D01*
X135252381Y-66723809D02*
X134585714Y-66723809D01*
X134252381Y-66723809D02*
X134300000Y-66771428D01*
X134347619Y-66723809D01*
X134300000Y-66676190D01*
X134252381Y-66723809D01*
X134347619Y-66723809D01*
X134585714Y-66247619D02*
X135252381Y-66247619D01*
X134680952Y-66247619D02*
X134633333Y-66200000D01*
X134585714Y-66104762D01*
X134585714Y-65961904D01*
X134633333Y-65866666D01*
X134728571Y-65819047D01*
X135252381Y-65819047D01*
X135252381Y-64914285D02*
X134728571Y-64914285D01*
X134633333Y-64961904D01*
X134585714Y-65057142D01*
X134585714Y-65247619D01*
X134633333Y-65342857D01*
X135204762Y-64914285D02*
X135252381Y-65009523D01*
X135252381Y-65247619D01*
X135204762Y-65342857D01*
X135109524Y-65390476D01*
X135014286Y-65390476D01*
X134919048Y-65342857D01*
X134871429Y-65247619D01*
X134871429Y-65009523D01*
X134823810Y-64914285D01*
X135252381Y-64295238D02*
X135204762Y-64390476D01*
X135109524Y-64438095D01*
X134252381Y-64438095D01*
X135347619Y-64152380D02*
X135347619Y-63390475D01*
X134252381Y-62961904D02*
X134252381Y-62866665D01*
X134300000Y-62771427D01*
X134347619Y-62723808D01*
X134442857Y-62676189D01*
X134633333Y-62628570D01*
X134871429Y-62628570D01*
X135061905Y-62676189D01*
X135157143Y-62723808D01*
X135204762Y-62771427D01*
X135252381Y-62866665D01*
X135252381Y-62961904D01*
X135204762Y-63057142D01*
X135157143Y-63104761D01*
X135061905Y-63152380D01*
X134871429Y-63199999D01*
X134633333Y-63199999D01*
X134442857Y-63152380D01*
X134347619Y-63104761D01*
X134300000Y-63057142D01*
X134252381Y-62961904D01*
X135252381Y-61676189D02*
X135252381Y-62247618D01*
X135252381Y-61961904D02*
X134252381Y-61961904D01*
X134395238Y-62057142D01*
X134490476Y-62152380D01*
X134538095Y-62247618D01*
X135252381Y-61342856D02*
X134585714Y-60819046D01*
X134585714Y-61342856D02*
X135252381Y-60819046D01*
X134252381Y-60247618D02*
X134252381Y-60152379D01*
X134300000Y-60057141D01*
X134347619Y-60009522D01*
X134442857Y-59961903D01*
X134633333Y-59914284D01*
X134871429Y-59914284D01*
X135061905Y-59961903D01*
X135157143Y-60009522D01*
X135204762Y-60057141D01*
X135252381Y-60152379D01*
X135252381Y-60247618D01*
X135204762Y-60342856D01*
X135157143Y-60390475D01*
X135061905Y-60438094D01*
X134871429Y-60485713D01*
X134633333Y-60485713D01*
X134442857Y-60438094D01*
X134347619Y-60390475D01*
X134300000Y-60342856D01*
X134252381Y-60247618D01*
X134252381Y-59580951D02*
X134252381Y-58961903D01*
X134633333Y-59295237D01*
X134633333Y-59152379D01*
X134680952Y-59057141D01*
X134728571Y-59009522D01*
X134823810Y-58961903D01*
X135061905Y-58961903D01*
X135157143Y-59009522D01*
X135204762Y-59057141D01*
X135252381Y-59152379D01*
X135252381Y-59438094D01*
X135204762Y-59533332D01*
X135157143Y-59580951D01*
X140666667Y-57852381D02*
X140666667Y-58566667D01*
X140619047Y-58709524D01*
X140523809Y-58804762D01*
X140380952Y-58852381D01*
X140285714Y-58852381D01*
X141285714Y-58280952D02*
X141190476Y-58233333D01*
X141142857Y-58185714D01*
X141095238Y-58090476D01*
X141095238Y-58042857D01*
X141142857Y-57947619D01*
X141190476Y-57900000D01*
X141285714Y-57852381D01*
X141476191Y-57852381D01*
X141571429Y-57900000D01*
X141619048Y-57947619D01*
X141666667Y-58042857D01*
X141666667Y-58090476D01*
X141619048Y-58185714D01*
X141571429Y-58233333D01*
X141476191Y-58280952D01*
X141285714Y-58280952D01*
X141190476Y-58328571D01*
X141142857Y-58376190D01*
X141095238Y-58471429D01*
X141095238Y-58661905D01*
X141142857Y-58757143D01*
X141190476Y-58804762D01*
X141285714Y-58852381D01*
X141476191Y-58852381D01*
X141571429Y-58804762D01*
X141619048Y-58757143D01*
X141666667Y-58661905D01*
X141666667Y-58471429D01*
X141619048Y-58376190D01*
X141571429Y-58328571D01*
X141476191Y-58280952D01*
X178214286Y-67452381D02*
X178880953Y-67452381D01*
X178452381Y-68452381D01*
X179690477Y-67785714D02*
X179690477Y-68452381D01*
X179452381Y-67404762D02*
X179214286Y-68119048D01*
X179833334Y-68119048D01*
X180214286Y-68452381D02*
X180214286Y-67452381D01*
X180214286Y-67928571D02*
X180785715Y-67928571D01*
X180785715Y-68452381D02*
X180785715Y-67452381D01*
X181833334Y-68357143D02*
X181785715Y-68404762D01*
X181642858Y-68452381D01*
X181547620Y-68452381D01*
X181404762Y-68404762D01*
X181309524Y-68309524D01*
X181261905Y-68214286D01*
X181214286Y-68023810D01*
X181214286Y-67880952D01*
X181261905Y-67690476D01*
X181309524Y-67595238D01*
X181404762Y-67500000D01*
X181547620Y-67452381D01*
X181642858Y-67452381D01*
X181785715Y-67500000D01*
X181833334Y-67547619D01*
X182785715Y-68452381D02*
X182214286Y-68452381D01*
X182500000Y-68452381D02*
X182500000Y-67452381D01*
X182404762Y-67595238D01*
X182309524Y-67690476D01*
X182214286Y-67738095D01*
X183642858Y-67785714D02*
X183642858Y-68452381D01*
X183404762Y-67404762D02*
X183166667Y-68119048D01*
X183785715Y-68119048D01*
X187452381Y-67761905D02*
X188261905Y-67761905D01*
X188357143Y-67714286D01*
X188404762Y-67666667D01*
X188452381Y-67571429D01*
X188452381Y-67380952D01*
X188404762Y-67285714D01*
X188357143Y-67238095D01*
X188261905Y-67190476D01*
X187452381Y-67190476D01*
X188452381Y-66190476D02*
X188452381Y-66761905D01*
X188452381Y-66476191D02*
X187452381Y-66476191D01*
X187595238Y-66571429D01*
X187690476Y-66666667D01*
X187738095Y-66761905D01*
X203404762Y-72238096D02*
X203452381Y-72095239D01*
X203452381Y-71857143D01*
X203404762Y-71761905D01*
X203357143Y-71714286D01*
X203261905Y-71666667D01*
X203166667Y-71666667D01*
X203071429Y-71714286D01*
X203023810Y-71761905D01*
X202976190Y-71857143D01*
X202928571Y-72047620D01*
X202880952Y-72142858D01*
X202833333Y-72190477D01*
X202738095Y-72238096D01*
X202642857Y-72238096D01*
X202547619Y-72190477D01*
X202500000Y-72142858D01*
X202452381Y-72047620D01*
X202452381Y-71809524D01*
X202500000Y-71666667D01*
X203404762Y-70809524D02*
X203452381Y-70904762D01*
X203452381Y-71095239D01*
X203404762Y-71190477D01*
X203357143Y-71238096D01*
X203261905Y-71285715D01*
X202976190Y-71285715D01*
X202880952Y-71238096D01*
X202833333Y-71190477D01*
X202785714Y-71095239D01*
X202785714Y-70904762D01*
X202833333Y-70809524D01*
X203452381Y-70380953D02*
X202785714Y-70380953D01*
X202976190Y-70380953D02*
X202880952Y-70333334D01*
X202833333Y-70285715D01*
X202785714Y-70190477D01*
X202785714Y-70095238D01*
X203404762Y-69380952D02*
X203452381Y-69476190D01*
X203452381Y-69666667D01*
X203404762Y-69761905D01*
X203309524Y-69809524D01*
X202928571Y-69809524D01*
X202833333Y-69761905D01*
X202785714Y-69666667D01*
X202785714Y-69476190D01*
X202833333Y-69380952D01*
X202928571Y-69333333D01*
X203023810Y-69333333D01*
X203119048Y-69809524D01*
X202785714Y-69000000D02*
X203452381Y-68809524D01*
X202976190Y-68619047D01*
X203452381Y-68428571D01*
X202785714Y-68238095D01*
X203547619Y-68095238D02*
X203547619Y-67333333D01*
X202452381Y-67238095D02*
X202452381Y-66666666D01*
X203452381Y-66952381D02*
X202452381Y-66952381D01*
X203404762Y-65952380D02*
X203452381Y-66047618D01*
X203452381Y-66238095D01*
X203404762Y-66333333D01*
X203309524Y-66380952D01*
X202928571Y-66380952D01*
X202833333Y-66333333D01*
X202785714Y-66238095D01*
X202785714Y-66047618D01*
X202833333Y-65952380D01*
X202928571Y-65904761D01*
X203023810Y-65904761D01*
X203119048Y-66380952D01*
X203452381Y-65476190D02*
X202785714Y-65476190D01*
X202976190Y-65476190D02*
X202880952Y-65428571D01*
X202833333Y-65380952D01*
X202785714Y-65285714D01*
X202785714Y-65190475D01*
X203452381Y-64857142D02*
X202785714Y-64857142D01*
X202880952Y-64857142D02*
X202833333Y-64809523D01*
X202785714Y-64714285D01*
X202785714Y-64571427D01*
X202833333Y-64476189D01*
X202928571Y-64428570D01*
X203452381Y-64428570D01*
X202928571Y-64428570D02*
X202833333Y-64380951D01*
X202785714Y-64285713D01*
X202785714Y-64142856D01*
X202833333Y-64047618D01*
X202928571Y-63999999D01*
X203452381Y-63999999D01*
X203452381Y-63523809D02*
X202785714Y-63523809D01*
X202452381Y-63523809D02*
X202500000Y-63571428D01*
X202547619Y-63523809D01*
X202500000Y-63476190D01*
X202452381Y-63523809D01*
X202547619Y-63523809D01*
X202785714Y-63047619D02*
X203452381Y-63047619D01*
X202880952Y-63047619D02*
X202833333Y-63000000D01*
X202785714Y-62904762D01*
X202785714Y-62761904D01*
X202833333Y-62666666D01*
X202928571Y-62619047D01*
X203452381Y-62619047D01*
X203452381Y-61714285D02*
X202928571Y-61714285D01*
X202833333Y-61761904D01*
X202785714Y-61857142D01*
X202785714Y-62047619D01*
X202833333Y-62142857D01*
X203404762Y-61714285D02*
X203452381Y-61809523D01*
X203452381Y-62047619D01*
X203404762Y-62142857D01*
X203309524Y-62190476D01*
X203214286Y-62190476D01*
X203119048Y-62142857D01*
X203071429Y-62047619D01*
X203071429Y-61809523D01*
X203023810Y-61714285D01*
X203452381Y-61095238D02*
X203404762Y-61190476D01*
X203309524Y-61238095D01*
X202452381Y-61238095D01*
X203547619Y-60952380D02*
X203547619Y-60190475D01*
X202452381Y-59761904D02*
X202452381Y-59666665D01*
X202500000Y-59571427D01*
X202547619Y-59523808D01*
X202642857Y-59476189D01*
X202833333Y-59428570D01*
X203071429Y-59428570D01*
X203261905Y-59476189D01*
X203357143Y-59523808D01*
X203404762Y-59571427D01*
X203452381Y-59666665D01*
X203452381Y-59761904D01*
X203404762Y-59857142D01*
X203357143Y-59904761D01*
X203261905Y-59952380D01*
X203071429Y-59999999D01*
X202833333Y-59999999D01*
X202642857Y-59952380D01*
X202547619Y-59904761D01*
X202500000Y-59857142D01*
X202452381Y-59761904D01*
X203452381Y-58476189D02*
X203452381Y-59047618D01*
X203452381Y-58761904D02*
X202452381Y-58761904D01*
X202595238Y-58857142D01*
X202690476Y-58952380D01*
X202738095Y-59047618D01*
X203452381Y-58142856D02*
X202785714Y-57619046D01*
X202785714Y-58142856D02*
X203452381Y-57619046D01*
X202452381Y-57047618D02*
X202452381Y-56952379D01*
X202500000Y-56857141D01*
X202547619Y-56809522D01*
X202642857Y-56761903D01*
X202833333Y-56714284D01*
X203071429Y-56714284D01*
X203261905Y-56761903D01*
X203357143Y-56809522D01*
X203404762Y-56857141D01*
X203452381Y-56952379D01*
X203452381Y-57047618D01*
X203404762Y-57142856D01*
X203357143Y-57190475D01*
X203261905Y-57238094D01*
X203071429Y-57285713D01*
X202833333Y-57285713D01*
X202642857Y-57238094D01*
X202547619Y-57190475D01*
X202500000Y-57142856D01*
X202452381Y-57047618D01*
X202547619Y-56333332D02*
X202500000Y-56285713D01*
X202452381Y-56190475D01*
X202452381Y-55952379D01*
X202500000Y-55857141D01*
X202547619Y-55809522D01*
X202642857Y-55761903D01*
X202738095Y-55761903D01*
X202880952Y-55809522D01*
X203452381Y-56380951D01*
X203452381Y-55761903D01*
X196190477Y-57452381D02*
X196190477Y-58166667D01*
X196142857Y-58309524D01*
X196047619Y-58404762D01*
X195904762Y-58452381D01*
X195809524Y-58452381D01*
X197190477Y-58452381D02*
X196619048Y-58452381D01*
X196904762Y-58452381D02*
X196904762Y-57452381D01*
X196809524Y-57595238D01*
X196714286Y-57690476D01*
X196619048Y-57738095D01*
X197809524Y-57452381D02*
X197904763Y-57452381D01*
X198000001Y-57500000D01*
X198047620Y-57547619D01*
X198095239Y-57642857D01*
X198142858Y-57833333D01*
X198142858Y-58071429D01*
X198095239Y-58261905D01*
X198047620Y-58357143D01*
X198000001Y-58404762D01*
X197904763Y-58452381D01*
X197809524Y-58452381D01*
X197714286Y-58404762D01*
X197666667Y-58357143D01*
X197619048Y-58261905D01*
X197571429Y-58071429D01*
X197571429Y-57833333D01*
X197619048Y-57642857D01*
X197666667Y-57547619D01*
X197714286Y-57500000D01*
X197809524Y-57452381D01*
X157285715Y-46452381D02*
X156809524Y-46452381D01*
X156809524Y-45452381D01*
X157619048Y-45928571D02*
X157952382Y-45928571D01*
X158095239Y-46452381D02*
X157619048Y-46452381D01*
X157619048Y-45452381D01*
X158095239Y-45452381D01*
X158523810Y-46452381D02*
X158523810Y-45452381D01*
X158857144Y-46166667D01*
X159190477Y-45452381D01*
X159190477Y-46452381D01*
X159857143Y-45452381D02*
X160047620Y-45452381D01*
X160142858Y-45500000D01*
X160238096Y-45595238D01*
X160285715Y-45785714D01*
X160285715Y-46119048D01*
X160238096Y-46309524D01*
X160142858Y-46404762D01*
X160047620Y-46452381D01*
X159857143Y-46452381D01*
X159761905Y-46404762D01*
X159666667Y-46309524D01*
X159619048Y-46119048D01*
X159619048Y-45785714D01*
X159666667Y-45595238D01*
X159761905Y-45500000D01*
X159857143Y-45452381D01*
X161190477Y-45452381D02*
X160714286Y-45452381D01*
X160666667Y-45928571D01*
X160714286Y-45880952D01*
X160809524Y-45833333D01*
X161047620Y-45833333D01*
X161142858Y-45880952D01*
X161190477Y-45928571D01*
X161238096Y-46023810D01*
X161238096Y-46261905D01*
X161190477Y-46357143D01*
X161142858Y-46404762D01*
X161047620Y-46452381D01*
X160809524Y-46452381D01*
X160714286Y-46404762D01*
X160666667Y-46357143D01*
X154885715Y-88452381D02*
X154409524Y-88452381D01*
X154409524Y-87452381D01*
X155219048Y-87928571D02*
X155552382Y-87928571D01*
X155695239Y-88452381D02*
X155219048Y-88452381D01*
X155219048Y-87452381D01*
X155695239Y-87452381D01*
X156123810Y-88452381D02*
X156123810Y-87452381D01*
X156457144Y-88166667D01*
X156790477Y-87452381D01*
X156790477Y-88452381D01*
X157457143Y-87452381D02*
X157647620Y-87452381D01*
X157742858Y-87500000D01*
X157838096Y-87595238D01*
X157885715Y-87785714D01*
X157885715Y-88119048D01*
X157838096Y-88309524D01*
X157742858Y-88404762D01*
X157647620Y-88452381D01*
X157457143Y-88452381D01*
X157361905Y-88404762D01*
X157266667Y-88309524D01*
X157219048Y-88119048D01*
X157219048Y-87785714D01*
X157266667Y-87595238D01*
X157361905Y-87500000D01*
X157457143Y-87452381D01*
X158790477Y-87452381D02*
X158314286Y-87452381D01*
X158266667Y-87928571D01*
X158314286Y-87880952D01*
X158409524Y-87833333D01*
X158647620Y-87833333D01*
X158742858Y-87880952D01*
X158790477Y-87928571D01*
X158838096Y-88023810D01*
X158838096Y-88261905D01*
X158790477Y-88357143D01*
X158742858Y-88404762D01*
X158647620Y-88452381D01*
X158409524Y-88452381D01*
X158314286Y-88404762D01*
X158266667Y-88357143D01*
X164261905Y-46357143D02*
X164214286Y-46404762D01*
X164071429Y-46452381D01*
X163976191Y-46452381D01*
X163833333Y-46404762D01*
X163738095Y-46309524D01*
X163690476Y-46214286D01*
X163642857Y-46023810D01*
X163642857Y-45880952D01*
X163690476Y-45690476D01*
X163738095Y-45595238D01*
X163833333Y-45500000D01*
X163976191Y-45452381D01*
X164071429Y-45452381D01*
X164214286Y-45500000D01*
X164261905Y-45547619D01*
X164833333Y-46452381D02*
X164738095Y-46404762D01*
X164690476Y-46357143D01*
X164642857Y-46261905D01*
X164642857Y-45976190D01*
X164690476Y-45880952D01*
X164738095Y-45833333D01*
X164833333Y-45785714D01*
X164976191Y-45785714D01*
X165071429Y-45833333D01*
X165119048Y-45880952D01*
X165166667Y-45976190D01*
X165166667Y-46261905D01*
X165119048Y-46357143D01*
X165071429Y-46404762D01*
X164976191Y-46452381D01*
X164833333Y-46452381D01*
X165595238Y-45785714D02*
X165595238Y-46452381D01*
X165595238Y-45880952D02*
X165642857Y-45833333D01*
X165738095Y-45785714D01*
X165880953Y-45785714D01*
X165976191Y-45833333D01*
X166023810Y-45928571D01*
X166023810Y-46452381D01*
X166500000Y-45785714D02*
X166500000Y-46452381D01*
X166500000Y-45880952D02*
X166547619Y-45833333D01*
X166642857Y-45785714D01*
X166785715Y-45785714D01*
X166880953Y-45833333D01*
X166928572Y-45928571D01*
X166928572Y-46452381D01*
X167166667Y-46547619D02*
X167928572Y-46547619D01*
X168357143Y-45452381D02*
X168452382Y-45452381D01*
X168547620Y-45500000D01*
X168595239Y-45547619D01*
X168642858Y-45642857D01*
X168690477Y-45833333D01*
X168690477Y-46071429D01*
X168642858Y-46261905D01*
X168595239Y-46357143D01*
X168547620Y-46404762D01*
X168452382Y-46452381D01*
X168357143Y-46452381D01*
X168261905Y-46404762D01*
X168214286Y-46357143D01*
X168166667Y-46261905D01*
X168119048Y-46071429D01*
X168119048Y-45833333D01*
X168166667Y-45642857D01*
X168214286Y-45547619D01*
X168261905Y-45500000D01*
X168357143Y-45452381D01*
X169642858Y-46452381D02*
X169071429Y-46452381D01*
X169357143Y-46452381D02*
X169357143Y-45452381D01*
X169261905Y-45595238D01*
X169166667Y-45690476D01*
X169071429Y-45738095D01*
X169976191Y-46452381D02*
X170500001Y-45785714D01*
X169976191Y-45785714D02*
X170500001Y-46452381D01*
X171071429Y-45452381D02*
X171166668Y-45452381D01*
X171261906Y-45500000D01*
X171309525Y-45547619D01*
X171357144Y-45642857D01*
X171404763Y-45833333D01*
X171404763Y-46071429D01*
X171357144Y-46261905D01*
X171309525Y-46357143D01*
X171261906Y-46404762D01*
X171166668Y-46452381D01*
X171071429Y-46452381D01*
X170976191Y-46404762D01*
X170928572Y-46357143D01*
X170880953Y-46261905D01*
X170833334Y-46071429D01*
X170833334Y-45833333D01*
X170880953Y-45642857D01*
X170928572Y-45547619D01*
X170976191Y-45500000D01*
X171071429Y-45452381D01*
X171785715Y-45547619D02*
X171833334Y-45500000D01*
X171928572Y-45452381D01*
X172166668Y-45452381D01*
X172261906Y-45500000D01*
X172309525Y-45547619D01*
X172357144Y-45642857D01*
X172357144Y-45738095D01*
X172309525Y-45880952D01*
X171738096Y-46452381D01*
X172357144Y-46452381D01*
X164866667Y-49252381D02*
X164866667Y-49966667D01*
X164819047Y-50109524D01*
X164723809Y-50204762D01*
X164580952Y-50252381D01*
X164485714Y-50252381D01*
X165247619Y-49252381D02*
X165866667Y-49252381D01*
X165533333Y-49633333D01*
X165676191Y-49633333D01*
X165771429Y-49680952D01*
X165819048Y-49728571D01*
X165866667Y-49823810D01*
X165866667Y-50061905D01*
X165819048Y-50157143D01*
X165771429Y-50204762D01*
X165676191Y-50252381D01*
X165390476Y-50252381D01*
X165295238Y-50204762D01*
X165247619Y-50157143D01*
X164976189Y-88357143D02*
X164928570Y-88404762D01*
X164785713Y-88452381D01*
X164690475Y-88452381D01*
X164547617Y-88404762D01*
X164452379Y-88309524D01*
X164404760Y-88214286D01*
X164357141Y-88023810D01*
X164357141Y-87880952D01*
X164404760Y-87690476D01*
X164452379Y-87595238D01*
X164547617Y-87500000D01*
X164690475Y-87452381D01*
X164785713Y-87452381D01*
X164928570Y-87500000D01*
X164976189Y-87547619D01*
X165547617Y-88452381D02*
X165452379Y-88404762D01*
X165404760Y-88357143D01*
X165357141Y-88261905D01*
X165357141Y-87976190D01*
X165404760Y-87880952D01*
X165452379Y-87833333D01*
X165547617Y-87785714D01*
X165690475Y-87785714D01*
X165785713Y-87833333D01*
X165833332Y-87880952D01*
X165880951Y-87976190D01*
X165880951Y-88261905D01*
X165833332Y-88357143D01*
X165785713Y-88404762D01*
X165690475Y-88452381D01*
X165547617Y-88452381D01*
X166309522Y-87785714D02*
X166309522Y-88452381D01*
X166309522Y-87880952D02*
X166357141Y-87833333D01*
X166452379Y-87785714D01*
X166595237Y-87785714D01*
X166690475Y-87833333D01*
X166738094Y-87928571D01*
X166738094Y-88452381D01*
X167214284Y-87785714D02*
X167214284Y-88452381D01*
X167214284Y-87880952D02*
X167261903Y-87833333D01*
X167357141Y-87785714D01*
X167499999Y-87785714D01*
X167595237Y-87833333D01*
X167642856Y-87928571D01*
X167642856Y-88452381D01*
X167880951Y-88547619D02*
X168642856Y-88547619D01*
X169071427Y-87452381D02*
X169166666Y-87452381D01*
X169261904Y-87500000D01*
X169309523Y-87547619D01*
X169357142Y-87642857D01*
X169404761Y-87833333D01*
X169404761Y-88071429D01*
X169357142Y-88261905D01*
X169309523Y-88357143D01*
X169261904Y-88404762D01*
X169166666Y-88452381D01*
X169071427Y-88452381D01*
X168976189Y-88404762D01*
X168928570Y-88357143D01*
X168880951Y-88261905D01*
X168833332Y-88071429D01*
X168833332Y-87833333D01*
X168880951Y-87642857D01*
X168928570Y-87547619D01*
X168976189Y-87500000D01*
X169071427Y-87452381D01*
X169785713Y-87547619D02*
X169833332Y-87500000D01*
X169928570Y-87452381D01*
X170166666Y-87452381D01*
X170261904Y-87500000D01*
X170309523Y-87547619D01*
X170357142Y-87642857D01*
X170357142Y-87738095D01*
X170309523Y-87880952D01*
X169738094Y-88452381D01*
X170357142Y-88452381D01*
X170690475Y-88452381D02*
X171214285Y-87785714D01*
X170690475Y-87785714D02*
X171214285Y-88452381D01*
X171785713Y-87452381D02*
X171880952Y-87452381D01*
X171976190Y-87500000D01*
X172023809Y-87547619D01*
X172071428Y-87642857D01*
X172119047Y-87833333D01*
X172119047Y-88071429D01*
X172071428Y-88261905D01*
X172023809Y-88357143D01*
X171976190Y-88404762D01*
X171880952Y-88452381D01*
X171785713Y-88452381D01*
X171690475Y-88404762D01*
X171642856Y-88357143D01*
X171595237Y-88261905D01*
X171547618Y-88071429D01*
X171547618Y-87833333D01*
X171595237Y-87642857D01*
X171642856Y-87547619D01*
X171690475Y-87500000D01*
X171785713Y-87452381D01*
X173023809Y-87452381D02*
X172547618Y-87452381D01*
X172499999Y-87928571D01*
X172547618Y-87880952D01*
X172642856Y-87833333D01*
X172880952Y-87833333D01*
X172976190Y-87880952D01*
X173023809Y-87928571D01*
X173071428Y-88023810D01*
X173071428Y-88261905D01*
X173023809Y-88357143D01*
X172976190Y-88404762D01*
X172880952Y-88452381D01*
X172642856Y-88452381D01*
X172547618Y-88404762D01*
X172499999Y-88357143D01*
X173261904Y-88547619D02*
X174023809Y-88547619D01*
X174833333Y-88357143D02*
X174785714Y-88404762D01*
X174642857Y-88452381D01*
X174547619Y-88452381D01*
X174404761Y-88404762D01*
X174309523Y-88309524D01*
X174261904Y-88214286D01*
X174214285Y-88023810D01*
X174214285Y-87880952D01*
X174261904Y-87690476D01*
X174309523Y-87595238D01*
X174404761Y-87500000D01*
X174547619Y-87452381D01*
X174642857Y-87452381D01*
X174785714Y-87500000D01*
X174833333Y-87547619D01*
X175404761Y-88452381D02*
X175309523Y-88404762D01*
X175261904Y-88357143D01*
X175214285Y-88261905D01*
X175214285Y-87976190D01*
X175261904Y-87880952D01*
X175309523Y-87833333D01*
X175404761Y-87785714D01*
X175547619Y-87785714D01*
X175642857Y-87833333D01*
X175690476Y-87880952D01*
X175738095Y-87976190D01*
X175738095Y-88261905D01*
X175690476Y-88357143D01*
X175642857Y-88404762D01*
X175547619Y-88452381D01*
X175404761Y-88452381D01*
X176595238Y-87785714D02*
X176595238Y-88452381D01*
X176166666Y-87785714D02*
X176166666Y-88309524D01*
X176214285Y-88404762D01*
X176309523Y-88452381D01*
X176452381Y-88452381D01*
X176547619Y-88404762D01*
X176595238Y-88357143D01*
X177071428Y-87785714D02*
X177071428Y-88452381D01*
X177071428Y-87880952D02*
X177119047Y-87833333D01*
X177214285Y-87785714D01*
X177357143Y-87785714D01*
X177452381Y-87833333D01*
X177500000Y-87928571D01*
X177500000Y-88452381D01*
X177833333Y-87785714D02*
X178214285Y-87785714D01*
X177976190Y-87452381D02*
X177976190Y-88309524D01*
X178023809Y-88404762D01*
X178119047Y-88452381D01*
X178214285Y-88452381D01*
X178928572Y-88404762D02*
X178833334Y-88452381D01*
X178642857Y-88452381D01*
X178547619Y-88404762D01*
X178500000Y-88309524D01*
X178500000Y-87928571D01*
X178547619Y-87833333D01*
X178642857Y-87785714D01*
X178833334Y-87785714D01*
X178928572Y-87833333D01*
X178976191Y-87928571D01*
X178976191Y-88023810D01*
X178500000Y-88119048D01*
X179404762Y-88452381D02*
X179404762Y-87785714D01*
X179404762Y-87976190D02*
X179452381Y-87880952D01*
X179500000Y-87833333D01*
X179595238Y-87785714D01*
X179690477Y-87785714D01*
X179785715Y-88547619D02*
X180547620Y-88547619D01*
X181357144Y-88357143D02*
X181309525Y-88404762D01*
X181166668Y-88452381D01*
X181071430Y-88452381D01*
X180928572Y-88404762D01*
X180833334Y-88309524D01*
X180785715Y-88214286D01*
X180738096Y-88023810D01*
X180738096Y-87880952D01*
X180785715Y-87690476D01*
X180833334Y-87595238D01*
X180928572Y-87500000D01*
X181071430Y-87452381D01*
X181166668Y-87452381D01*
X181309525Y-87500000D01*
X181357144Y-87547619D01*
X181928572Y-88452381D02*
X181833334Y-88404762D01*
X181785715Y-88309524D01*
X181785715Y-87452381D01*
X182452382Y-88452381D02*
X182357144Y-88404762D01*
X182309525Y-88357143D01*
X182261906Y-88261905D01*
X182261906Y-87976190D01*
X182309525Y-87880952D01*
X182357144Y-87833333D01*
X182452382Y-87785714D01*
X182595240Y-87785714D01*
X182690478Y-87833333D01*
X182738097Y-87880952D01*
X182785716Y-87976190D01*
X182785716Y-88261905D01*
X182738097Y-88357143D01*
X182690478Y-88404762D01*
X182595240Y-88452381D01*
X182452382Y-88452381D01*
X183642859Y-88404762D02*
X183547621Y-88452381D01*
X183357144Y-88452381D01*
X183261906Y-88404762D01*
X183214287Y-88357143D01*
X183166668Y-88261905D01*
X183166668Y-87976190D01*
X183214287Y-87880952D01*
X183261906Y-87833333D01*
X183357144Y-87785714D01*
X183547621Y-87785714D01*
X183642859Y-87833333D01*
X184071430Y-88452381D02*
X184071430Y-87452381D01*
X184166668Y-88071429D02*
X184452383Y-88452381D01*
X184452383Y-87785714D02*
X184071430Y-88166667D01*
X184785716Y-87785714D02*
X184976192Y-88452381D01*
X185166669Y-87976190D01*
X185357145Y-88452381D01*
X185547621Y-87785714D01*
X185928573Y-88452381D02*
X185928573Y-87785714D01*
X185928573Y-87452381D02*
X185880954Y-87500000D01*
X185928573Y-87547619D01*
X185976192Y-87500000D01*
X185928573Y-87452381D01*
X185928573Y-87547619D01*
X186357144Y-88404762D02*
X186452382Y-88452381D01*
X186642858Y-88452381D01*
X186738097Y-88404762D01*
X186785716Y-88309524D01*
X186785716Y-88261905D01*
X186738097Y-88166667D01*
X186642858Y-88119048D01*
X186500001Y-88119048D01*
X186404763Y-88071429D01*
X186357144Y-87976190D01*
X186357144Y-87928571D01*
X186404763Y-87833333D01*
X186500001Y-87785714D01*
X186642858Y-87785714D01*
X186738097Y-87833333D01*
X187595240Y-88404762D02*
X187500002Y-88452381D01*
X187309525Y-88452381D01*
X187214287Y-88404762D01*
X187166668Y-88309524D01*
X187166668Y-87928571D01*
X187214287Y-87833333D01*
X187309525Y-87785714D01*
X187500002Y-87785714D01*
X187595240Y-87833333D01*
X187642859Y-87928571D01*
X187642859Y-88023810D01*
X187166668Y-88119048D01*
X185266667Y-78452381D02*
X185266667Y-79166667D01*
X185219047Y-79309524D01*
X185123809Y-79404762D01*
X184980952Y-79452381D01*
X184885714Y-79452381D01*
X186171429Y-78785714D02*
X186171429Y-79452381D01*
X185933333Y-78404762D02*
X185695238Y-79119048D01*
X186314286Y-79119048D01*
X183861905Y-46357143D02*
X183814286Y-46404762D01*
X183671429Y-46452381D01*
X183576191Y-46452381D01*
X183433333Y-46404762D01*
X183338095Y-46309524D01*
X183290476Y-46214286D01*
X183242857Y-46023810D01*
X183242857Y-45880952D01*
X183290476Y-45690476D01*
X183338095Y-45595238D01*
X183433333Y-45500000D01*
X183576191Y-45452381D01*
X183671429Y-45452381D01*
X183814286Y-45500000D01*
X183861905Y-45547619D01*
X184433333Y-46452381D02*
X184338095Y-46404762D01*
X184290476Y-46357143D01*
X184242857Y-46261905D01*
X184242857Y-45976190D01*
X184290476Y-45880952D01*
X184338095Y-45833333D01*
X184433333Y-45785714D01*
X184576191Y-45785714D01*
X184671429Y-45833333D01*
X184719048Y-45880952D01*
X184766667Y-45976190D01*
X184766667Y-46261905D01*
X184719048Y-46357143D01*
X184671429Y-46404762D01*
X184576191Y-46452381D01*
X184433333Y-46452381D01*
X185195238Y-45785714D02*
X185195238Y-46452381D01*
X185195238Y-45880952D02*
X185242857Y-45833333D01*
X185338095Y-45785714D01*
X185480953Y-45785714D01*
X185576191Y-45833333D01*
X185623810Y-45928571D01*
X185623810Y-46452381D01*
X186100000Y-45785714D02*
X186100000Y-46452381D01*
X186100000Y-45880952D02*
X186147619Y-45833333D01*
X186242857Y-45785714D01*
X186385715Y-45785714D01*
X186480953Y-45833333D01*
X186528572Y-45928571D01*
X186528572Y-46452381D01*
X186766667Y-46547619D02*
X187528572Y-46547619D01*
X187957143Y-45452381D02*
X188052382Y-45452381D01*
X188147620Y-45500000D01*
X188195239Y-45547619D01*
X188242858Y-45642857D01*
X188290477Y-45833333D01*
X188290477Y-46071429D01*
X188242858Y-46261905D01*
X188195239Y-46357143D01*
X188147620Y-46404762D01*
X188052382Y-46452381D01*
X187957143Y-46452381D01*
X187861905Y-46404762D01*
X187814286Y-46357143D01*
X187766667Y-46261905D01*
X187719048Y-46071429D01*
X187719048Y-45833333D01*
X187766667Y-45642857D01*
X187814286Y-45547619D01*
X187861905Y-45500000D01*
X187957143Y-45452381D01*
X188671429Y-45547619D02*
X188719048Y-45500000D01*
X188814286Y-45452381D01*
X189052382Y-45452381D01*
X189147620Y-45500000D01*
X189195239Y-45547619D01*
X189242858Y-45642857D01*
X189242858Y-45738095D01*
X189195239Y-45880952D01*
X188623810Y-46452381D01*
X189242858Y-46452381D01*
X189576191Y-46452381D02*
X190100001Y-45785714D01*
X189576191Y-45785714D02*
X190100001Y-46452381D01*
X190671429Y-45452381D02*
X190766668Y-45452381D01*
X190861906Y-45500000D01*
X190909525Y-45547619D01*
X190957144Y-45642857D01*
X191004763Y-45833333D01*
X191004763Y-46071429D01*
X190957144Y-46261905D01*
X190909525Y-46357143D01*
X190861906Y-46404762D01*
X190766668Y-46452381D01*
X190671429Y-46452381D01*
X190576191Y-46404762D01*
X190528572Y-46357143D01*
X190480953Y-46261905D01*
X190433334Y-46071429D01*
X190433334Y-45833333D01*
X190480953Y-45642857D01*
X190528572Y-45547619D01*
X190576191Y-45500000D01*
X190671429Y-45452381D01*
X191385715Y-45547619D02*
X191433334Y-45500000D01*
X191528572Y-45452381D01*
X191766668Y-45452381D01*
X191861906Y-45500000D01*
X191909525Y-45547619D01*
X191957144Y-45642857D01*
X191957144Y-45738095D01*
X191909525Y-45880952D01*
X191338096Y-46452381D01*
X191957144Y-46452381D01*
X187866667Y-49252381D02*
X187866667Y-49966667D01*
X187819047Y-50109524D01*
X187723809Y-50204762D01*
X187580952Y-50252381D01*
X187485714Y-50252381D01*
X188866667Y-50252381D02*
X188295238Y-50252381D01*
X188580952Y-50252381D02*
X188580952Y-49252381D01*
X188485714Y-49395238D01*
X188390476Y-49490476D01*
X188295238Y-49538095D01*
X174061905Y-46357143D02*
X174014286Y-46404762D01*
X173871429Y-46452381D01*
X173776191Y-46452381D01*
X173633333Y-46404762D01*
X173538095Y-46309524D01*
X173490476Y-46214286D01*
X173442857Y-46023810D01*
X173442857Y-45880952D01*
X173490476Y-45690476D01*
X173538095Y-45595238D01*
X173633333Y-45500000D01*
X173776191Y-45452381D01*
X173871429Y-45452381D01*
X174014286Y-45500000D01*
X174061905Y-45547619D01*
X174633333Y-46452381D02*
X174538095Y-46404762D01*
X174490476Y-46357143D01*
X174442857Y-46261905D01*
X174442857Y-45976190D01*
X174490476Y-45880952D01*
X174538095Y-45833333D01*
X174633333Y-45785714D01*
X174776191Y-45785714D01*
X174871429Y-45833333D01*
X174919048Y-45880952D01*
X174966667Y-45976190D01*
X174966667Y-46261905D01*
X174919048Y-46357143D01*
X174871429Y-46404762D01*
X174776191Y-46452381D01*
X174633333Y-46452381D01*
X175395238Y-45785714D02*
X175395238Y-46452381D01*
X175395238Y-45880952D02*
X175442857Y-45833333D01*
X175538095Y-45785714D01*
X175680953Y-45785714D01*
X175776191Y-45833333D01*
X175823810Y-45928571D01*
X175823810Y-46452381D01*
X176300000Y-45785714D02*
X176300000Y-46452381D01*
X176300000Y-45880952D02*
X176347619Y-45833333D01*
X176442857Y-45785714D01*
X176585715Y-45785714D01*
X176680953Y-45833333D01*
X176728572Y-45928571D01*
X176728572Y-46452381D01*
X176966667Y-46547619D02*
X177728572Y-46547619D01*
X178157143Y-45452381D02*
X178252382Y-45452381D01*
X178347620Y-45500000D01*
X178395239Y-45547619D01*
X178442858Y-45642857D01*
X178490477Y-45833333D01*
X178490477Y-46071429D01*
X178442858Y-46261905D01*
X178395239Y-46357143D01*
X178347620Y-46404762D01*
X178252382Y-46452381D01*
X178157143Y-46452381D01*
X178061905Y-46404762D01*
X178014286Y-46357143D01*
X177966667Y-46261905D01*
X177919048Y-46071429D01*
X177919048Y-45833333D01*
X177966667Y-45642857D01*
X178014286Y-45547619D01*
X178061905Y-45500000D01*
X178157143Y-45452381D01*
X178871429Y-45547619D02*
X178919048Y-45500000D01*
X179014286Y-45452381D01*
X179252382Y-45452381D01*
X179347620Y-45500000D01*
X179395239Y-45547619D01*
X179442858Y-45642857D01*
X179442858Y-45738095D01*
X179395239Y-45880952D01*
X178823810Y-46452381D01*
X179442858Y-46452381D01*
X179776191Y-46452381D02*
X180300001Y-45785714D01*
X179776191Y-45785714D02*
X180300001Y-46452381D01*
X180871429Y-45452381D02*
X180966668Y-45452381D01*
X181061906Y-45500000D01*
X181109525Y-45547619D01*
X181157144Y-45642857D01*
X181204763Y-45833333D01*
X181204763Y-46071429D01*
X181157144Y-46261905D01*
X181109525Y-46357143D01*
X181061906Y-46404762D01*
X180966668Y-46452381D01*
X180871429Y-46452381D01*
X180776191Y-46404762D01*
X180728572Y-46357143D01*
X180680953Y-46261905D01*
X180633334Y-46071429D01*
X180633334Y-45833333D01*
X180680953Y-45642857D01*
X180728572Y-45547619D01*
X180776191Y-45500000D01*
X180871429Y-45452381D01*
X181585715Y-45547619D02*
X181633334Y-45500000D01*
X181728572Y-45452381D01*
X181966668Y-45452381D01*
X182061906Y-45500000D01*
X182109525Y-45547619D01*
X182157144Y-45642857D01*
X182157144Y-45738095D01*
X182109525Y-45880952D01*
X181538096Y-46452381D01*
X182157144Y-46452381D01*
X172866667Y-49452381D02*
X172866667Y-50166667D01*
X172819047Y-50309524D01*
X172723809Y-50404762D01*
X172580952Y-50452381D01*
X172485714Y-50452381D01*
X173295238Y-49547619D02*
X173342857Y-49500000D01*
X173438095Y-49452381D01*
X173676191Y-49452381D01*
X173771429Y-49500000D01*
X173819048Y-49547619D01*
X173866667Y-49642857D01*
X173866667Y-49738095D01*
X173819048Y-49880952D01*
X173247619Y-50452381D01*
X173866667Y-50452381D01*
M02*
