G04 #@! TF.FileFunction,Copper,L1,Top,Signal*
%FSLAX46Y46*%
G04 Gerber Fmt 4.6, Leading zero omitted, Abs format (unit mm)*
G04 Created by KiCad (PCBNEW 4.0.7) date 03/28/18 11:52:59*
%MOMM*%
%LPD*%
G01*
G04 APERTURE LIST*
%ADD10C,0.100000*%
%ADD11C,1.440000*%
%ADD12R,2.400000X1.600000*%
%ADD13O,2.400000X1.600000*%
%ADD14R,3.000000X3.000000*%
%ADD15C,3.000000*%
%ADD16R,1.600000X2.400000*%
%ADD17O,1.600000X2.400000*%
%ADD18C,1.800000*%
%ADD19R,1.700000X1.700000*%
%ADD20O,1.700000X1.700000*%
%ADD21R,1.600000X1.600000*%
%ADD22O,1.600000X1.600000*%
%ADD23C,4.200000*%
%ADD24C,1.200000*%
%ADD25C,0.600000*%
%ADD26C,0.800000*%
%ADD27C,0.254000*%
G04 APERTURE END LIST*
D10*
D11*
X163068000Y-72136000D03*
X163068000Y-69596000D03*
X163068000Y-67056000D03*
D12*
X156464000Y-72136000D03*
D13*
X148844000Y-64516000D03*
X156464000Y-69596000D03*
X148844000Y-67056000D03*
X156464000Y-67056000D03*
X148844000Y-69596000D03*
X156464000Y-64516000D03*
X148844000Y-72136000D03*
D14*
X141986000Y-72136000D03*
D15*
X141986000Y-67056000D03*
X141986000Y-61976000D03*
D16*
X185547000Y-64008000D03*
D17*
X170307000Y-71628000D03*
X183007000Y-64008000D03*
X172847000Y-71628000D03*
X180467000Y-64008000D03*
X175387000Y-71628000D03*
X177927000Y-64008000D03*
X177927000Y-71628000D03*
X175387000Y-64008000D03*
X180467000Y-71628000D03*
X172847000Y-64008000D03*
X183007000Y-71628000D03*
X170307000Y-64008000D03*
X185547000Y-71628000D03*
D14*
X196850000Y-61722000D03*
D15*
X196850000Y-66802000D03*
D18*
X156460000Y-49960000D03*
X159000000Y-52500000D03*
X161540000Y-55040000D03*
X156460000Y-55040000D03*
X161540000Y-49960000D03*
X153924000Y-79883000D03*
X156464000Y-82423000D03*
X159004000Y-84963000D03*
X153924000Y-84963000D03*
X159004000Y-79883000D03*
D19*
X168000000Y-51000000D03*
D20*
X170540000Y-51000000D03*
D21*
X181864000Y-77216000D03*
D22*
X171704000Y-84836000D03*
X179324000Y-77216000D03*
X174244000Y-84836000D03*
X176784000Y-77216000D03*
X176784000Y-84836000D03*
X174244000Y-77216000D03*
X179324000Y-84836000D03*
X171704000Y-77216000D03*
X181864000Y-84836000D03*
D19*
X185500000Y-53500000D03*
D20*
X182960000Y-53500000D03*
X185500000Y-50960000D03*
X182960000Y-50960000D03*
D19*
X178500000Y-53500000D03*
D20*
X175960000Y-53500000D03*
X178500000Y-50960000D03*
X175960000Y-50960000D03*
D23*
X142500000Y-52500000D03*
D24*
X167000000Y-86000000D03*
X162000000Y-86000000D03*
X180000000Y-48000000D03*
X188000000Y-48000000D03*
X138000000Y-76000000D03*
X138000000Y-81500000D03*
X142000000Y-86000000D03*
X147000000Y-86000000D03*
X152000000Y-86000000D03*
X189000000Y-86000000D03*
X197500000Y-86000000D03*
X201000000Y-71000000D03*
X201000000Y-77000000D03*
X201000000Y-82500000D03*
X201000000Y-58000000D03*
X201000000Y-51500000D03*
X197000000Y-48000000D03*
X141000000Y-48000000D03*
X172000000Y-48000000D03*
X164000000Y-48000000D03*
X138000000Y-58000000D03*
X138000000Y-52500000D03*
X156000000Y-48000000D03*
X148000000Y-48000000D03*
D23*
X142500000Y-81500000D03*
X196500000Y-81500000D03*
X196500000Y-52500000D03*
D24*
X174371000Y-61722000D03*
X183134000Y-61722000D03*
X189103000Y-61722000D03*
D25*
X175387000Y-64008000D02*
X175387000Y-65024000D01*
X175387000Y-65024000D02*
X176657000Y-66294000D01*
X176657000Y-66294000D02*
X180721000Y-66294000D01*
X180721000Y-66294000D02*
X183007000Y-64008000D01*
X172847000Y-64008000D02*
X172847000Y-66548000D01*
X179324000Y-75057000D02*
X179324000Y-77216000D01*
X180594000Y-73787000D02*
X179324000Y-75057000D01*
X187071000Y-73787000D02*
X180594000Y-73787000D01*
X188087000Y-72771000D02*
X187071000Y-73787000D01*
X188087000Y-70739000D02*
X188087000Y-72771000D01*
X186563000Y-69215000D02*
X188087000Y-70739000D01*
X175514000Y-69215000D02*
X186563000Y-69215000D01*
X172847000Y-66548000D02*
X175514000Y-69215000D01*
D26*
X180594000Y-61722000D02*
X174371000Y-61722000D01*
X183134000Y-61722000D02*
X180594000Y-61722000D01*
X189103000Y-61722000D02*
X183134000Y-61722000D01*
D25*
X170307000Y-71628000D02*
X170307000Y-72263000D01*
X170307000Y-72263000D02*
X171831000Y-73787000D01*
X171831000Y-73787000D02*
X175641000Y-73787000D01*
X175641000Y-73787000D02*
X176784000Y-74930000D01*
X176784000Y-74930000D02*
X176784000Y-77216000D01*
D27*
G36*
X139953629Y-47299515D02*
X139765215Y-47753266D01*
X139764786Y-48244579D01*
X139952408Y-48698657D01*
X140299515Y-49046371D01*
X140753266Y-49234785D01*
X141244579Y-49235214D01*
X141698657Y-49047592D01*
X142046371Y-48700485D01*
X142234785Y-48246734D01*
X142235214Y-47755421D01*
X142047592Y-47301343D01*
X141873553Y-47127000D01*
X147126446Y-47127000D01*
X146953629Y-47299515D01*
X146765215Y-47753266D01*
X146764786Y-48244579D01*
X146952408Y-48698657D01*
X147299515Y-49046371D01*
X147753266Y-49234785D01*
X148244579Y-49235214D01*
X148698657Y-49047592D01*
X149046371Y-48700485D01*
X149234785Y-48246734D01*
X149235214Y-47755421D01*
X149047592Y-47301343D01*
X148873553Y-47127000D01*
X155126446Y-47127000D01*
X154953629Y-47299515D01*
X154765215Y-47753266D01*
X154764786Y-48244579D01*
X154952408Y-48698657D01*
X155299515Y-49046371D01*
X155352878Y-49068529D01*
X155123357Y-49145852D01*
X154913542Y-49719336D01*
X154939161Y-50329460D01*
X155123357Y-50774148D01*
X155379841Y-50860554D01*
X156280395Y-49960000D01*
X156639605Y-49960000D01*
X157540159Y-50860554D01*
X157796643Y-50774148D01*
X158006458Y-50200664D01*
X157986248Y-49719336D01*
X159993542Y-49719336D01*
X160019161Y-50329460D01*
X160203357Y-50774148D01*
X160459841Y-50860554D01*
X161360395Y-49960000D01*
X161719605Y-49960000D01*
X162620159Y-50860554D01*
X162876643Y-50774148D01*
X163086458Y-50200664D01*
X163079027Y-50023691D01*
X166515000Y-50023691D01*
X166515000Y-50714250D01*
X166673750Y-50873000D01*
X167873000Y-50873000D01*
X167873000Y-49673750D01*
X168127000Y-49673750D01*
X168127000Y-50873000D01*
X168147000Y-50873000D01*
X168147000Y-51127000D01*
X168127000Y-51127000D01*
X168127000Y-52326250D01*
X168285750Y-52485000D01*
X168976310Y-52485000D01*
X169209699Y-52388327D01*
X169388327Y-52209698D01*
X169460597Y-52035223D01*
X169489946Y-52079147D01*
X169971715Y-52401054D01*
X170540000Y-52514093D01*
X171108285Y-52401054D01*
X171590054Y-52079147D01*
X171911961Y-51597378D01*
X172025000Y-51029093D01*
X172025000Y-50970907D01*
X171951841Y-50603110D01*
X174518524Y-50603110D01*
X174639845Y-50833000D01*
X175833000Y-50833000D01*
X175833000Y-49639181D01*
X176087000Y-49639181D01*
X176087000Y-50833000D01*
X178373000Y-50833000D01*
X178373000Y-49639181D01*
X178627000Y-49639181D01*
X178627000Y-50833000D01*
X179820155Y-50833000D01*
X179941476Y-50603110D01*
X181518524Y-50603110D01*
X181639845Y-50833000D01*
X182833000Y-50833000D01*
X182833000Y-49639181D01*
X183087000Y-49639181D01*
X183087000Y-50833000D01*
X185373000Y-50833000D01*
X185373000Y-49639181D01*
X185627000Y-49639181D01*
X185627000Y-50833000D01*
X186820155Y-50833000D01*
X186941476Y-50603110D01*
X186771645Y-50193076D01*
X186381358Y-49764817D01*
X185856892Y-49518514D01*
X185627000Y-49639181D01*
X185373000Y-49639181D01*
X185143108Y-49518514D01*
X184618642Y-49764817D01*
X184230000Y-50191271D01*
X183841358Y-49764817D01*
X183316892Y-49518514D01*
X183087000Y-49639181D01*
X182833000Y-49639181D01*
X182603108Y-49518514D01*
X182078642Y-49764817D01*
X181688355Y-50193076D01*
X181518524Y-50603110D01*
X179941476Y-50603110D01*
X179771645Y-50193076D01*
X179381358Y-49764817D01*
X178856892Y-49518514D01*
X178627000Y-49639181D01*
X178373000Y-49639181D01*
X178143108Y-49518514D01*
X177618642Y-49764817D01*
X177230000Y-50191271D01*
X176841358Y-49764817D01*
X176316892Y-49518514D01*
X176087000Y-49639181D01*
X175833000Y-49639181D01*
X175603108Y-49518514D01*
X175078642Y-49764817D01*
X174688355Y-50193076D01*
X174518524Y-50603110D01*
X171951841Y-50603110D01*
X171911961Y-50402622D01*
X171590054Y-49920853D01*
X171108285Y-49598946D01*
X170540000Y-49485907D01*
X169971715Y-49598946D01*
X169489946Y-49920853D01*
X169460597Y-49964777D01*
X169388327Y-49790302D01*
X169209699Y-49611673D01*
X168976310Y-49515000D01*
X168285750Y-49515000D01*
X168127000Y-49673750D01*
X167873000Y-49673750D01*
X167714250Y-49515000D01*
X167023690Y-49515000D01*
X166790301Y-49611673D01*
X166611673Y-49790302D01*
X166515000Y-50023691D01*
X163079027Y-50023691D01*
X163060839Y-49590540D01*
X162876643Y-49145852D01*
X162620159Y-49059446D01*
X161719605Y-49960000D01*
X161360395Y-49960000D01*
X160459841Y-49059446D01*
X160203357Y-49145852D01*
X159993542Y-49719336D01*
X157986248Y-49719336D01*
X157980839Y-49590540D01*
X157796643Y-49145852D01*
X157540159Y-49059446D01*
X156639605Y-49960000D01*
X156280395Y-49960000D01*
X156266253Y-49945858D01*
X156445858Y-49766253D01*
X156460000Y-49780395D01*
X157360554Y-48879841D01*
X160639446Y-48879841D01*
X161540000Y-49780395D01*
X162440554Y-48879841D01*
X162354148Y-48623357D01*
X161780664Y-48413542D01*
X161170540Y-48439161D01*
X160725852Y-48623357D01*
X160639446Y-48879841D01*
X157360554Y-48879841D01*
X157274148Y-48623357D01*
X157104214Y-48561185D01*
X157234785Y-48246734D01*
X157235214Y-47755421D01*
X157047592Y-47301343D01*
X156873553Y-47127000D01*
X163126446Y-47127000D01*
X162953629Y-47299515D01*
X162765215Y-47753266D01*
X162764786Y-48244579D01*
X162952408Y-48698657D01*
X163299515Y-49046371D01*
X163753266Y-49234785D01*
X164244579Y-49235214D01*
X164698657Y-49047592D01*
X165046371Y-48700485D01*
X165234785Y-48246734D01*
X165235214Y-47755421D01*
X165047592Y-47301343D01*
X164873553Y-47127000D01*
X171126446Y-47127000D01*
X170953629Y-47299515D01*
X170765215Y-47753266D01*
X170764786Y-48244579D01*
X170952408Y-48698657D01*
X171299515Y-49046371D01*
X171753266Y-49234785D01*
X172244579Y-49235214D01*
X172698657Y-49047592D01*
X173046371Y-48700485D01*
X173234785Y-48246734D01*
X173235214Y-47755421D01*
X173047592Y-47301343D01*
X172873553Y-47127000D01*
X179126446Y-47127000D01*
X178953629Y-47299515D01*
X178765215Y-47753266D01*
X178764786Y-48244579D01*
X178952408Y-48698657D01*
X179299515Y-49046371D01*
X179753266Y-49234785D01*
X180244579Y-49235214D01*
X180698657Y-49047592D01*
X181046371Y-48700485D01*
X181234785Y-48246734D01*
X181235214Y-47755421D01*
X181047592Y-47301343D01*
X180873553Y-47127000D01*
X187126446Y-47127000D01*
X186953629Y-47299515D01*
X186765215Y-47753266D01*
X186764786Y-48244579D01*
X186952408Y-48698657D01*
X187299515Y-49046371D01*
X187753266Y-49234785D01*
X188244579Y-49235214D01*
X188698657Y-49047592D01*
X189046371Y-48700485D01*
X189234785Y-48246734D01*
X189235214Y-47755421D01*
X189047592Y-47301343D01*
X188873553Y-47127000D01*
X196126446Y-47127000D01*
X195953629Y-47299515D01*
X195765215Y-47753266D01*
X195764786Y-48244579D01*
X195952408Y-48698657D01*
X196299515Y-49046371D01*
X196753266Y-49234785D01*
X197244579Y-49235214D01*
X197698657Y-49047592D01*
X198046371Y-48700485D01*
X198234785Y-48246734D01*
X198235214Y-47755421D01*
X198047592Y-47301343D01*
X197873553Y-47127000D01*
X201873000Y-47127000D01*
X201873000Y-50626446D01*
X201700485Y-50453629D01*
X201246734Y-50265215D01*
X200755421Y-50264786D01*
X200301343Y-50452408D01*
X199953629Y-50799515D01*
X199765215Y-51253266D01*
X199764786Y-51744579D01*
X199952408Y-52198657D01*
X200299515Y-52546371D01*
X200753266Y-52734785D01*
X201244579Y-52735214D01*
X201698657Y-52547592D01*
X201873000Y-52373553D01*
X201873000Y-57126446D01*
X201700485Y-56953629D01*
X201246734Y-56765215D01*
X200755421Y-56764786D01*
X200301343Y-56952408D01*
X199953629Y-57299515D01*
X199765215Y-57753266D01*
X199764786Y-58244579D01*
X199952408Y-58698657D01*
X200299515Y-59046371D01*
X200753266Y-59234785D01*
X201244579Y-59235214D01*
X201698657Y-59047592D01*
X201873000Y-58873553D01*
X201873000Y-70126446D01*
X201700485Y-69953629D01*
X201246734Y-69765215D01*
X200755421Y-69764786D01*
X200301343Y-69952408D01*
X199953629Y-70299515D01*
X199765215Y-70753266D01*
X199764786Y-71244579D01*
X199952408Y-71698657D01*
X200299515Y-72046371D01*
X200753266Y-72234785D01*
X201244579Y-72235214D01*
X201698657Y-72047592D01*
X201873000Y-71873553D01*
X201873000Y-76126446D01*
X201700485Y-75953629D01*
X201246734Y-75765215D01*
X200755421Y-75764786D01*
X200301343Y-75952408D01*
X199953629Y-76299515D01*
X199765215Y-76753266D01*
X199764786Y-77244579D01*
X199952408Y-77698657D01*
X200299515Y-78046371D01*
X200753266Y-78234785D01*
X201244579Y-78235214D01*
X201698657Y-78047592D01*
X201873000Y-77873553D01*
X201873000Y-81626446D01*
X201700485Y-81453629D01*
X201246734Y-81265215D01*
X200755421Y-81264786D01*
X200301343Y-81452408D01*
X199953629Y-81799515D01*
X199765215Y-82253266D01*
X199764786Y-82744579D01*
X199952408Y-83198657D01*
X200299515Y-83546371D01*
X200753266Y-83734785D01*
X201244579Y-83735214D01*
X201698657Y-83547592D01*
X201873000Y-83373553D01*
X201873000Y-86873000D01*
X198373554Y-86873000D01*
X198546371Y-86700485D01*
X198734785Y-86246734D01*
X198735214Y-85755421D01*
X198547592Y-85301343D01*
X198200485Y-84953629D01*
X197746734Y-84765215D01*
X197255421Y-84764786D01*
X196801343Y-84952408D01*
X196453629Y-85299515D01*
X196265215Y-85753266D01*
X196264786Y-86244579D01*
X196452408Y-86698657D01*
X196626447Y-86873000D01*
X189873554Y-86873000D01*
X190046371Y-86700485D01*
X190234785Y-86246734D01*
X190235214Y-85755421D01*
X190047592Y-85301343D01*
X189700485Y-84953629D01*
X189246734Y-84765215D01*
X188755421Y-84764786D01*
X188301343Y-84952408D01*
X187953629Y-85299515D01*
X187765215Y-85753266D01*
X187764786Y-86244579D01*
X187952408Y-86698657D01*
X188126447Y-86873000D01*
X167873554Y-86873000D01*
X168046371Y-86700485D01*
X168234785Y-86246734D01*
X168235214Y-85755421D01*
X168047592Y-85301343D01*
X167931494Y-85185041D01*
X170312086Y-85185041D01*
X170551611Y-85691134D01*
X170966577Y-86067041D01*
X171354961Y-86227904D01*
X171577000Y-86105915D01*
X171577000Y-84963000D01*
X171831000Y-84963000D01*
X171831000Y-86105915D01*
X172053039Y-86227904D01*
X172441423Y-86067041D01*
X172856389Y-85691134D01*
X172974000Y-85442633D01*
X173091611Y-85691134D01*
X173506577Y-86067041D01*
X173894961Y-86227904D01*
X174117000Y-86105915D01*
X174117000Y-84963000D01*
X174371000Y-84963000D01*
X174371000Y-86105915D01*
X174593039Y-86227904D01*
X174981423Y-86067041D01*
X175396389Y-85691134D01*
X175514000Y-85442633D01*
X175631611Y-85691134D01*
X176046577Y-86067041D01*
X176434961Y-86227904D01*
X176657000Y-86105915D01*
X176657000Y-84963000D01*
X176911000Y-84963000D01*
X176911000Y-86105915D01*
X177133039Y-86227904D01*
X177521423Y-86067041D01*
X177936389Y-85691134D01*
X178054000Y-85442633D01*
X178171611Y-85691134D01*
X178586577Y-86067041D01*
X178974961Y-86227904D01*
X179197000Y-86105915D01*
X179197000Y-84963000D01*
X179451000Y-84963000D01*
X179451000Y-86105915D01*
X179673039Y-86227904D01*
X180061423Y-86067041D01*
X180476389Y-85691134D01*
X180594000Y-85442633D01*
X180711611Y-85691134D01*
X181126577Y-86067041D01*
X181514961Y-86227904D01*
X181737000Y-86105915D01*
X181737000Y-84963000D01*
X181991000Y-84963000D01*
X181991000Y-86105915D01*
X182213039Y-86227904D01*
X182601423Y-86067041D01*
X183016389Y-85691134D01*
X183255914Y-85185041D01*
X183134629Y-84963000D01*
X181991000Y-84963000D01*
X181737000Y-84963000D01*
X179451000Y-84963000D01*
X179197000Y-84963000D01*
X176911000Y-84963000D01*
X176657000Y-84963000D01*
X174371000Y-84963000D01*
X174117000Y-84963000D01*
X171831000Y-84963000D01*
X171577000Y-84963000D01*
X170433371Y-84963000D01*
X170312086Y-85185041D01*
X167931494Y-85185041D01*
X167700485Y-84953629D01*
X167246734Y-84765215D01*
X166755421Y-84764786D01*
X166301343Y-84952408D01*
X165953629Y-85299515D01*
X165765215Y-85753266D01*
X165764786Y-86244579D01*
X165952408Y-86698657D01*
X166126447Y-86873000D01*
X162873554Y-86873000D01*
X163046371Y-86700485D01*
X163234785Y-86246734D01*
X163235214Y-85755421D01*
X163047592Y-85301343D01*
X162700485Y-84953629D01*
X162246734Y-84765215D01*
X161755421Y-84764786D01*
X161301343Y-84952408D01*
X160953629Y-85299515D01*
X160765215Y-85753266D01*
X160764786Y-86244579D01*
X160952408Y-86698657D01*
X161126447Y-86873000D01*
X152873554Y-86873000D01*
X153046371Y-86700485D01*
X153199236Y-86332345D01*
X153683336Y-86509458D01*
X154293460Y-86483839D01*
X154738148Y-86299643D01*
X154824554Y-86043159D01*
X158103446Y-86043159D01*
X158189852Y-86299643D01*
X158763336Y-86509458D01*
X159373460Y-86483839D01*
X159818148Y-86299643D01*
X159904554Y-86043159D01*
X159004000Y-85142605D01*
X158103446Y-86043159D01*
X154824554Y-86043159D01*
X153924000Y-85142605D01*
X153909858Y-85156748D01*
X153730253Y-84977143D01*
X153744395Y-84963000D01*
X154103605Y-84963000D01*
X155004159Y-85863554D01*
X155260643Y-85777148D01*
X155470458Y-85203664D01*
X155450248Y-84722336D01*
X157457542Y-84722336D01*
X157483161Y-85332460D01*
X157667357Y-85777148D01*
X157923841Y-85863554D01*
X158824395Y-84963000D01*
X159183605Y-84963000D01*
X160084159Y-85863554D01*
X160340643Y-85777148D01*
X160550458Y-85203664D01*
X160524839Y-84593540D01*
X160480692Y-84486959D01*
X170312086Y-84486959D01*
X170433371Y-84709000D01*
X171577000Y-84709000D01*
X171577000Y-83566085D01*
X171831000Y-83566085D01*
X171831000Y-84709000D01*
X174117000Y-84709000D01*
X174117000Y-83566085D01*
X174371000Y-83566085D01*
X174371000Y-84709000D01*
X176657000Y-84709000D01*
X176657000Y-83566085D01*
X176911000Y-83566085D01*
X176911000Y-84709000D01*
X179197000Y-84709000D01*
X179197000Y-83566085D01*
X179451000Y-83566085D01*
X179451000Y-84709000D01*
X181737000Y-84709000D01*
X181737000Y-83566085D01*
X181991000Y-83566085D01*
X181991000Y-84709000D01*
X183134629Y-84709000D01*
X183255914Y-84486959D01*
X183016389Y-83980866D01*
X182601423Y-83604959D01*
X182213039Y-83444096D01*
X181991000Y-83566085D01*
X181737000Y-83566085D01*
X181514961Y-83444096D01*
X181126577Y-83604959D01*
X180711611Y-83980866D01*
X180594000Y-84229367D01*
X180476389Y-83980866D01*
X180061423Y-83604959D01*
X179673039Y-83444096D01*
X179451000Y-83566085D01*
X179197000Y-83566085D01*
X178974961Y-83444096D01*
X178586577Y-83604959D01*
X178171611Y-83980866D01*
X178054000Y-84229367D01*
X177936389Y-83980866D01*
X177521423Y-83604959D01*
X177133039Y-83444096D01*
X176911000Y-83566085D01*
X176657000Y-83566085D01*
X176434961Y-83444096D01*
X176046577Y-83604959D01*
X175631611Y-83980866D01*
X175514000Y-84229367D01*
X175396389Y-83980866D01*
X174981423Y-83604959D01*
X174593039Y-83444096D01*
X174371000Y-83566085D01*
X174117000Y-83566085D01*
X173894961Y-83444096D01*
X173506577Y-83604959D01*
X173091611Y-83980866D01*
X172974000Y-84229367D01*
X172856389Y-83980866D01*
X172441423Y-83604959D01*
X172053039Y-83444096D01*
X171831000Y-83566085D01*
X171577000Y-83566085D01*
X171354961Y-83444096D01*
X170966577Y-83604959D01*
X170551611Y-83980866D01*
X170312086Y-84486959D01*
X160480692Y-84486959D01*
X160340643Y-84148852D01*
X160084159Y-84062446D01*
X159183605Y-84963000D01*
X158824395Y-84963000D01*
X157923841Y-84062446D01*
X157667357Y-84148852D01*
X157457542Y-84722336D01*
X155450248Y-84722336D01*
X155444839Y-84593540D01*
X155260643Y-84148852D01*
X155004159Y-84062446D01*
X154103605Y-84963000D01*
X153744395Y-84963000D01*
X152843841Y-84062446D01*
X152587357Y-84148852D01*
X152377542Y-84722336D01*
X152381696Y-84821256D01*
X152246734Y-84765215D01*
X151755421Y-84764786D01*
X151301343Y-84952408D01*
X150953629Y-85299515D01*
X150765215Y-85753266D01*
X150764786Y-86244579D01*
X150952408Y-86698657D01*
X151126447Y-86873000D01*
X147873554Y-86873000D01*
X148046371Y-86700485D01*
X148234785Y-86246734D01*
X148235214Y-85755421D01*
X148047592Y-85301343D01*
X147700485Y-84953629D01*
X147246734Y-84765215D01*
X146755421Y-84764786D01*
X146301343Y-84952408D01*
X145953629Y-85299515D01*
X145765215Y-85753266D01*
X145764786Y-86244579D01*
X145952408Y-86698657D01*
X146126447Y-86873000D01*
X142873554Y-86873000D01*
X143046371Y-86700485D01*
X143234785Y-86246734D01*
X143235214Y-85755421D01*
X143047592Y-85301343D01*
X142700485Y-84953629D01*
X142246734Y-84765215D01*
X141755421Y-84764786D01*
X141301343Y-84952408D01*
X140953629Y-85299515D01*
X140765215Y-85753266D01*
X140764786Y-86244579D01*
X140952408Y-86698657D01*
X141126447Y-86873000D01*
X137127000Y-86873000D01*
X137127000Y-82373554D01*
X137299515Y-82546371D01*
X137753266Y-82734785D01*
X138244579Y-82735214D01*
X138698657Y-82547592D01*
X139046371Y-82200485D01*
X139112330Y-82041638D01*
X139764526Y-82041638D01*
X140180028Y-83047229D01*
X140948724Y-83817268D01*
X141953588Y-84234524D01*
X143041638Y-84235474D01*
X143895074Y-83882841D01*
X153023446Y-83882841D01*
X153924000Y-84783395D01*
X154824554Y-83882841D01*
X154738148Y-83626357D01*
X154164664Y-83416542D01*
X153554540Y-83442161D01*
X153109852Y-83626357D01*
X153023446Y-83882841D01*
X143895074Y-83882841D01*
X144047229Y-83819972D01*
X144817268Y-83051276D01*
X144951922Y-82726991D01*
X154928735Y-82726991D01*
X155161932Y-83291371D01*
X155593357Y-83723551D01*
X156157330Y-83957733D01*
X156767991Y-83958265D01*
X156950531Y-83882841D01*
X158103446Y-83882841D01*
X159004000Y-84783395D01*
X159904554Y-83882841D01*
X159818148Y-83626357D01*
X159244664Y-83416542D01*
X158634540Y-83442161D01*
X158189852Y-83626357D01*
X158103446Y-83882841D01*
X156950531Y-83882841D01*
X157332371Y-83725068D01*
X157764551Y-83293643D01*
X157998733Y-82729670D01*
X157999265Y-82119009D01*
X157967296Y-82041638D01*
X193764526Y-82041638D01*
X194180028Y-83047229D01*
X194948724Y-83817268D01*
X195953588Y-84234524D01*
X197041638Y-84235474D01*
X198047229Y-83819972D01*
X198817268Y-83051276D01*
X199234524Y-82046412D01*
X199235474Y-80958362D01*
X198819972Y-79952771D01*
X198051276Y-79182732D01*
X197046412Y-78765476D01*
X195958362Y-78764526D01*
X194952771Y-79180028D01*
X194182732Y-79948724D01*
X193765476Y-80953588D01*
X193764526Y-82041638D01*
X157967296Y-82041638D01*
X157766068Y-81554629D01*
X157334643Y-81122449D01*
X156951031Y-80963159D01*
X158103446Y-80963159D01*
X158189852Y-81219643D01*
X158763336Y-81429458D01*
X159373460Y-81403839D01*
X159818148Y-81219643D01*
X159904554Y-80963159D01*
X159004000Y-80062605D01*
X158103446Y-80963159D01*
X156951031Y-80963159D01*
X156770670Y-80888267D01*
X156160009Y-80887735D01*
X155595629Y-81120932D01*
X155163449Y-81552357D01*
X154929267Y-82116330D01*
X154928735Y-82726991D01*
X144951922Y-82726991D01*
X145234524Y-82046412D01*
X145235469Y-80963159D01*
X153023446Y-80963159D01*
X153109852Y-81219643D01*
X153683336Y-81429458D01*
X154293460Y-81403839D01*
X154738148Y-81219643D01*
X154824554Y-80963159D01*
X153924000Y-80062605D01*
X153023446Y-80963159D01*
X145235469Y-80963159D01*
X145235474Y-80958362D01*
X144819972Y-79952771D01*
X144510079Y-79642336D01*
X152377542Y-79642336D01*
X152403161Y-80252460D01*
X152587357Y-80697148D01*
X152843841Y-80783554D01*
X153744395Y-79883000D01*
X154103605Y-79883000D01*
X155004159Y-80783554D01*
X155260643Y-80697148D01*
X155470458Y-80123664D01*
X155450248Y-79642336D01*
X157457542Y-79642336D01*
X157483161Y-80252460D01*
X157667357Y-80697148D01*
X157923841Y-80783554D01*
X158824395Y-79883000D01*
X159183605Y-79883000D01*
X160084159Y-80783554D01*
X160340643Y-80697148D01*
X160550458Y-80123664D01*
X160524839Y-79513540D01*
X160340643Y-79068852D01*
X160084159Y-78982446D01*
X159183605Y-79883000D01*
X158824395Y-79883000D01*
X157923841Y-78982446D01*
X157667357Y-79068852D01*
X157457542Y-79642336D01*
X155450248Y-79642336D01*
X155444839Y-79513540D01*
X155260643Y-79068852D01*
X155004159Y-78982446D01*
X154103605Y-79883000D01*
X153744395Y-79883000D01*
X152843841Y-78982446D01*
X152587357Y-79068852D01*
X152377542Y-79642336D01*
X144510079Y-79642336D01*
X144051276Y-79182732D01*
X143136397Y-78802841D01*
X153023446Y-78802841D01*
X153924000Y-79703395D01*
X154824554Y-78802841D01*
X158103446Y-78802841D01*
X159004000Y-79703395D01*
X159904554Y-78802841D01*
X159818148Y-78546357D01*
X159244664Y-78336542D01*
X158634540Y-78362161D01*
X158189852Y-78546357D01*
X158103446Y-78802841D01*
X154824554Y-78802841D01*
X154738148Y-78546357D01*
X154164664Y-78336542D01*
X153554540Y-78362161D01*
X153109852Y-78546357D01*
X153023446Y-78802841D01*
X143136397Y-78802841D01*
X143046412Y-78765476D01*
X141958362Y-78764526D01*
X140952771Y-79180028D01*
X140182732Y-79948724D01*
X139765476Y-80953588D01*
X139764526Y-82041638D01*
X139112330Y-82041638D01*
X139234785Y-81746734D01*
X139235214Y-81255421D01*
X139047592Y-80801343D01*
X138700485Y-80453629D01*
X138246734Y-80265215D01*
X137755421Y-80264786D01*
X137301343Y-80452408D01*
X137127000Y-80626447D01*
X137127000Y-77565041D01*
X170312086Y-77565041D01*
X170551611Y-78071134D01*
X170966577Y-78447041D01*
X171354961Y-78607904D01*
X171577000Y-78485915D01*
X171577000Y-77343000D01*
X170433371Y-77343000D01*
X170312086Y-77565041D01*
X137127000Y-77565041D01*
X137127000Y-76873554D01*
X137299515Y-77046371D01*
X137753266Y-77234785D01*
X138244579Y-77235214D01*
X138698657Y-77047592D01*
X138879605Y-76866959D01*
X170312086Y-76866959D01*
X170433371Y-77089000D01*
X171577000Y-77089000D01*
X171577000Y-75946085D01*
X171354961Y-75824096D01*
X170966577Y-75984959D01*
X170551611Y-76360866D01*
X170312086Y-76866959D01*
X138879605Y-76866959D01*
X139046371Y-76700485D01*
X139234785Y-76246734D01*
X139235214Y-75755421D01*
X139047592Y-75301343D01*
X138700485Y-74953629D01*
X138246734Y-74765215D01*
X137755421Y-74764786D01*
X137301343Y-74952408D01*
X137127000Y-75126447D01*
X137127000Y-70636000D01*
X139838560Y-70636000D01*
X139838560Y-73636000D01*
X139882838Y-73871317D01*
X140021910Y-74087441D01*
X140234110Y-74232431D01*
X140486000Y-74283440D01*
X143486000Y-74283440D01*
X143721317Y-74239162D01*
X143937441Y-74100090D01*
X144082431Y-73887890D01*
X144133440Y-73636000D01*
X144133440Y-70636000D01*
X144089162Y-70400683D01*
X143950090Y-70184559D01*
X143737890Y-70039569D01*
X143486000Y-69988560D01*
X140486000Y-69988560D01*
X140250683Y-70032838D01*
X140034559Y-70171910D01*
X139889569Y-70384110D01*
X139838560Y-70636000D01*
X137127000Y-70636000D01*
X137127000Y-67478815D01*
X139850630Y-67478815D01*
X140174980Y-68263800D01*
X140775041Y-68864909D01*
X141559459Y-69190628D01*
X142408815Y-69191370D01*
X143193800Y-68867020D01*
X143794909Y-68266959D01*
X144120628Y-67482541D01*
X144121370Y-66633185D01*
X143797020Y-65848200D01*
X143196959Y-65247091D01*
X142412541Y-64921372D01*
X141563185Y-64920630D01*
X140778200Y-65244980D01*
X140177091Y-65845041D01*
X139851372Y-66629459D01*
X139850630Y-67478815D01*
X137127000Y-67478815D01*
X137127000Y-64516000D01*
X146973050Y-64516000D01*
X147082283Y-65065151D01*
X147393352Y-65530698D01*
X147775438Y-65786000D01*
X147393352Y-66041302D01*
X147082283Y-66506849D01*
X146973050Y-67056000D01*
X147082283Y-67605151D01*
X147393352Y-68070698D01*
X147775438Y-68326000D01*
X147393352Y-68581302D01*
X147082283Y-69046849D01*
X146973050Y-69596000D01*
X147082283Y-70145151D01*
X147393352Y-70610698D01*
X147775438Y-70866000D01*
X147393352Y-71121302D01*
X147082283Y-71586849D01*
X146973050Y-72136000D01*
X147082283Y-72685151D01*
X147393352Y-73150698D01*
X147858899Y-73461767D01*
X148408050Y-73571000D01*
X149279950Y-73571000D01*
X149829101Y-73461767D01*
X150294648Y-73150698D01*
X150605717Y-72685151D01*
X150714950Y-72136000D01*
X150605717Y-71586849D01*
X150294648Y-71121302D01*
X149912562Y-70866000D01*
X150294648Y-70610698D01*
X150605717Y-70145151D01*
X150714950Y-69596000D01*
X150605717Y-69046849D01*
X150294648Y-68581302D01*
X149912562Y-68326000D01*
X150294648Y-68070698D01*
X150605717Y-67605151D01*
X150714950Y-67056000D01*
X150605717Y-66506849D01*
X150294648Y-66041302D01*
X149912562Y-65786000D01*
X150294648Y-65530698D01*
X150605717Y-65065151D01*
X150714950Y-64516000D01*
X154593050Y-64516000D01*
X154702283Y-65065151D01*
X155013352Y-65530698D01*
X155395438Y-65786000D01*
X155013352Y-66041302D01*
X154702283Y-66506849D01*
X154593050Y-67056000D01*
X154702283Y-67605151D01*
X155013352Y-68070698D01*
X155395438Y-68326000D01*
X155013352Y-68581302D01*
X154702283Y-69046849D01*
X154593050Y-69596000D01*
X154702283Y-70145151D01*
X155013352Y-70610698D01*
X155159350Y-70708251D01*
X155028683Y-70732838D01*
X154812559Y-70871910D01*
X154667569Y-71084110D01*
X154616560Y-71336000D01*
X154616560Y-72936000D01*
X154660838Y-73171317D01*
X154799910Y-73387441D01*
X155012110Y-73532431D01*
X155264000Y-73583440D01*
X157664000Y-73583440D01*
X157899317Y-73539162D01*
X158115441Y-73400090D01*
X158260431Y-73187890D01*
X158311440Y-72936000D01*
X158311440Y-71336000D01*
X158267162Y-71100683D01*
X158128090Y-70884559D01*
X157915890Y-70739569D01*
X157766926Y-70709403D01*
X157914648Y-70610698D01*
X158225717Y-70145151D01*
X158334950Y-69596000D01*
X158225717Y-69046849D01*
X157914648Y-68581302D01*
X157532562Y-68326000D01*
X157914648Y-68070698D01*
X158225717Y-67605151D01*
X158281573Y-67324344D01*
X161712765Y-67324344D01*
X161918617Y-67822543D01*
X162299452Y-68204043D01*
X162593264Y-68326045D01*
X162301457Y-68446617D01*
X161919957Y-68827452D01*
X161713236Y-69325291D01*
X161712765Y-69864344D01*
X161918617Y-70362543D01*
X162299452Y-70744043D01*
X162593264Y-70866045D01*
X162301457Y-70986617D01*
X161919957Y-71367452D01*
X161713236Y-71865291D01*
X161712765Y-72404344D01*
X161918617Y-72902543D01*
X162299452Y-73284043D01*
X162797291Y-73490764D01*
X163336344Y-73491235D01*
X163834543Y-73285383D01*
X164216043Y-72904548D01*
X164422764Y-72406709D01*
X164423235Y-71867656D01*
X164217383Y-71369457D01*
X164040286Y-71192050D01*
X168872000Y-71192050D01*
X168872000Y-72063950D01*
X168981233Y-72613101D01*
X169292302Y-73078648D01*
X169757849Y-73389717D01*
X170199222Y-73477512D01*
X171169855Y-74448145D01*
X171473191Y-74650827D01*
X171831000Y-74722000D01*
X175253710Y-74722000D01*
X175849000Y-75317290D01*
X175849000Y-76119936D01*
X175769302Y-76173189D01*
X175514000Y-76555275D01*
X175258698Y-76173189D01*
X174793151Y-75862120D01*
X174244000Y-75752887D01*
X173694849Y-75862120D01*
X173229302Y-76173189D01*
X172959014Y-76577703D01*
X172856389Y-76360866D01*
X172441423Y-75984959D01*
X172053039Y-75824096D01*
X171831000Y-75946085D01*
X171831000Y-77089000D01*
X171851000Y-77089000D01*
X171851000Y-77343000D01*
X171831000Y-77343000D01*
X171831000Y-78485915D01*
X172053039Y-78607904D01*
X172441423Y-78447041D01*
X172856389Y-78071134D01*
X172959014Y-77854297D01*
X173229302Y-78258811D01*
X173694849Y-78569880D01*
X174244000Y-78679113D01*
X174793151Y-78569880D01*
X175258698Y-78258811D01*
X175514000Y-77876725D01*
X175769302Y-78258811D01*
X176234849Y-78569880D01*
X176784000Y-78679113D01*
X177333151Y-78569880D01*
X177798698Y-78258811D01*
X178054000Y-77876725D01*
X178309302Y-78258811D01*
X178774849Y-78569880D01*
X179324000Y-78679113D01*
X179873151Y-78569880D01*
X180338698Y-78258811D01*
X180435101Y-78114535D01*
X180460838Y-78251317D01*
X180599910Y-78467441D01*
X180812110Y-78612431D01*
X181064000Y-78663440D01*
X182664000Y-78663440D01*
X182899317Y-78619162D01*
X183115441Y-78480090D01*
X183260431Y-78267890D01*
X183311440Y-78016000D01*
X183311440Y-76416000D01*
X183267162Y-76180683D01*
X183128090Y-75964559D01*
X182915890Y-75819569D01*
X182664000Y-75768560D01*
X181064000Y-75768560D01*
X180828683Y-75812838D01*
X180612559Y-75951910D01*
X180467569Y-76164110D01*
X180436185Y-76319089D01*
X180338698Y-76173189D01*
X180259000Y-76119936D01*
X180259000Y-75444290D01*
X180981290Y-74722000D01*
X187071000Y-74722000D01*
X187428809Y-74650827D01*
X187732145Y-74448145D01*
X188748145Y-73432145D01*
X188950827Y-73128809D01*
X189022000Y-72771000D01*
X189022000Y-70739000D01*
X188950827Y-70381191D01*
X188748145Y-70077855D01*
X187224145Y-68553855D01*
X186920809Y-68351173D01*
X186743833Y-68315970D01*
X195515635Y-68315970D01*
X195675418Y-68634739D01*
X196466187Y-68944723D01*
X197315387Y-68928497D01*
X198024582Y-68634739D01*
X198184365Y-68315970D01*
X196850000Y-66981605D01*
X195515635Y-68315970D01*
X186743833Y-68315970D01*
X186563000Y-68280000D01*
X175901290Y-68280000D01*
X173782000Y-66160710D01*
X173782000Y-65511901D01*
X173861698Y-65458648D01*
X174117000Y-65076562D01*
X174372302Y-65458648D01*
X174755208Y-65714498D01*
X175995855Y-66955145D01*
X176299191Y-67157827D01*
X176657000Y-67229000D01*
X180721000Y-67229000D01*
X181078809Y-67157827D01*
X181382145Y-66955145D01*
X181919103Y-66418187D01*
X194707277Y-66418187D01*
X194723503Y-67267387D01*
X195017261Y-67976582D01*
X195336030Y-68136365D01*
X196670395Y-66802000D01*
X197029605Y-66802000D01*
X198363970Y-68136365D01*
X198682739Y-67976582D01*
X198992723Y-67185813D01*
X198976497Y-66336613D01*
X198682739Y-65627418D01*
X198363970Y-65467635D01*
X197029605Y-66802000D01*
X196670395Y-66802000D01*
X195336030Y-65467635D01*
X195017261Y-65627418D01*
X194707277Y-66418187D01*
X181919103Y-66418187D01*
X182549369Y-65787921D01*
X183007000Y-65878950D01*
X183556151Y-65769717D01*
X184021698Y-65458648D01*
X184119251Y-65312650D01*
X184143838Y-65443317D01*
X184282910Y-65659441D01*
X184495110Y-65804431D01*
X184747000Y-65855440D01*
X186347000Y-65855440D01*
X186582317Y-65811162D01*
X186798441Y-65672090D01*
X186943431Y-65459890D01*
X186978233Y-65288030D01*
X195515635Y-65288030D01*
X196850000Y-66622395D01*
X198184365Y-65288030D01*
X198024582Y-64969261D01*
X197233813Y-64659277D01*
X196384613Y-64675503D01*
X195675418Y-64969261D01*
X195515635Y-65288030D01*
X186978233Y-65288030D01*
X186994440Y-65208000D01*
X186994440Y-62808000D01*
X186984844Y-62757000D01*
X188391164Y-62757000D01*
X188402515Y-62768371D01*
X188856266Y-62956785D01*
X189347579Y-62957214D01*
X189801657Y-62769592D01*
X190149371Y-62422485D01*
X190337785Y-61968734D01*
X190338214Y-61477421D01*
X190150592Y-61023343D01*
X189803485Y-60675629D01*
X189349734Y-60487215D01*
X188858421Y-60486786D01*
X188404343Y-60674408D01*
X188391729Y-60687000D01*
X183845836Y-60687000D01*
X183834485Y-60675629D01*
X183380734Y-60487215D01*
X182889421Y-60486786D01*
X182435343Y-60674408D01*
X182422729Y-60687000D01*
X175082836Y-60687000D01*
X175071485Y-60675629D01*
X174617734Y-60487215D01*
X174126421Y-60486786D01*
X173672343Y-60674408D01*
X173324629Y-61021515D01*
X173136215Y-61475266D01*
X173135786Y-61966579D01*
X173238392Y-62214903D01*
X172847000Y-62137050D01*
X172297849Y-62246283D01*
X171832302Y-62557352D01*
X171579493Y-62935707D01*
X171231896Y-62503500D01*
X170738819Y-62233633D01*
X170656039Y-62216096D01*
X170434000Y-62338085D01*
X170434000Y-63881000D01*
X170454000Y-63881000D01*
X170454000Y-64135000D01*
X170434000Y-64135000D01*
X170434000Y-65677915D01*
X170656039Y-65799904D01*
X170738819Y-65782367D01*
X171231896Y-65512500D01*
X171579493Y-65080293D01*
X171832302Y-65458648D01*
X171912000Y-65511901D01*
X171912000Y-66548000D01*
X171983173Y-66905809D01*
X172185855Y-67209145D01*
X174842140Y-69865430D01*
X174837849Y-69866283D01*
X174372302Y-70177352D01*
X174117000Y-70559438D01*
X173861698Y-70177352D01*
X173396151Y-69866283D01*
X172847000Y-69757050D01*
X172297849Y-69866283D01*
X171832302Y-70177352D01*
X171577000Y-70559438D01*
X171321698Y-70177352D01*
X170856151Y-69866283D01*
X170307000Y-69757050D01*
X169757849Y-69866283D01*
X169292302Y-70177352D01*
X168981233Y-70642899D01*
X168872000Y-71192050D01*
X164040286Y-71192050D01*
X163836548Y-70987957D01*
X163542736Y-70865955D01*
X163834543Y-70745383D01*
X164216043Y-70364548D01*
X164422764Y-69866709D01*
X164423235Y-69327656D01*
X164217383Y-68829457D01*
X163836548Y-68447957D01*
X163542736Y-68325955D01*
X163834543Y-68205383D01*
X164216043Y-67824548D01*
X164422764Y-67326709D01*
X164423235Y-66787656D01*
X164217383Y-66289457D01*
X163836548Y-65907957D01*
X163338709Y-65701236D01*
X162799656Y-65700765D01*
X162301457Y-65906617D01*
X161919957Y-66287452D01*
X161713236Y-66785291D01*
X161712765Y-67324344D01*
X158281573Y-67324344D01*
X158334950Y-67056000D01*
X158225717Y-66506849D01*
X157914648Y-66041302D01*
X157532562Y-65786000D01*
X157914648Y-65530698D01*
X158225717Y-65065151D01*
X158334950Y-64516000D01*
X158259165Y-64135000D01*
X168872000Y-64135000D01*
X168872000Y-64535000D01*
X169029834Y-65074483D01*
X169382104Y-65512500D01*
X169875181Y-65782367D01*
X169957961Y-65799904D01*
X170180000Y-65677915D01*
X170180000Y-64135000D01*
X168872000Y-64135000D01*
X158259165Y-64135000D01*
X158225717Y-63966849D01*
X157914648Y-63501302D01*
X157884264Y-63481000D01*
X168872000Y-63481000D01*
X168872000Y-63881000D01*
X170180000Y-63881000D01*
X170180000Y-62338085D01*
X169957961Y-62216096D01*
X169875181Y-62233633D01*
X169382104Y-62503500D01*
X169029834Y-62941517D01*
X168872000Y-63481000D01*
X157884264Y-63481000D01*
X157449101Y-63190233D01*
X156899950Y-63081000D01*
X156028050Y-63081000D01*
X155478899Y-63190233D01*
X155013352Y-63501302D01*
X154702283Y-63966849D01*
X154593050Y-64516000D01*
X150714950Y-64516000D01*
X150605717Y-63966849D01*
X150294648Y-63501302D01*
X149829101Y-63190233D01*
X149279950Y-63081000D01*
X148408050Y-63081000D01*
X147858899Y-63190233D01*
X147393352Y-63501302D01*
X147082283Y-63966849D01*
X146973050Y-64516000D01*
X137127000Y-64516000D01*
X137127000Y-63489970D01*
X140651635Y-63489970D01*
X140811418Y-63808739D01*
X141602187Y-64118723D01*
X142451387Y-64102497D01*
X143160582Y-63808739D01*
X143320365Y-63489970D01*
X141986000Y-62155605D01*
X140651635Y-63489970D01*
X137127000Y-63489970D01*
X137127000Y-61592187D01*
X139843277Y-61592187D01*
X139859503Y-62441387D01*
X140153261Y-63150582D01*
X140472030Y-63310365D01*
X141806395Y-61976000D01*
X142165605Y-61976000D01*
X143499970Y-63310365D01*
X143818739Y-63150582D01*
X144128723Y-62359813D01*
X144112497Y-61510613D01*
X143818739Y-60801418D01*
X143499970Y-60641635D01*
X142165605Y-61976000D01*
X141806395Y-61976000D01*
X140472030Y-60641635D01*
X140153261Y-60801418D01*
X139843277Y-61592187D01*
X137127000Y-61592187D01*
X137127000Y-60462030D01*
X140651635Y-60462030D01*
X141986000Y-61796395D01*
X143320365Y-60462030D01*
X143200050Y-60222000D01*
X194702560Y-60222000D01*
X194702560Y-63222000D01*
X194746838Y-63457317D01*
X194885910Y-63673441D01*
X195098110Y-63818431D01*
X195350000Y-63869440D01*
X198350000Y-63869440D01*
X198585317Y-63825162D01*
X198801441Y-63686090D01*
X198946431Y-63473890D01*
X198997440Y-63222000D01*
X198997440Y-60222000D01*
X198953162Y-59986683D01*
X198814090Y-59770559D01*
X198601890Y-59625569D01*
X198350000Y-59574560D01*
X195350000Y-59574560D01*
X195114683Y-59618838D01*
X194898559Y-59757910D01*
X194753569Y-59970110D01*
X194702560Y-60222000D01*
X143200050Y-60222000D01*
X143160582Y-60143261D01*
X142369813Y-59833277D01*
X141520613Y-59849503D01*
X140811418Y-60143261D01*
X140651635Y-60462030D01*
X137127000Y-60462030D01*
X137127000Y-58873554D01*
X137299515Y-59046371D01*
X137753266Y-59234785D01*
X138244579Y-59235214D01*
X138698657Y-59047592D01*
X139046371Y-58700485D01*
X139234785Y-58246734D01*
X139235214Y-57755421D01*
X139047592Y-57301343D01*
X138700485Y-56953629D01*
X138246734Y-56765215D01*
X137755421Y-56764786D01*
X137301343Y-56952408D01*
X137127000Y-57126447D01*
X137127000Y-56120159D01*
X155559446Y-56120159D01*
X155645852Y-56376643D01*
X156219336Y-56586458D01*
X156829460Y-56560839D01*
X157274148Y-56376643D01*
X157360554Y-56120159D01*
X160639446Y-56120159D01*
X160725852Y-56376643D01*
X161299336Y-56586458D01*
X161909460Y-56560839D01*
X162354148Y-56376643D01*
X162440554Y-56120159D01*
X161540000Y-55219605D01*
X160639446Y-56120159D01*
X157360554Y-56120159D01*
X156460000Y-55219605D01*
X155559446Y-56120159D01*
X137127000Y-56120159D01*
X137127000Y-53373554D01*
X137299515Y-53546371D01*
X137753266Y-53734785D01*
X138244579Y-53735214D01*
X138698657Y-53547592D01*
X139046371Y-53200485D01*
X139112330Y-53041638D01*
X139764526Y-53041638D01*
X140180028Y-54047229D01*
X140948724Y-54817268D01*
X141953588Y-55234524D01*
X143041638Y-55235474D01*
X144047229Y-54819972D01*
X144067901Y-54799336D01*
X154913542Y-54799336D01*
X154939161Y-55409460D01*
X155123357Y-55854148D01*
X155379841Y-55940554D01*
X156280395Y-55040000D01*
X156639605Y-55040000D01*
X157540159Y-55940554D01*
X157796643Y-55854148D01*
X158006458Y-55280664D01*
X157986248Y-54799336D01*
X159993542Y-54799336D01*
X160019161Y-55409460D01*
X160203357Y-55854148D01*
X160459841Y-55940554D01*
X161360395Y-55040000D01*
X161719605Y-55040000D01*
X162620159Y-55940554D01*
X162876643Y-55854148D01*
X163086458Y-55280664D01*
X163060839Y-54670540D01*
X162876643Y-54225852D01*
X162620159Y-54139446D01*
X161719605Y-55040000D01*
X161360395Y-55040000D01*
X160459841Y-54139446D01*
X160203357Y-54225852D01*
X159993542Y-54799336D01*
X157986248Y-54799336D01*
X157980839Y-54670540D01*
X157796643Y-54225852D01*
X157540159Y-54139446D01*
X156639605Y-55040000D01*
X156280395Y-55040000D01*
X155379841Y-54139446D01*
X155123357Y-54225852D01*
X154913542Y-54799336D01*
X144067901Y-54799336D01*
X144817268Y-54051276D01*
X144855235Y-53959841D01*
X155559446Y-53959841D01*
X156460000Y-54860395D01*
X157360554Y-53959841D01*
X157274148Y-53703357D01*
X156700664Y-53493542D01*
X156090540Y-53519161D01*
X155645852Y-53703357D01*
X155559446Y-53959841D01*
X144855235Y-53959841D01*
X145234524Y-53046412D01*
X145234735Y-52803991D01*
X157464735Y-52803991D01*
X157697932Y-53368371D01*
X158129357Y-53800551D01*
X158693330Y-54034733D01*
X159303991Y-54035265D01*
X159486531Y-53959841D01*
X160639446Y-53959841D01*
X161540000Y-54860395D01*
X162440554Y-53959841D01*
X162354148Y-53703357D01*
X161798316Y-53500000D01*
X174445907Y-53500000D01*
X174558946Y-54068285D01*
X174880853Y-54550054D01*
X175362622Y-54871961D01*
X175930907Y-54985000D01*
X175989093Y-54985000D01*
X176557378Y-54871961D01*
X177039147Y-54550054D01*
X177039971Y-54548821D01*
X177046838Y-54585317D01*
X177185910Y-54801441D01*
X177398110Y-54946431D01*
X177650000Y-54997440D01*
X179350000Y-54997440D01*
X179585317Y-54953162D01*
X179801441Y-54814090D01*
X179946431Y-54601890D01*
X179997440Y-54350000D01*
X179997440Y-53500000D01*
X181445907Y-53500000D01*
X181558946Y-54068285D01*
X181880853Y-54550054D01*
X182362622Y-54871961D01*
X182930907Y-54985000D01*
X182989093Y-54985000D01*
X183557378Y-54871961D01*
X184039147Y-54550054D01*
X184039971Y-54548821D01*
X184046838Y-54585317D01*
X184185910Y-54801441D01*
X184398110Y-54946431D01*
X184650000Y-54997440D01*
X186350000Y-54997440D01*
X186585317Y-54953162D01*
X186801441Y-54814090D01*
X186946431Y-54601890D01*
X186997440Y-54350000D01*
X186997440Y-53041638D01*
X193764526Y-53041638D01*
X194180028Y-54047229D01*
X194948724Y-54817268D01*
X195953588Y-55234524D01*
X197041638Y-55235474D01*
X198047229Y-54819972D01*
X198817268Y-54051276D01*
X199234524Y-53046412D01*
X199235474Y-51958362D01*
X198819972Y-50952771D01*
X198051276Y-50182732D01*
X197046412Y-49765476D01*
X195958362Y-49764526D01*
X194952771Y-50180028D01*
X194182732Y-50948724D01*
X193765476Y-51953588D01*
X193764526Y-53041638D01*
X186997440Y-53041638D01*
X186997440Y-52650000D01*
X186953162Y-52414683D01*
X186814090Y-52198559D01*
X186601890Y-52053569D01*
X186493893Y-52031699D01*
X186771645Y-51726924D01*
X186941476Y-51316890D01*
X186820155Y-51087000D01*
X185627000Y-51087000D01*
X185627000Y-51107000D01*
X185373000Y-51107000D01*
X185373000Y-51087000D01*
X183087000Y-51087000D01*
X183087000Y-51107000D01*
X182833000Y-51107000D01*
X182833000Y-51087000D01*
X181639845Y-51087000D01*
X181518524Y-51316890D01*
X181688355Y-51726924D01*
X182078642Y-52155183D01*
X182221553Y-52222298D01*
X181880853Y-52449946D01*
X181558946Y-52931715D01*
X181445907Y-53500000D01*
X179997440Y-53500000D01*
X179997440Y-52650000D01*
X179953162Y-52414683D01*
X179814090Y-52198559D01*
X179601890Y-52053569D01*
X179493893Y-52031699D01*
X179771645Y-51726924D01*
X179941476Y-51316890D01*
X179820155Y-51087000D01*
X178627000Y-51087000D01*
X178627000Y-51107000D01*
X178373000Y-51107000D01*
X178373000Y-51087000D01*
X176087000Y-51087000D01*
X176087000Y-51107000D01*
X175833000Y-51107000D01*
X175833000Y-51087000D01*
X174639845Y-51087000D01*
X174518524Y-51316890D01*
X174688355Y-51726924D01*
X175078642Y-52155183D01*
X175221553Y-52222298D01*
X174880853Y-52449946D01*
X174558946Y-52931715D01*
X174445907Y-53500000D01*
X161798316Y-53500000D01*
X161780664Y-53493542D01*
X161170540Y-53519161D01*
X160725852Y-53703357D01*
X160639446Y-53959841D01*
X159486531Y-53959841D01*
X159868371Y-53802068D01*
X160300551Y-53370643D01*
X160534733Y-52806670D01*
X160535265Y-52196009D01*
X160302068Y-51631629D01*
X159870643Y-51199449D01*
X159487031Y-51040159D01*
X160639446Y-51040159D01*
X160725852Y-51296643D01*
X161299336Y-51506458D01*
X161909460Y-51480839D01*
X162354148Y-51296643D01*
X162357817Y-51285750D01*
X166515000Y-51285750D01*
X166515000Y-51976309D01*
X166611673Y-52209698D01*
X166790301Y-52388327D01*
X167023690Y-52485000D01*
X167714250Y-52485000D01*
X167873000Y-52326250D01*
X167873000Y-51127000D01*
X166673750Y-51127000D01*
X166515000Y-51285750D01*
X162357817Y-51285750D01*
X162440554Y-51040159D01*
X161540000Y-50139605D01*
X160639446Y-51040159D01*
X159487031Y-51040159D01*
X159306670Y-50965267D01*
X158696009Y-50964735D01*
X158131629Y-51197932D01*
X157699449Y-51629357D01*
X157465267Y-52193330D01*
X157464735Y-52803991D01*
X145234735Y-52803991D01*
X145235474Y-51958362D01*
X144856081Y-51040159D01*
X155559446Y-51040159D01*
X155645852Y-51296643D01*
X156219336Y-51506458D01*
X156829460Y-51480839D01*
X157274148Y-51296643D01*
X157360554Y-51040159D01*
X156460000Y-50139605D01*
X155559446Y-51040159D01*
X144856081Y-51040159D01*
X144819972Y-50952771D01*
X144051276Y-50182732D01*
X143046412Y-49765476D01*
X141958362Y-49764526D01*
X140952771Y-50180028D01*
X140182732Y-50948724D01*
X139765476Y-51953588D01*
X139764526Y-53041638D01*
X139112330Y-53041638D01*
X139234785Y-52746734D01*
X139235214Y-52255421D01*
X139047592Y-51801343D01*
X138700485Y-51453629D01*
X138246734Y-51265215D01*
X137755421Y-51264786D01*
X137301343Y-51452408D01*
X137127000Y-51626447D01*
X137127000Y-47127000D01*
X140126446Y-47127000D01*
X139953629Y-47299515D01*
X139953629Y-47299515D01*
G37*
X139953629Y-47299515D02*
X139765215Y-47753266D01*
X139764786Y-48244579D01*
X139952408Y-48698657D01*
X140299515Y-49046371D01*
X140753266Y-49234785D01*
X141244579Y-49235214D01*
X141698657Y-49047592D01*
X142046371Y-48700485D01*
X142234785Y-48246734D01*
X142235214Y-47755421D01*
X142047592Y-47301343D01*
X141873553Y-47127000D01*
X147126446Y-47127000D01*
X146953629Y-47299515D01*
X146765215Y-47753266D01*
X146764786Y-48244579D01*
X146952408Y-48698657D01*
X147299515Y-49046371D01*
X147753266Y-49234785D01*
X148244579Y-49235214D01*
X148698657Y-49047592D01*
X149046371Y-48700485D01*
X149234785Y-48246734D01*
X149235214Y-47755421D01*
X149047592Y-47301343D01*
X148873553Y-47127000D01*
X155126446Y-47127000D01*
X154953629Y-47299515D01*
X154765215Y-47753266D01*
X154764786Y-48244579D01*
X154952408Y-48698657D01*
X155299515Y-49046371D01*
X155352878Y-49068529D01*
X155123357Y-49145852D01*
X154913542Y-49719336D01*
X154939161Y-50329460D01*
X155123357Y-50774148D01*
X155379841Y-50860554D01*
X156280395Y-49960000D01*
X156639605Y-49960000D01*
X157540159Y-50860554D01*
X157796643Y-50774148D01*
X158006458Y-50200664D01*
X157986248Y-49719336D01*
X159993542Y-49719336D01*
X160019161Y-50329460D01*
X160203357Y-50774148D01*
X160459841Y-50860554D01*
X161360395Y-49960000D01*
X161719605Y-49960000D01*
X162620159Y-50860554D01*
X162876643Y-50774148D01*
X163086458Y-50200664D01*
X163079027Y-50023691D01*
X166515000Y-50023691D01*
X166515000Y-50714250D01*
X166673750Y-50873000D01*
X167873000Y-50873000D01*
X167873000Y-49673750D01*
X168127000Y-49673750D01*
X168127000Y-50873000D01*
X168147000Y-50873000D01*
X168147000Y-51127000D01*
X168127000Y-51127000D01*
X168127000Y-52326250D01*
X168285750Y-52485000D01*
X168976310Y-52485000D01*
X169209699Y-52388327D01*
X169388327Y-52209698D01*
X169460597Y-52035223D01*
X169489946Y-52079147D01*
X169971715Y-52401054D01*
X170540000Y-52514093D01*
X171108285Y-52401054D01*
X171590054Y-52079147D01*
X171911961Y-51597378D01*
X172025000Y-51029093D01*
X172025000Y-50970907D01*
X171951841Y-50603110D01*
X174518524Y-50603110D01*
X174639845Y-50833000D01*
X175833000Y-50833000D01*
X175833000Y-49639181D01*
X176087000Y-49639181D01*
X176087000Y-50833000D01*
X178373000Y-50833000D01*
X178373000Y-49639181D01*
X178627000Y-49639181D01*
X178627000Y-50833000D01*
X179820155Y-50833000D01*
X179941476Y-50603110D01*
X181518524Y-50603110D01*
X181639845Y-50833000D01*
X182833000Y-50833000D01*
X182833000Y-49639181D01*
X183087000Y-49639181D01*
X183087000Y-50833000D01*
X185373000Y-50833000D01*
X185373000Y-49639181D01*
X185627000Y-49639181D01*
X185627000Y-50833000D01*
X186820155Y-50833000D01*
X186941476Y-50603110D01*
X186771645Y-50193076D01*
X186381358Y-49764817D01*
X185856892Y-49518514D01*
X185627000Y-49639181D01*
X185373000Y-49639181D01*
X185143108Y-49518514D01*
X184618642Y-49764817D01*
X184230000Y-50191271D01*
X183841358Y-49764817D01*
X183316892Y-49518514D01*
X183087000Y-49639181D01*
X182833000Y-49639181D01*
X182603108Y-49518514D01*
X182078642Y-49764817D01*
X181688355Y-50193076D01*
X181518524Y-50603110D01*
X179941476Y-50603110D01*
X179771645Y-50193076D01*
X179381358Y-49764817D01*
X178856892Y-49518514D01*
X178627000Y-49639181D01*
X178373000Y-49639181D01*
X178143108Y-49518514D01*
X177618642Y-49764817D01*
X177230000Y-50191271D01*
X176841358Y-49764817D01*
X176316892Y-49518514D01*
X176087000Y-49639181D01*
X175833000Y-49639181D01*
X175603108Y-49518514D01*
X175078642Y-49764817D01*
X174688355Y-50193076D01*
X174518524Y-50603110D01*
X171951841Y-50603110D01*
X171911961Y-50402622D01*
X171590054Y-49920853D01*
X171108285Y-49598946D01*
X170540000Y-49485907D01*
X169971715Y-49598946D01*
X169489946Y-49920853D01*
X169460597Y-49964777D01*
X169388327Y-49790302D01*
X169209699Y-49611673D01*
X168976310Y-49515000D01*
X168285750Y-49515000D01*
X168127000Y-49673750D01*
X167873000Y-49673750D01*
X167714250Y-49515000D01*
X167023690Y-49515000D01*
X166790301Y-49611673D01*
X166611673Y-49790302D01*
X166515000Y-50023691D01*
X163079027Y-50023691D01*
X163060839Y-49590540D01*
X162876643Y-49145852D01*
X162620159Y-49059446D01*
X161719605Y-49960000D01*
X161360395Y-49960000D01*
X160459841Y-49059446D01*
X160203357Y-49145852D01*
X159993542Y-49719336D01*
X157986248Y-49719336D01*
X157980839Y-49590540D01*
X157796643Y-49145852D01*
X157540159Y-49059446D01*
X156639605Y-49960000D01*
X156280395Y-49960000D01*
X156266253Y-49945858D01*
X156445858Y-49766253D01*
X156460000Y-49780395D01*
X157360554Y-48879841D01*
X160639446Y-48879841D01*
X161540000Y-49780395D01*
X162440554Y-48879841D01*
X162354148Y-48623357D01*
X161780664Y-48413542D01*
X161170540Y-48439161D01*
X160725852Y-48623357D01*
X160639446Y-48879841D01*
X157360554Y-48879841D01*
X157274148Y-48623357D01*
X157104214Y-48561185D01*
X157234785Y-48246734D01*
X157235214Y-47755421D01*
X157047592Y-47301343D01*
X156873553Y-47127000D01*
X163126446Y-47127000D01*
X162953629Y-47299515D01*
X162765215Y-47753266D01*
X162764786Y-48244579D01*
X162952408Y-48698657D01*
X163299515Y-49046371D01*
X163753266Y-49234785D01*
X164244579Y-49235214D01*
X164698657Y-49047592D01*
X165046371Y-48700485D01*
X165234785Y-48246734D01*
X165235214Y-47755421D01*
X165047592Y-47301343D01*
X164873553Y-47127000D01*
X171126446Y-47127000D01*
X170953629Y-47299515D01*
X170765215Y-47753266D01*
X170764786Y-48244579D01*
X170952408Y-48698657D01*
X171299515Y-49046371D01*
X171753266Y-49234785D01*
X172244579Y-49235214D01*
X172698657Y-49047592D01*
X173046371Y-48700485D01*
X173234785Y-48246734D01*
X173235214Y-47755421D01*
X173047592Y-47301343D01*
X172873553Y-47127000D01*
X179126446Y-47127000D01*
X178953629Y-47299515D01*
X178765215Y-47753266D01*
X178764786Y-48244579D01*
X178952408Y-48698657D01*
X179299515Y-49046371D01*
X179753266Y-49234785D01*
X180244579Y-49235214D01*
X180698657Y-49047592D01*
X181046371Y-48700485D01*
X181234785Y-48246734D01*
X181235214Y-47755421D01*
X181047592Y-47301343D01*
X180873553Y-47127000D01*
X187126446Y-47127000D01*
X186953629Y-47299515D01*
X186765215Y-47753266D01*
X186764786Y-48244579D01*
X186952408Y-48698657D01*
X187299515Y-49046371D01*
X187753266Y-49234785D01*
X188244579Y-49235214D01*
X188698657Y-49047592D01*
X189046371Y-48700485D01*
X189234785Y-48246734D01*
X189235214Y-47755421D01*
X189047592Y-47301343D01*
X188873553Y-47127000D01*
X196126446Y-47127000D01*
X195953629Y-47299515D01*
X195765215Y-47753266D01*
X195764786Y-48244579D01*
X195952408Y-48698657D01*
X196299515Y-49046371D01*
X196753266Y-49234785D01*
X197244579Y-49235214D01*
X197698657Y-49047592D01*
X198046371Y-48700485D01*
X198234785Y-48246734D01*
X198235214Y-47755421D01*
X198047592Y-47301343D01*
X197873553Y-47127000D01*
X201873000Y-47127000D01*
X201873000Y-50626446D01*
X201700485Y-50453629D01*
X201246734Y-50265215D01*
X200755421Y-50264786D01*
X200301343Y-50452408D01*
X199953629Y-50799515D01*
X199765215Y-51253266D01*
X199764786Y-51744579D01*
X199952408Y-52198657D01*
X200299515Y-52546371D01*
X200753266Y-52734785D01*
X201244579Y-52735214D01*
X201698657Y-52547592D01*
X201873000Y-52373553D01*
X201873000Y-57126446D01*
X201700485Y-56953629D01*
X201246734Y-56765215D01*
X200755421Y-56764786D01*
X200301343Y-56952408D01*
X199953629Y-57299515D01*
X199765215Y-57753266D01*
X199764786Y-58244579D01*
X199952408Y-58698657D01*
X200299515Y-59046371D01*
X200753266Y-59234785D01*
X201244579Y-59235214D01*
X201698657Y-59047592D01*
X201873000Y-58873553D01*
X201873000Y-70126446D01*
X201700485Y-69953629D01*
X201246734Y-69765215D01*
X200755421Y-69764786D01*
X200301343Y-69952408D01*
X199953629Y-70299515D01*
X199765215Y-70753266D01*
X199764786Y-71244579D01*
X199952408Y-71698657D01*
X200299515Y-72046371D01*
X200753266Y-72234785D01*
X201244579Y-72235214D01*
X201698657Y-72047592D01*
X201873000Y-71873553D01*
X201873000Y-76126446D01*
X201700485Y-75953629D01*
X201246734Y-75765215D01*
X200755421Y-75764786D01*
X200301343Y-75952408D01*
X199953629Y-76299515D01*
X199765215Y-76753266D01*
X199764786Y-77244579D01*
X199952408Y-77698657D01*
X200299515Y-78046371D01*
X200753266Y-78234785D01*
X201244579Y-78235214D01*
X201698657Y-78047592D01*
X201873000Y-77873553D01*
X201873000Y-81626446D01*
X201700485Y-81453629D01*
X201246734Y-81265215D01*
X200755421Y-81264786D01*
X200301343Y-81452408D01*
X199953629Y-81799515D01*
X199765215Y-82253266D01*
X199764786Y-82744579D01*
X199952408Y-83198657D01*
X200299515Y-83546371D01*
X200753266Y-83734785D01*
X201244579Y-83735214D01*
X201698657Y-83547592D01*
X201873000Y-83373553D01*
X201873000Y-86873000D01*
X198373554Y-86873000D01*
X198546371Y-86700485D01*
X198734785Y-86246734D01*
X198735214Y-85755421D01*
X198547592Y-85301343D01*
X198200485Y-84953629D01*
X197746734Y-84765215D01*
X197255421Y-84764786D01*
X196801343Y-84952408D01*
X196453629Y-85299515D01*
X196265215Y-85753266D01*
X196264786Y-86244579D01*
X196452408Y-86698657D01*
X196626447Y-86873000D01*
X189873554Y-86873000D01*
X190046371Y-86700485D01*
X190234785Y-86246734D01*
X190235214Y-85755421D01*
X190047592Y-85301343D01*
X189700485Y-84953629D01*
X189246734Y-84765215D01*
X188755421Y-84764786D01*
X188301343Y-84952408D01*
X187953629Y-85299515D01*
X187765215Y-85753266D01*
X187764786Y-86244579D01*
X187952408Y-86698657D01*
X188126447Y-86873000D01*
X167873554Y-86873000D01*
X168046371Y-86700485D01*
X168234785Y-86246734D01*
X168235214Y-85755421D01*
X168047592Y-85301343D01*
X167931494Y-85185041D01*
X170312086Y-85185041D01*
X170551611Y-85691134D01*
X170966577Y-86067041D01*
X171354961Y-86227904D01*
X171577000Y-86105915D01*
X171577000Y-84963000D01*
X171831000Y-84963000D01*
X171831000Y-86105915D01*
X172053039Y-86227904D01*
X172441423Y-86067041D01*
X172856389Y-85691134D01*
X172974000Y-85442633D01*
X173091611Y-85691134D01*
X173506577Y-86067041D01*
X173894961Y-86227904D01*
X174117000Y-86105915D01*
X174117000Y-84963000D01*
X174371000Y-84963000D01*
X174371000Y-86105915D01*
X174593039Y-86227904D01*
X174981423Y-86067041D01*
X175396389Y-85691134D01*
X175514000Y-85442633D01*
X175631611Y-85691134D01*
X176046577Y-86067041D01*
X176434961Y-86227904D01*
X176657000Y-86105915D01*
X176657000Y-84963000D01*
X176911000Y-84963000D01*
X176911000Y-86105915D01*
X177133039Y-86227904D01*
X177521423Y-86067041D01*
X177936389Y-85691134D01*
X178054000Y-85442633D01*
X178171611Y-85691134D01*
X178586577Y-86067041D01*
X178974961Y-86227904D01*
X179197000Y-86105915D01*
X179197000Y-84963000D01*
X179451000Y-84963000D01*
X179451000Y-86105915D01*
X179673039Y-86227904D01*
X180061423Y-86067041D01*
X180476389Y-85691134D01*
X180594000Y-85442633D01*
X180711611Y-85691134D01*
X181126577Y-86067041D01*
X181514961Y-86227904D01*
X181737000Y-86105915D01*
X181737000Y-84963000D01*
X181991000Y-84963000D01*
X181991000Y-86105915D01*
X182213039Y-86227904D01*
X182601423Y-86067041D01*
X183016389Y-85691134D01*
X183255914Y-85185041D01*
X183134629Y-84963000D01*
X181991000Y-84963000D01*
X181737000Y-84963000D01*
X179451000Y-84963000D01*
X179197000Y-84963000D01*
X176911000Y-84963000D01*
X176657000Y-84963000D01*
X174371000Y-84963000D01*
X174117000Y-84963000D01*
X171831000Y-84963000D01*
X171577000Y-84963000D01*
X170433371Y-84963000D01*
X170312086Y-85185041D01*
X167931494Y-85185041D01*
X167700485Y-84953629D01*
X167246734Y-84765215D01*
X166755421Y-84764786D01*
X166301343Y-84952408D01*
X165953629Y-85299515D01*
X165765215Y-85753266D01*
X165764786Y-86244579D01*
X165952408Y-86698657D01*
X166126447Y-86873000D01*
X162873554Y-86873000D01*
X163046371Y-86700485D01*
X163234785Y-86246734D01*
X163235214Y-85755421D01*
X163047592Y-85301343D01*
X162700485Y-84953629D01*
X162246734Y-84765215D01*
X161755421Y-84764786D01*
X161301343Y-84952408D01*
X160953629Y-85299515D01*
X160765215Y-85753266D01*
X160764786Y-86244579D01*
X160952408Y-86698657D01*
X161126447Y-86873000D01*
X152873554Y-86873000D01*
X153046371Y-86700485D01*
X153199236Y-86332345D01*
X153683336Y-86509458D01*
X154293460Y-86483839D01*
X154738148Y-86299643D01*
X154824554Y-86043159D01*
X158103446Y-86043159D01*
X158189852Y-86299643D01*
X158763336Y-86509458D01*
X159373460Y-86483839D01*
X159818148Y-86299643D01*
X159904554Y-86043159D01*
X159004000Y-85142605D01*
X158103446Y-86043159D01*
X154824554Y-86043159D01*
X153924000Y-85142605D01*
X153909858Y-85156748D01*
X153730253Y-84977143D01*
X153744395Y-84963000D01*
X154103605Y-84963000D01*
X155004159Y-85863554D01*
X155260643Y-85777148D01*
X155470458Y-85203664D01*
X155450248Y-84722336D01*
X157457542Y-84722336D01*
X157483161Y-85332460D01*
X157667357Y-85777148D01*
X157923841Y-85863554D01*
X158824395Y-84963000D01*
X159183605Y-84963000D01*
X160084159Y-85863554D01*
X160340643Y-85777148D01*
X160550458Y-85203664D01*
X160524839Y-84593540D01*
X160480692Y-84486959D01*
X170312086Y-84486959D01*
X170433371Y-84709000D01*
X171577000Y-84709000D01*
X171577000Y-83566085D01*
X171831000Y-83566085D01*
X171831000Y-84709000D01*
X174117000Y-84709000D01*
X174117000Y-83566085D01*
X174371000Y-83566085D01*
X174371000Y-84709000D01*
X176657000Y-84709000D01*
X176657000Y-83566085D01*
X176911000Y-83566085D01*
X176911000Y-84709000D01*
X179197000Y-84709000D01*
X179197000Y-83566085D01*
X179451000Y-83566085D01*
X179451000Y-84709000D01*
X181737000Y-84709000D01*
X181737000Y-83566085D01*
X181991000Y-83566085D01*
X181991000Y-84709000D01*
X183134629Y-84709000D01*
X183255914Y-84486959D01*
X183016389Y-83980866D01*
X182601423Y-83604959D01*
X182213039Y-83444096D01*
X181991000Y-83566085D01*
X181737000Y-83566085D01*
X181514961Y-83444096D01*
X181126577Y-83604959D01*
X180711611Y-83980866D01*
X180594000Y-84229367D01*
X180476389Y-83980866D01*
X180061423Y-83604959D01*
X179673039Y-83444096D01*
X179451000Y-83566085D01*
X179197000Y-83566085D01*
X178974961Y-83444096D01*
X178586577Y-83604959D01*
X178171611Y-83980866D01*
X178054000Y-84229367D01*
X177936389Y-83980866D01*
X177521423Y-83604959D01*
X177133039Y-83444096D01*
X176911000Y-83566085D01*
X176657000Y-83566085D01*
X176434961Y-83444096D01*
X176046577Y-83604959D01*
X175631611Y-83980866D01*
X175514000Y-84229367D01*
X175396389Y-83980866D01*
X174981423Y-83604959D01*
X174593039Y-83444096D01*
X174371000Y-83566085D01*
X174117000Y-83566085D01*
X173894961Y-83444096D01*
X173506577Y-83604959D01*
X173091611Y-83980866D01*
X172974000Y-84229367D01*
X172856389Y-83980866D01*
X172441423Y-83604959D01*
X172053039Y-83444096D01*
X171831000Y-83566085D01*
X171577000Y-83566085D01*
X171354961Y-83444096D01*
X170966577Y-83604959D01*
X170551611Y-83980866D01*
X170312086Y-84486959D01*
X160480692Y-84486959D01*
X160340643Y-84148852D01*
X160084159Y-84062446D01*
X159183605Y-84963000D01*
X158824395Y-84963000D01*
X157923841Y-84062446D01*
X157667357Y-84148852D01*
X157457542Y-84722336D01*
X155450248Y-84722336D01*
X155444839Y-84593540D01*
X155260643Y-84148852D01*
X155004159Y-84062446D01*
X154103605Y-84963000D01*
X153744395Y-84963000D01*
X152843841Y-84062446D01*
X152587357Y-84148852D01*
X152377542Y-84722336D01*
X152381696Y-84821256D01*
X152246734Y-84765215D01*
X151755421Y-84764786D01*
X151301343Y-84952408D01*
X150953629Y-85299515D01*
X150765215Y-85753266D01*
X150764786Y-86244579D01*
X150952408Y-86698657D01*
X151126447Y-86873000D01*
X147873554Y-86873000D01*
X148046371Y-86700485D01*
X148234785Y-86246734D01*
X148235214Y-85755421D01*
X148047592Y-85301343D01*
X147700485Y-84953629D01*
X147246734Y-84765215D01*
X146755421Y-84764786D01*
X146301343Y-84952408D01*
X145953629Y-85299515D01*
X145765215Y-85753266D01*
X145764786Y-86244579D01*
X145952408Y-86698657D01*
X146126447Y-86873000D01*
X142873554Y-86873000D01*
X143046371Y-86700485D01*
X143234785Y-86246734D01*
X143235214Y-85755421D01*
X143047592Y-85301343D01*
X142700485Y-84953629D01*
X142246734Y-84765215D01*
X141755421Y-84764786D01*
X141301343Y-84952408D01*
X140953629Y-85299515D01*
X140765215Y-85753266D01*
X140764786Y-86244579D01*
X140952408Y-86698657D01*
X141126447Y-86873000D01*
X137127000Y-86873000D01*
X137127000Y-82373554D01*
X137299515Y-82546371D01*
X137753266Y-82734785D01*
X138244579Y-82735214D01*
X138698657Y-82547592D01*
X139046371Y-82200485D01*
X139112330Y-82041638D01*
X139764526Y-82041638D01*
X140180028Y-83047229D01*
X140948724Y-83817268D01*
X141953588Y-84234524D01*
X143041638Y-84235474D01*
X143895074Y-83882841D01*
X153023446Y-83882841D01*
X153924000Y-84783395D01*
X154824554Y-83882841D01*
X154738148Y-83626357D01*
X154164664Y-83416542D01*
X153554540Y-83442161D01*
X153109852Y-83626357D01*
X153023446Y-83882841D01*
X143895074Y-83882841D01*
X144047229Y-83819972D01*
X144817268Y-83051276D01*
X144951922Y-82726991D01*
X154928735Y-82726991D01*
X155161932Y-83291371D01*
X155593357Y-83723551D01*
X156157330Y-83957733D01*
X156767991Y-83958265D01*
X156950531Y-83882841D01*
X158103446Y-83882841D01*
X159004000Y-84783395D01*
X159904554Y-83882841D01*
X159818148Y-83626357D01*
X159244664Y-83416542D01*
X158634540Y-83442161D01*
X158189852Y-83626357D01*
X158103446Y-83882841D01*
X156950531Y-83882841D01*
X157332371Y-83725068D01*
X157764551Y-83293643D01*
X157998733Y-82729670D01*
X157999265Y-82119009D01*
X157967296Y-82041638D01*
X193764526Y-82041638D01*
X194180028Y-83047229D01*
X194948724Y-83817268D01*
X195953588Y-84234524D01*
X197041638Y-84235474D01*
X198047229Y-83819972D01*
X198817268Y-83051276D01*
X199234524Y-82046412D01*
X199235474Y-80958362D01*
X198819972Y-79952771D01*
X198051276Y-79182732D01*
X197046412Y-78765476D01*
X195958362Y-78764526D01*
X194952771Y-79180028D01*
X194182732Y-79948724D01*
X193765476Y-80953588D01*
X193764526Y-82041638D01*
X157967296Y-82041638D01*
X157766068Y-81554629D01*
X157334643Y-81122449D01*
X156951031Y-80963159D01*
X158103446Y-80963159D01*
X158189852Y-81219643D01*
X158763336Y-81429458D01*
X159373460Y-81403839D01*
X159818148Y-81219643D01*
X159904554Y-80963159D01*
X159004000Y-80062605D01*
X158103446Y-80963159D01*
X156951031Y-80963159D01*
X156770670Y-80888267D01*
X156160009Y-80887735D01*
X155595629Y-81120932D01*
X155163449Y-81552357D01*
X154929267Y-82116330D01*
X154928735Y-82726991D01*
X144951922Y-82726991D01*
X145234524Y-82046412D01*
X145235469Y-80963159D01*
X153023446Y-80963159D01*
X153109852Y-81219643D01*
X153683336Y-81429458D01*
X154293460Y-81403839D01*
X154738148Y-81219643D01*
X154824554Y-80963159D01*
X153924000Y-80062605D01*
X153023446Y-80963159D01*
X145235469Y-80963159D01*
X145235474Y-80958362D01*
X144819972Y-79952771D01*
X144510079Y-79642336D01*
X152377542Y-79642336D01*
X152403161Y-80252460D01*
X152587357Y-80697148D01*
X152843841Y-80783554D01*
X153744395Y-79883000D01*
X154103605Y-79883000D01*
X155004159Y-80783554D01*
X155260643Y-80697148D01*
X155470458Y-80123664D01*
X155450248Y-79642336D01*
X157457542Y-79642336D01*
X157483161Y-80252460D01*
X157667357Y-80697148D01*
X157923841Y-80783554D01*
X158824395Y-79883000D01*
X159183605Y-79883000D01*
X160084159Y-80783554D01*
X160340643Y-80697148D01*
X160550458Y-80123664D01*
X160524839Y-79513540D01*
X160340643Y-79068852D01*
X160084159Y-78982446D01*
X159183605Y-79883000D01*
X158824395Y-79883000D01*
X157923841Y-78982446D01*
X157667357Y-79068852D01*
X157457542Y-79642336D01*
X155450248Y-79642336D01*
X155444839Y-79513540D01*
X155260643Y-79068852D01*
X155004159Y-78982446D01*
X154103605Y-79883000D01*
X153744395Y-79883000D01*
X152843841Y-78982446D01*
X152587357Y-79068852D01*
X152377542Y-79642336D01*
X144510079Y-79642336D01*
X144051276Y-79182732D01*
X143136397Y-78802841D01*
X153023446Y-78802841D01*
X153924000Y-79703395D01*
X154824554Y-78802841D01*
X158103446Y-78802841D01*
X159004000Y-79703395D01*
X159904554Y-78802841D01*
X159818148Y-78546357D01*
X159244664Y-78336542D01*
X158634540Y-78362161D01*
X158189852Y-78546357D01*
X158103446Y-78802841D01*
X154824554Y-78802841D01*
X154738148Y-78546357D01*
X154164664Y-78336542D01*
X153554540Y-78362161D01*
X153109852Y-78546357D01*
X153023446Y-78802841D01*
X143136397Y-78802841D01*
X143046412Y-78765476D01*
X141958362Y-78764526D01*
X140952771Y-79180028D01*
X140182732Y-79948724D01*
X139765476Y-80953588D01*
X139764526Y-82041638D01*
X139112330Y-82041638D01*
X139234785Y-81746734D01*
X139235214Y-81255421D01*
X139047592Y-80801343D01*
X138700485Y-80453629D01*
X138246734Y-80265215D01*
X137755421Y-80264786D01*
X137301343Y-80452408D01*
X137127000Y-80626447D01*
X137127000Y-77565041D01*
X170312086Y-77565041D01*
X170551611Y-78071134D01*
X170966577Y-78447041D01*
X171354961Y-78607904D01*
X171577000Y-78485915D01*
X171577000Y-77343000D01*
X170433371Y-77343000D01*
X170312086Y-77565041D01*
X137127000Y-77565041D01*
X137127000Y-76873554D01*
X137299515Y-77046371D01*
X137753266Y-77234785D01*
X138244579Y-77235214D01*
X138698657Y-77047592D01*
X138879605Y-76866959D01*
X170312086Y-76866959D01*
X170433371Y-77089000D01*
X171577000Y-77089000D01*
X171577000Y-75946085D01*
X171354961Y-75824096D01*
X170966577Y-75984959D01*
X170551611Y-76360866D01*
X170312086Y-76866959D01*
X138879605Y-76866959D01*
X139046371Y-76700485D01*
X139234785Y-76246734D01*
X139235214Y-75755421D01*
X139047592Y-75301343D01*
X138700485Y-74953629D01*
X138246734Y-74765215D01*
X137755421Y-74764786D01*
X137301343Y-74952408D01*
X137127000Y-75126447D01*
X137127000Y-70636000D01*
X139838560Y-70636000D01*
X139838560Y-73636000D01*
X139882838Y-73871317D01*
X140021910Y-74087441D01*
X140234110Y-74232431D01*
X140486000Y-74283440D01*
X143486000Y-74283440D01*
X143721317Y-74239162D01*
X143937441Y-74100090D01*
X144082431Y-73887890D01*
X144133440Y-73636000D01*
X144133440Y-70636000D01*
X144089162Y-70400683D01*
X143950090Y-70184559D01*
X143737890Y-70039569D01*
X143486000Y-69988560D01*
X140486000Y-69988560D01*
X140250683Y-70032838D01*
X140034559Y-70171910D01*
X139889569Y-70384110D01*
X139838560Y-70636000D01*
X137127000Y-70636000D01*
X137127000Y-67478815D01*
X139850630Y-67478815D01*
X140174980Y-68263800D01*
X140775041Y-68864909D01*
X141559459Y-69190628D01*
X142408815Y-69191370D01*
X143193800Y-68867020D01*
X143794909Y-68266959D01*
X144120628Y-67482541D01*
X144121370Y-66633185D01*
X143797020Y-65848200D01*
X143196959Y-65247091D01*
X142412541Y-64921372D01*
X141563185Y-64920630D01*
X140778200Y-65244980D01*
X140177091Y-65845041D01*
X139851372Y-66629459D01*
X139850630Y-67478815D01*
X137127000Y-67478815D01*
X137127000Y-64516000D01*
X146973050Y-64516000D01*
X147082283Y-65065151D01*
X147393352Y-65530698D01*
X147775438Y-65786000D01*
X147393352Y-66041302D01*
X147082283Y-66506849D01*
X146973050Y-67056000D01*
X147082283Y-67605151D01*
X147393352Y-68070698D01*
X147775438Y-68326000D01*
X147393352Y-68581302D01*
X147082283Y-69046849D01*
X146973050Y-69596000D01*
X147082283Y-70145151D01*
X147393352Y-70610698D01*
X147775438Y-70866000D01*
X147393352Y-71121302D01*
X147082283Y-71586849D01*
X146973050Y-72136000D01*
X147082283Y-72685151D01*
X147393352Y-73150698D01*
X147858899Y-73461767D01*
X148408050Y-73571000D01*
X149279950Y-73571000D01*
X149829101Y-73461767D01*
X150294648Y-73150698D01*
X150605717Y-72685151D01*
X150714950Y-72136000D01*
X150605717Y-71586849D01*
X150294648Y-71121302D01*
X149912562Y-70866000D01*
X150294648Y-70610698D01*
X150605717Y-70145151D01*
X150714950Y-69596000D01*
X150605717Y-69046849D01*
X150294648Y-68581302D01*
X149912562Y-68326000D01*
X150294648Y-68070698D01*
X150605717Y-67605151D01*
X150714950Y-67056000D01*
X150605717Y-66506849D01*
X150294648Y-66041302D01*
X149912562Y-65786000D01*
X150294648Y-65530698D01*
X150605717Y-65065151D01*
X150714950Y-64516000D01*
X154593050Y-64516000D01*
X154702283Y-65065151D01*
X155013352Y-65530698D01*
X155395438Y-65786000D01*
X155013352Y-66041302D01*
X154702283Y-66506849D01*
X154593050Y-67056000D01*
X154702283Y-67605151D01*
X155013352Y-68070698D01*
X155395438Y-68326000D01*
X155013352Y-68581302D01*
X154702283Y-69046849D01*
X154593050Y-69596000D01*
X154702283Y-70145151D01*
X155013352Y-70610698D01*
X155159350Y-70708251D01*
X155028683Y-70732838D01*
X154812559Y-70871910D01*
X154667569Y-71084110D01*
X154616560Y-71336000D01*
X154616560Y-72936000D01*
X154660838Y-73171317D01*
X154799910Y-73387441D01*
X155012110Y-73532431D01*
X155264000Y-73583440D01*
X157664000Y-73583440D01*
X157899317Y-73539162D01*
X158115441Y-73400090D01*
X158260431Y-73187890D01*
X158311440Y-72936000D01*
X158311440Y-71336000D01*
X158267162Y-71100683D01*
X158128090Y-70884559D01*
X157915890Y-70739569D01*
X157766926Y-70709403D01*
X157914648Y-70610698D01*
X158225717Y-70145151D01*
X158334950Y-69596000D01*
X158225717Y-69046849D01*
X157914648Y-68581302D01*
X157532562Y-68326000D01*
X157914648Y-68070698D01*
X158225717Y-67605151D01*
X158281573Y-67324344D01*
X161712765Y-67324344D01*
X161918617Y-67822543D01*
X162299452Y-68204043D01*
X162593264Y-68326045D01*
X162301457Y-68446617D01*
X161919957Y-68827452D01*
X161713236Y-69325291D01*
X161712765Y-69864344D01*
X161918617Y-70362543D01*
X162299452Y-70744043D01*
X162593264Y-70866045D01*
X162301457Y-70986617D01*
X161919957Y-71367452D01*
X161713236Y-71865291D01*
X161712765Y-72404344D01*
X161918617Y-72902543D01*
X162299452Y-73284043D01*
X162797291Y-73490764D01*
X163336344Y-73491235D01*
X163834543Y-73285383D01*
X164216043Y-72904548D01*
X164422764Y-72406709D01*
X164423235Y-71867656D01*
X164217383Y-71369457D01*
X164040286Y-71192050D01*
X168872000Y-71192050D01*
X168872000Y-72063950D01*
X168981233Y-72613101D01*
X169292302Y-73078648D01*
X169757849Y-73389717D01*
X170199222Y-73477512D01*
X171169855Y-74448145D01*
X171473191Y-74650827D01*
X171831000Y-74722000D01*
X175253710Y-74722000D01*
X175849000Y-75317290D01*
X175849000Y-76119936D01*
X175769302Y-76173189D01*
X175514000Y-76555275D01*
X175258698Y-76173189D01*
X174793151Y-75862120D01*
X174244000Y-75752887D01*
X173694849Y-75862120D01*
X173229302Y-76173189D01*
X172959014Y-76577703D01*
X172856389Y-76360866D01*
X172441423Y-75984959D01*
X172053039Y-75824096D01*
X171831000Y-75946085D01*
X171831000Y-77089000D01*
X171851000Y-77089000D01*
X171851000Y-77343000D01*
X171831000Y-77343000D01*
X171831000Y-78485915D01*
X172053039Y-78607904D01*
X172441423Y-78447041D01*
X172856389Y-78071134D01*
X172959014Y-77854297D01*
X173229302Y-78258811D01*
X173694849Y-78569880D01*
X174244000Y-78679113D01*
X174793151Y-78569880D01*
X175258698Y-78258811D01*
X175514000Y-77876725D01*
X175769302Y-78258811D01*
X176234849Y-78569880D01*
X176784000Y-78679113D01*
X177333151Y-78569880D01*
X177798698Y-78258811D01*
X178054000Y-77876725D01*
X178309302Y-78258811D01*
X178774849Y-78569880D01*
X179324000Y-78679113D01*
X179873151Y-78569880D01*
X180338698Y-78258811D01*
X180435101Y-78114535D01*
X180460838Y-78251317D01*
X180599910Y-78467441D01*
X180812110Y-78612431D01*
X181064000Y-78663440D01*
X182664000Y-78663440D01*
X182899317Y-78619162D01*
X183115441Y-78480090D01*
X183260431Y-78267890D01*
X183311440Y-78016000D01*
X183311440Y-76416000D01*
X183267162Y-76180683D01*
X183128090Y-75964559D01*
X182915890Y-75819569D01*
X182664000Y-75768560D01*
X181064000Y-75768560D01*
X180828683Y-75812838D01*
X180612559Y-75951910D01*
X180467569Y-76164110D01*
X180436185Y-76319089D01*
X180338698Y-76173189D01*
X180259000Y-76119936D01*
X180259000Y-75444290D01*
X180981290Y-74722000D01*
X187071000Y-74722000D01*
X187428809Y-74650827D01*
X187732145Y-74448145D01*
X188748145Y-73432145D01*
X188950827Y-73128809D01*
X189022000Y-72771000D01*
X189022000Y-70739000D01*
X188950827Y-70381191D01*
X188748145Y-70077855D01*
X187224145Y-68553855D01*
X186920809Y-68351173D01*
X186743833Y-68315970D01*
X195515635Y-68315970D01*
X195675418Y-68634739D01*
X196466187Y-68944723D01*
X197315387Y-68928497D01*
X198024582Y-68634739D01*
X198184365Y-68315970D01*
X196850000Y-66981605D01*
X195515635Y-68315970D01*
X186743833Y-68315970D01*
X186563000Y-68280000D01*
X175901290Y-68280000D01*
X173782000Y-66160710D01*
X173782000Y-65511901D01*
X173861698Y-65458648D01*
X174117000Y-65076562D01*
X174372302Y-65458648D01*
X174755208Y-65714498D01*
X175995855Y-66955145D01*
X176299191Y-67157827D01*
X176657000Y-67229000D01*
X180721000Y-67229000D01*
X181078809Y-67157827D01*
X181382145Y-66955145D01*
X181919103Y-66418187D01*
X194707277Y-66418187D01*
X194723503Y-67267387D01*
X195017261Y-67976582D01*
X195336030Y-68136365D01*
X196670395Y-66802000D01*
X197029605Y-66802000D01*
X198363970Y-68136365D01*
X198682739Y-67976582D01*
X198992723Y-67185813D01*
X198976497Y-66336613D01*
X198682739Y-65627418D01*
X198363970Y-65467635D01*
X197029605Y-66802000D01*
X196670395Y-66802000D01*
X195336030Y-65467635D01*
X195017261Y-65627418D01*
X194707277Y-66418187D01*
X181919103Y-66418187D01*
X182549369Y-65787921D01*
X183007000Y-65878950D01*
X183556151Y-65769717D01*
X184021698Y-65458648D01*
X184119251Y-65312650D01*
X184143838Y-65443317D01*
X184282910Y-65659441D01*
X184495110Y-65804431D01*
X184747000Y-65855440D01*
X186347000Y-65855440D01*
X186582317Y-65811162D01*
X186798441Y-65672090D01*
X186943431Y-65459890D01*
X186978233Y-65288030D01*
X195515635Y-65288030D01*
X196850000Y-66622395D01*
X198184365Y-65288030D01*
X198024582Y-64969261D01*
X197233813Y-64659277D01*
X196384613Y-64675503D01*
X195675418Y-64969261D01*
X195515635Y-65288030D01*
X186978233Y-65288030D01*
X186994440Y-65208000D01*
X186994440Y-62808000D01*
X186984844Y-62757000D01*
X188391164Y-62757000D01*
X188402515Y-62768371D01*
X188856266Y-62956785D01*
X189347579Y-62957214D01*
X189801657Y-62769592D01*
X190149371Y-62422485D01*
X190337785Y-61968734D01*
X190338214Y-61477421D01*
X190150592Y-61023343D01*
X189803485Y-60675629D01*
X189349734Y-60487215D01*
X188858421Y-60486786D01*
X188404343Y-60674408D01*
X188391729Y-60687000D01*
X183845836Y-60687000D01*
X183834485Y-60675629D01*
X183380734Y-60487215D01*
X182889421Y-60486786D01*
X182435343Y-60674408D01*
X182422729Y-60687000D01*
X175082836Y-60687000D01*
X175071485Y-60675629D01*
X174617734Y-60487215D01*
X174126421Y-60486786D01*
X173672343Y-60674408D01*
X173324629Y-61021515D01*
X173136215Y-61475266D01*
X173135786Y-61966579D01*
X173238392Y-62214903D01*
X172847000Y-62137050D01*
X172297849Y-62246283D01*
X171832302Y-62557352D01*
X171579493Y-62935707D01*
X171231896Y-62503500D01*
X170738819Y-62233633D01*
X170656039Y-62216096D01*
X170434000Y-62338085D01*
X170434000Y-63881000D01*
X170454000Y-63881000D01*
X170454000Y-64135000D01*
X170434000Y-64135000D01*
X170434000Y-65677915D01*
X170656039Y-65799904D01*
X170738819Y-65782367D01*
X171231896Y-65512500D01*
X171579493Y-65080293D01*
X171832302Y-65458648D01*
X171912000Y-65511901D01*
X171912000Y-66548000D01*
X171983173Y-66905809D01*
X172185855Y-67209145D01*
X174842140Y-69865430D01*
X174837849Y-69866283D01*
X174372302Y-70177352D01*
X174117000Y-70559438D01*
X173861698Y-70177352D01*
X173396151Y-69866283D01*
X172847000Y-69757050D01*
X172297849Y-69866283D01*
X171832302Y-70177352D01*
X171577000Y-70559438D01*
X171321698Y-70177352D01*
X170856151Y-69866283D01*
X170307000Y-69757050D01*
X169757849Y-69866283D01*
X169292302Y-70177352D01*
X168981233Y-70642899D01*
X168872000Y-71192050D01*
X164040286Y-71192050D01*
X163836548Y-70987957D01*
X163542736Y-70865955D01*
X163834543Y-70745383D01*
X164216043Y-70364548D01*
X164422764Y-69866709D01*
X164423235Y-69327656D01*
X164217383Y-68829457D01*
X163836548Y-68447957D01*
X163542736Y-68325955D01*
X163834543Y-68205383D01*
X164216043Y-67824548D01*
X164422764Y-67326709D01*
X164423235Y-66787656D01*
X164217383Y-66289457D01*
X163836548Y-65907957D01*
X163338709Y-65701236D01*
X162799656Y-65700765D01*
X162301457Y-65906617D01*
X161919957Y-66287452D01*
X161713236Y-66785291D01*
X161712765Y-67324344D01*
X158281573Y-67324344D01*
X158334950Y-67056000D01*
X158225717Y-66506849D01*
X157914648Y-66041302D01*
X157532562Y-65786000D01*
X157914648Y-65530698D01*
X158225717Y-65065151D01*
X158334950Y-64516000D01*
X158259165Y-64135000D01*
X168872000Y-64135000D01*
X168872000Y-64535000D01*
X169029834Y-65074483D01*
X169382104Y-65512500D01*
X169875181Y-65782367D01*
X169957961Y-65799904D01*
X170180000Y-65677915D01*
X170180000Y-64135000D01*
X168872000Y-64135000D01*
X158259165Y-64135000D01*
X158225717Y-63966849D01*
X157914648Y-63501302D01*
X157884264Y-63481000D01*
X168872000Y-63481000D01*
X168872000Y-63881000D01*
X170180000Y-63881000D01*
X170180000Y-62338085D01*
X169957961Y-62216096D01*
X169875181Y-62233633D01*
X169382104Y-62503500D01*
X169029834Y-62941517D01*
X168872000Y-63481000D01*
X157884264Y-63481000D01*
X157449101Y-63190233D01*
X156899950Y-63081000D01*
X156028050Y-63081000D01*
X155478899Y-63190233D01*
X155013352Y-63501302D01*
X154702283Y-63966849D01*
X154593050Y-64516000D01*
X150714950Y-64516000D01*
X150605717Y-63966849D01*
X150294648Y-63501302D01*
X149829101Y-63190233D01*
X149279950Y-63081000D01*
X148408050Y-63081000D01*
X147858899Y-63190233D01*
X147393352Y-63501302D01*
X147082283Y-63966849D01*
X146973050Y-64516000D01*
X137127000Y-64516000D01*
X137127000Y-63489970D01*
X140651635Y-63489970D01*
X140811418Y-63808739D01*
X141602187Y-64118723D01*
X142451387Y-64102497D01*
X143160582Y-63808739D01*
X143320365Y-63489970D01*
X141986000Y-62155605D01*
X140651635Y-63489970D01*
X137127000Y-63489970D01*
X137127000Y-61592187D01*
X139843277Y-61592187D01*
X139859503Y-62441387D01*
X140153261Y-63150582D01*
X140472030Y-63310365D01*
X141806395Y-61976000D01*
X142165605Y-61976000D01*
X143499970Y-63310365D01*
X143818739Y-63150582D01*
X144128723Y-62359813D01*
X144112497Y-61510613D01*
X143818739Y-60801418D01*
X143499970Y-60641635D01*
X142165605Y-61976000D01*
X141806395Y-61976000D01*
X140472030Y-60641635D01*
X140153261Y-60801418D01*
X139843277Y-61592187D01*
X137127000Y-61592187D01*
X137127000Y-60462030D01*
X140651635Y-60462030D01*
X141986000Y-61796395D01*
X143320365Y-60462030D01*
X143200050Y-60222000D01*
X194702560Y-60222000D01*
X194702560Y-63222000D01*
X194746838Y-63457317D01*
X194885910Y-63673441D01*
X195098110Y-63818431D01*
X195350000Y-63869440D01*
X198350000Y-63869440D01*
X198585317Y-63825162D01*
X198801441Y-63686090D01*
X198946431Y-63473890D01*
X198997440Y-63222000D01*
X198997440Y-60222000D01*
X198953162Y-59986683D01*
X198814090Y-59770559D01*
X198601890Y-59625569D01*
X198350000Y-59574560D01*
X195350000Y-59574560D01*
X195114683Y-59618838D01*
X194898559Y-59757910D01*
X194753569Y-59970110D01*
X194702560Y-60222000D01*
X143200050Y-60222000D01*
X143160582Y-60143261D01*
X142369813Y-59833277D01*
X141520613Y-59849503D01*
X140811418Y-60143261D01*
X140651635Y-60462030D01*
X137127000Y-60462030D01*
X137127000Y-58873554D01*
X137299515Y-59046371D01*
X137753266Y-59234785D01*
X138244579Y-59235214D01*
X138698657Y-59047592D01*
X139046371Y-58700485D01*
X139234785Y-58246734D01*
X139235214Y-57755421D01*
X139047592Y-57301343D01*
X138700485Y-56953629D01*
X138246734Y-56765215D01*
X137755421Y-56764786D01*
X137301343Y-56952408D01*
X137127000Y-57126447D01*
X137127000Y-56120159D01*
X155559446Y-56120159D01*
X155645852Y-56376643D01*
X156219336Y-56586458D01*
X156829460Y-56560839D01*
X157274148Y-56376643D01*
X157360554Y-56120159D01*
X160639446Y-56120159D01*
X160725852Y-56376643D01*
X161299336Y-56586458D01*
X161909460Y-56560839D01*
X162354148Y-56376643D01*
X162440554Y-56120159D01*
X161540000Y-55219605D01*
X160639446Y-56120159D01*
X157360554Y-56120159D01*
X156460000Y-55219605D01*
X155559446Y-56120159D01*
X137127000Y-56120159D01*
X137127000Y-53373554D01*
X137299515Y-53546371D01*
X137753266Y-53734785D01*
X138244579Y-53735214D01*
X138698657Y-53547592D01*
X139046371Y-53200485D01*
X139112330Y-53041638D01*
X139764526Y-53041638D01*
X140180028Y-54047229D01*
X140948724Y-54817268D01*
X141953588Y-55234524D01*
X143041638Y-55235474D01*
X144047229Y-54819972D01*
X144067901Y-54799336D01*
X154913542Y-54799336D01*
X154939161Y-55409460D01*
X155123357Y-55854148D01*
X155379841Y-55940554D01*
X156280395Y-55040000D01*
X156639605Y-55040000D01*
X157540159Y-55940554D01*
X157796643Y-55854148D01*
X158006458Y-55280664D01*
X157986248Y-54799336D01*
X159993542Y-54799336D01*
X160019161Y-55409460D01*
X160203357Y-55854148D01*
X160459841Y-55940554D01*
X161360395Y-55040000D01*
X161719605Y-55040000D01*
X162620159Y-55940554D01*
X162876643Y-55854148D01*
X163086458Y-55280664D01*
X163060839Y-54670540D01*
X162876643Y-54225852D01*
X162620159Y-54139446D01*
X161719605Y-55040000D01*
X161360395Y-55040000D01*
X160459841Y-54139446D01*
X160203357Y-54225852D01*
X159993542Y-54799336D01*
X157986248Y-54799336D01*
X157980839Y-54670540D01*
X157796643Y-54225852D01*
X157540159Y-54139446D01*
X156639605Y-55040000D01*
X156280395Y-55040000D01*
X155379841Y-54139446D01*
X155123357Y-54225852D01*
X154913542Y-54799336D01*
X144067901Y-54799336D01*
X144817268Y-54051276D01*
X144855235Y-53959841D01*
X155559446Y-53959841D01*
X156460000Y-54860395D01*
X157360554Y-53959841D01*
X157274148Y-53703357D01*
X156700664Y-53493542D01*
X156090540Y-53519161D01*
X155645852Y-53703357D01*
X155559446Y-53959841D01*
X144855235Y-53959841D01*
X145234524Y-53046412D01*
X145234735Y-52803991D01*
X157464735Y-52803991D01*
X157697932Y-53368371D01*
X158129357Y-53800551D01*
X158693330Y-54034733D01*
X159303991Y-54035265D01*
X159486531Y-53959841D01*
X160639446Y-53959841D01*
X161540000Y-54860395D01*
X162440554Y-53959841D01*
X162354148Y-53703357D01*
X161798316Y-53500000D01*
X174445907Y-53500000D01*
X174558946Y-54068285D01*
X174880853Y-54550054D01*
X175362622Y-54871961D01*
X175930907Y-54985000D01*
X175989093Y-54985000D01*
X176557378Y-54871961D01*
X177039147Y-54550054D01*
X177039971Y-54548821D01*
X177046838Y-54585317D01*
X177185910Y-54801441D01*
X177398110Y-54946431D01*
X177650000Y-54997440D01*
X179350000Y-54997440D01*
X179585317Y-54953162D01*
X179801441Y-54814090D01*
X179946431Y-54601890D01*
X179997440Y-54350000D01*
X179997440Y-53500000D01*
X181445907Y-53500000D01*
X181558946Y-54068285D01*
X181880853Y-54550054D01*
X182362622Y-54871961D01*
X182930907Y-54985000D01*
X182989093Y-54985000D01*
X183557378Y-54871961D01*
X184039147Y-54550054D01*
X184039971Y-54548821D01*
X184046838Y-54585317D01*
X184185910Y-54801441D01*
X184398110Y-54946431D01*
X184650000Y-54997440D01*
X186350000Y-54997440D01*
X186585317Y-54953162D01*
X186801441Y-54814090D01*
X186946431Y-54601890D01*
X186997440Y-54350000D01*
X186997440Y-53041638D01*
X193764526Y-53041638D01*
X194180028Y-54047229D01*
X194948724Y-54817268D01*
X195953588Y-55234524D01*
X197041638Y-55235474D01*
X198047229Y-54819972D01*
X198817268Y-54051276D01*
X199234524Y-53046412D01*
X199235474Y-51958362D01*
X198819972Y-50952771D01*
X198051276Y-50182732D01*
X197046412Y-49765476D01*
X195958362Y-49764526D01*
X194952771Y-50180028D01*
X194182732Y-50948724D01*
X193765476Y-51953588D01*
X193764526Y-53041638D01*
X186997440Y-53041638D01*
X186997440Y-52650000D01*
X186953162Y-52414683D01*
X186814090Y-52198559D01*
X186601890Y-52053569D01*
X186493893Y-52031699D01*
X186771645Y-51726924D01*
X186941476Y-51316890D01*
X186820155Y-51087000D01*
X185627000Y-51087000D01*
X185627000Y-51107000D01*
X185373000Y-51107000D01*
X185373000Y-51087000D01*
X183087000Y-51087000D01*
X183087000Y-51107000D01*
X182833000Y-51107000D01*
X182833000Y-51087000D01*
X181639845Y-51087000D01*
X181518524Y-51316890D01*
X181688355Y-51726924D01*
X182078642Y-52155183D01*
X182221553Y-52222298D01*
X181880853Y-52449946D01*
X181558946Y-52931715D01*
X181445907Y-53500000D01*
X179997440Y-53500000D01*
X179997440Y-52650000D01*
X179953162Y-52414683D01*
X179814090Y-52198559D01*
X179601890Y-52053569D01*
X179493893Y-52031699D01*
X179771645Y-51726924D01*
X179941476Y-51316890D01*
X179820155Y-51087000D01*
X178627000Y-51087000D01*
X178627000Y-51107000D01*
X178373000Y-51107000D01*
X178373000Y-51087000D01*
X176087000Y-51087000D01*
X176087000Y-51107000D01*
X175833000Y-51107000D01*
X175833000Y-51087000D01*
X174639845Y-51087000D01*
X174518524Y-51316890D01*
X174688355Y-51726924D01*
X175078642Y-52155183D01*
X175221553Y-52222298D01*
X174880853Y-52449946D01*
X174558946Y-52931715D01*
X174445907Y-53500000D01*
X161798316Y-53500000D01*
X161780664Y-53493542D01*
X161170540Y-53519161D01*
X160725852Y-53703357D01*
X160639446Y-53959841D01*
X159486531Y-53959841D01*
X159868371Y-53802068D01*
X160300551Y-53370643D01*
X160534733Y-52806670D01*
X160535265Y-52196009D01*
X160302068Y-51631629D01*
X159870643Y-51199449D01*
X159487031Y-51040159D01*
X160639446Y-51040159D01*
X160725852Y-51296643D01*
X161299336Y-51506458D01*
X161909460Y-51480839D01*
X162354148Y-51296643D01*
X162357817Y-51285750D01*
X166515000Y-51285750D01*
X166515000Y-51976309D01*
X166611673Y-52209698D01*
X166790301Y-52388327D01*
X167023690Y-52485000D01*
X167714250Y-52485000D01*
X167873000Y-52326250D01*
X167873000Y-51127000D01*
X166673750Y-51127000D01*
X166515000Y-51285750D01*
X162357817Y-51285750D01*
X162440554Y-51040159D01*
X161540000Y-50139605D01*
X160639446Y-51040159D01*
X159487031Y-51040159D01*
X159306670Y-50965267D01*
X158696009Y-50964735D01*
X158131629Y-51197932D01*
X157699449Y-51629357D01*
X157465267Y-52193330D01*
X157464735Y-52803991D01*
X145234735Y-52803991D01*
X145235474Y-51958362D01*
X144856081Y-51040159D01*
X155559446Y-51040159D01*
X155645852Y-51296643D01*
X156219336Y-51506458D01*
X156829460Y-51480839D01*
X157274148Y-51296643D01*
X157360554Y-51040159D01*
X156460000Y-50139605D01*
X155559446Y-51040159D01*
X144856081Y-51040159D01*
X144819972Y-50952771D01*
X144051276Y-50182732D01*
X143046412Y-49765476D01*
X141958362Y-49764526D01*
X140952771Y-50180028D01*
X140182732Y-50948724D01*
X139765476Y-51953588D01*
X139764526Y-53041638D01*
X139112330Y-53041638D01*
X139234785Y-52746734D01*
X139235214Y-52255421D01*
X139047592Y-51801343D01*
X138700485Y-51453629D01*
X138246734Y-51265215D01*
X137755421Y-51264786D01*
X137301343Y-51452408D01*
X137127000Y-51626447D01*
X137127000Y-47127000D01*
X140126446Y-47127000D01*
X139953629Y-47299515D01*
M02*
