<?xml version="1.0" standalone="no"?>
 <!DOCTYPE svg PUBLIC "-//W3C//DTD SVG 1.1//EN" 
 "http://www.w3.org/Graphics/SVG/1.1/DTD/svg11.dtd"> 
<svg xmlns="http://www.w3.org/2000/svg" version="1.1" 
    width="5.6007cm" height="4.5339cm" viewBox="0 0 22050 17850 ">
<title>SVG Picture created as ADXL355.svg date 2018/03/05 17:36:07 </title>
  <desc>Picture generated by Eeschema-SVG </desc>
<g style="fill:#000000; fill-opacity:1;stroke:#000000; stroke-opacity:1;
stroke-linecap:round; stroke-linejoin:round; "
 transform="translate(0 0) scale(1 1)">
</g>
<g style="fill:#000000; fill-opacity:0.0; 
stroke:#000000; stroke-width:-10; stroke-opacity:1; 
stroke-linecap:round; stroke-linejoin:round;">
</g>
<g style="fill:#000000; fill-opacity:0.0; 
stroke:#000000; stroke-width:60; stroke-opacity:1; 
stroke-linecap:round; stroke-linejoin:round;">
<rect x="9020" y="7420" width="5000" height="4000" rx="0" />
<path d="M7020 7920
L9020 7920
" />
<path d="M4140 8100
L4120 8120
L4050 8150
L4000 8150
L3930 8120
L3880 8070
L3860 8030
L3840 7930
L3840 7860
L3860 7770
L3880 7720
L3930 7670
L4000 7650
L4050 7650
L4120 7670
L4140 7690
" />
<path d="M4340 8120
L4410 8150
L4530 8150
L4570 8120
L4600 8100
L4620 8050
L4620 8000
L4600 7960
L4570 7930
L4530 7910
L4430 7880
L4380 7860
L4360 7840
L4340 7790
L4340 7740
L4360 7690
L4380 7670
L4430 7650
L4550 7650
L4620 7670
" />
<path d="M5200 7620
L4770 8270
" />
<path d="M5340 8120
L5410 8150
L5530 8150
L5570 8120
L5600 8100
L5620 8050
L5620 8000
L5600 7960
L5570 7930
L5530 7910
L5430 7880
L5380 7860
L5360 7840
L5340 7790
L5340 7740
L5360 7690
L5380 7670
L5430 7650
L5550 7650
L5620 7670
" />
<path d="M6120 8100
L6100 8120
L6030 8150
L5980 8150
L5910 8120
L5860 8070
L5840 8030
L5820 7930
L5820 7860
L5840 7770
L5860 7720
L5910 7670
L5980 7650
L6030 7650
L6100 7670
L6120 7690
" />
<path d="M6580 8150
L6340 8150
L6340 7650
" />
<path d="M8160 7800
L7880 7800
" />
<path d="M8020 7800
L8020 7300
L7970 7370
L7920 7420
L7880 7440
" />
<path d="M7020 8920
L9020 8920
" />
<path d="M2400 9120
L2470 9150
L2590 9150
L2630 9120
L2660 9100
L2680 9050
L2680 9000
L2660 8960
L2630 8930
L2590 8910
L2490 8880
L2440 8860
L2420 8840
L2400 8790
L2400 8740
L2420 8690
L2440 8670
L2490 8650
L2610 8650
L2680 8670
" />
<path d="M3180 9100
L3160 9120
L3090 9150
L3040 9150
L2970 9120
L2920 9070
L2900 9030
L2880 8930
L2880 8860
L2900 8770
L2920 8720
L2970 8670
L3040 8650
L3090 8650
L3160 8670
L3180 8690
" />
<path d="M3640 9150
L3400 9150
L3400 8650
" />
<path d="M3800 9150
L3800 8650
" />
<path d="M4080 9150
L3870 8860
" />
<path d="M4080 8650
L3800 8930
" />
<path d="M4660 8620
L4230 9270
" />
<path d="M4750 8650
L4910 9150
L5080 8650
" />
<path d="M5230 9120
L5270 9150
L5370 9150
L5420 9120
L5440 9070
L5440 9050
L5420 9000
L5370 8980
L5300 8980
L5250 8960
L5230 8910
L5230 8880
L5250 8840
L5300 8810
L5370 8810
L5420 8840
" />
<path d="M5630 9120
L5670 9150
L5770 9150
L5820 9120
L5840 9070
L5840 9050
L5820 9000
L5770 8980
L5700 8980
L5650 8960
L5630 8910
L5630 8880
L5650 8840
L5700 8810
L5770 8810
L5820 8840
" />
<path d="M6050 9150
L6050 8810
" />
<path d="M6050 8650
L6030 8670
L6050 8690
L6070 8670
L6050 8650
L6050 8690
" />
<path d="M6360 9150
L6310 9120
L6290 9100
L6270 9050
L6270 8910
L6290 8860
L6310 8840
L6360 8810
L6430 8810
L6480 8840
L6500 8860
L6530 8910
L6530 9050
L6500 9100
L6480 9120
L6430 9150
L6360 9150
" />
<path d="M7880 8340
L7900 8320
L7950 8300
L8070 8300
L8110 8320
L8140 8340
L8160 8390
L8160 8440
L8140 8510
L7850 8800
L8160 8800
" />
<path d="M7020 9920
L9020 9920
" />
<path d="M3000 10150
L3000 9650
L3170 10000
L3330 9650
L3330 10150
" />
<path d="M3660 9650
L3760 9650
L3810 9670
L3850 9720
L3880 9810
L3880 9980
L3850 10070
L3810 10120
L3760 10150
L3660 10150
L3620 10120
L3570 10070
L3550 9980
L3550 9810
L3570 9720
L3620 9670
L3660 9650
" />
<path d="M4070 10120
L4140 10150
L4260 10150
L4300 10120
L4330 10100
L4350 10050
L4350 10000
L4330 9960
L4300 9930
L4260 9910
L4160 9880
L4110 9860
L4090 9840
L4070 9790
L4070 9740
L4090 9690
L4110 9670
L4160 9650
L4280 9650
L4350 9670
" />
<path d="M4570 10150
L4570 9650
" />
<path d="M5170 9620
L4740 10270
" />
<path d="M5310 10120
L5380 10150
L5500 10150
L5540 10120
L5570 10100
L5590 10050
L5590 10000
L5570 9960
L5540 9930
L5500 9910
L5400 9880
L5350 9860
L5330 9840
L5310 9790
L5310 9740
L5330 9690
L5350 9670
L5400 9650
L5520 9650
L5590 9670
" />
<path d="M5810 10150
L5810 9650
L5930 9650
L6000 9670
L6050 9720
L6070 9770
L6090 9860
L6090 9930
L6070 10030
L6050 10070
L6000 10120
L5930 10150
L5810 10150
" />
<path d="M6290 10000
L6520 10000
" />
<path d="M6240 10150
L6400 9650
L6570 10150
" />
<path d="M7850 9300
L8160 9300
L7990 9490
L8070 9490
L8110 9510
L8140 9530
L8160 9580
L8160 9700
L8140 9750
L8110 9770
L8070 9800
L7920 9800
L7880 9770
L7850 9750
" />
<path d="M7020 10920
L9020 10920
" />
<path d="M2650 11150
L2650 10650
L2820 11000
L2980 10650
L2980 11150
" />
<path d="M3220 11150
L3220 10650
" />
<path d="M3440 11120
L3510 11150
L3630 11150
L3670 11120
L3700 11100
L3720 11050
L3720 11000
L3700 10960
L3670 10930
L3630 10910
L3530 10880
L3480 10860
L3460 10840
L3440 10790
L3440 10740
L3460 10690
L3480 10670
L3530 10650
L3650 10650
L3720 10670
" />
<path d="M4030 10650
L4130 10650
L4180 10670
L4220 10720
L4250 10810
L4250 10980
L4220 11070
L4180 11120
L4130 11150
L4030 11150
L3990 11120
L3940 11070
L3920 10980
L3920 10810
L3940 10720
L3990 10670
L4030 10650
" />
<path d="M4820 10620
L4390 11270
" />
<path d="M4960 11000
L5190 11000
" />
<path d="M4910 11150
L5070 10650
L5240 11150
" />
<path d="M5390 11120
L5460 11150
L5580 11150
L5620 11120
L5650 11100
L5670 11050
L5670 11000
L5650 10960
L5620 10930
L5580 10910
L5480 10880
L5430 10860
L5410 10840
L5390 10790
L5390 10740
L5410 10690
L5430 10670
L5480 10650
L5600 10650
L5670 10670
" />
<path d="M5890 10880
L6060 10880
" />
<path d="M6130 11150
L5890 11150
L5890 10650
L6130 10650
" />
<path d="M6580 11150
L6340 11150
L6340 10650
" />
<path d="M8110 10460
L8110 10800
" />
<path d="M7990 10270
L7880 10630
L8180 10630
" />
<path d="M10520 13420
L10520 11420
" />
<path d="M10250 15790
L10750 15630
L10250 15460
" />
<path d="M10750 15080
L10250 15080
" />
<path d="M10720 15080
L10750 15120
L10750 15220
L10720 15270
L10700 15290
L10650 15310
L10510 15310
L10460 15290
L10440 15270
L10410 15220
L10410 15120
L10440 15080
" />
<path d="M10750 14630
L10250 14630
" />
<path d="M10720 14630
L10750 14670
L10750 14770
L10720 14820
L10700 14840
L10650 14860
L10510 14860
L10460 14840
L10440 14820
L10410 14770
L10410 14670
L10440 14630
" />
<path d="M10750 14390
L10410 14390
" />
<path d="M10250 14390
L10270 14410
L10290 14390
L10270 14370
L10250 14390
L10290 14390
" />
<path d="M10750 14080
L10720 14130
L10700 14150
L10650 14170
L10510 14170
L10460 14150
L10440 14130
L10410 14080
L10410 14010
L10440 13960
L10460 13940
L10510 13910
L10650 13910
L10700 13940
L10720 13960
L10750 14010
L10750 14080
" />
<path d="M9900 12300
L9900 12540
L10130 12560
L10110 12540
L10090 12490
L10090 12370
L10110 12330
L10130 12300
L10180 12280
L10300 12280
L10350 12300
L10370 12330
L10400 12370
L10400 12490
L10370 12540
L10350 12560
" />
<path d="M11520 13420
L11520 11420
" />
<path d="M11250 15690
L11750 15530
L11250 15360
" />
<path d="M11720 15210
L11750 15170
L11750 15070
L11720 15020
L11670 15000
L11650 15000
L11600 15020
L11580 15070
L11580 15140
L11560 15190
L11510 15210
L11480 15210
L11440 15190
L11410 15140
L11410 15070
L11440 15020
" />
<path d="M11720 14810
L11750 14770
L11750 14670
L11720 14620
L11670 14600
L11650 14600
L11600 14620
L11580 14670
L11580 14740
L11560 14790
L11510 14810
L11480 14810
L11440 14790
L11410 14740
L11410 14670
L11440 14620
" />
<path d="M11750 14390
L11410 14390
" />
<path d="M11250 14390
L11270 14410
L11290 14390
L11270 14370
L11250 14390
L11290 14390
" />
<path d="M11750 14080
L11720 14130
L11700 14150
L11650 14170
L11510 14170
L11460 14150
L11440 14130
L11410 14080
L11410 14010
L11440 13960
L11460 13940
L11510 13910
L11650 13910
L11700 13940
L11720 13960
L11750 14010
L11750 14080
" />
<path d="M10900 12330
L10900 12420
L10920 12470
L10940 12490
L11020 12540
L11110 12560
L11300 12560
L11350 12540
L11370 12520
L11400 12470
L11400 12370
L11370 12330
L11350 12300
L11300 12280
L11180 12280
L11130 12300
L11110 12330
L11090 12370
L11090 12470
L11110 12520
L11130 12540
L11180 12560
" />
<path d="M12520 13420
L12520 11420
" />
<path d="M12750 17180
L12510 17340
" />
<path d="M12750 17460
L12250 17460
L12250 17270
L12270 17220
L12290 17200
L12340 17180
L12410 17180
L12460 17200
L12480 17220
L12510 17270
L12510 17460
" />
<path d="M12480 16960
L12480 16790
" />
<path d="M12750 16720
L12750 16960
L12250 16960
L12250 16720
" />
<path d="M12720 16530
L12750 16460
L12750 16340
L12720 16300
L12700 16270
L12650 16250
L12600 16250
L12560 16270
L12530 16300
L12510 16340
L12480 16440
L12460 16490
L12440 16510
L12390 16530
L12340 16530
L12290 16510
L12270 16490
L12250 16440
L12250 16320
L12270 16250
" />
<path d="M12480 16030
L12480 15860
" />
<path d="M12750 15790
L12750 16030
L12250 16030
L12250 15790
" />
<path d="M12750 15300
L12510 15460
" />
<path d="M12750 15580
L12250 15580
L12250 15390
L12270 15340
L12290 15320
L12340 15300
L12410 15300
L12460 15320
L12480 15340
L12510 15390
L12510 15580
" />
<path d="M12250 15150
L12750 14990
L12250 14820
" />
<path d="M12480 14650
L12480 14480
" />
<path d="M12750 14410
L12750 14650
L12250 14650
L12250 14410
" />
<path d="M12750 14200
L12250 14200
L12250 14080
L12270 14010
L12320 13960
L12370 13940
L12460 13920
L12530 13920
L12630 13940
L12670 13960
L12720 14010
L12750 14080
L12750 14200
" />
<path d="M11900 12590
L11900 12260
L12400 12470
" />
<path d="M16020 10920
L14020 10920
" />
<path d="M16470 10650
L16630 11150
L16800 10650
" />
<path d="M17230 11150
L16950 11150
" />
<path d="M17090 11150
L17090 10650
L17040 10720
L16990 10770
L16950 10790
" />
<path d="M17450 10810
L17450 11310
" />
<path d="M17450 10840
L17500 10810
L17590 10810
L17640 10840
L17660 10860
L17690 10910
L17690 11050
L17660 11100
L17640 11120
L17590 11150
L17500 11150
L17450 11120
" />
<path d="M17970 10860
L17920 10840
L17900 10810
L17880 10770
L17880 10740
L17900 10690
L17920 10670
L17970 10650
L18070 10650
L18110 10670
L18140 10690
L18160 10740
L18160 10770
L18140 10810
L18110 10840
L18070 10860
L17970 10860
L17920 10880
L17900 10910
L17880 10960
L17880 11050
L17900 11100
L17920 11120
L17970 11150
L18070 11150
L18110 11120
L18140 11100
L18160 11050
L18160 10960
L18140 10910
L18110 10880
L18070 10860
" />
<path d="M18590 11150
L18590 10650
" />
<path d="M18590 11120
L18550 11150
L18450 11150
L18400 11120
L18380 11100
L18360 11050
L18360 10910
L18380 10860
L18400 10840
L18450 10810
L18550 10810
L18590 10840
" />
<path d="M18830 11150
L18830 10810
" />
<path d="M18830 10650
L18810 10670
L18830 10690
L18850 10670
L18830 10650
L18830 10690
" />
<path d="M19280 10810
L19280 11220
L19260 11270
L19240 11290
L19190 11310
L19120 11310
L19070 11290
" />
<path d="M19280 11120
L19240 11150
L19140 11150
L19090 11120
L19070 11100
L19050 11050
L19050 10910
L19070 10860
L19090 10840
L19140 10810
L19240 10810
L19280 10840
" />
<path d="M14970 10510
L14920 10490
L14900 10460
L14880 10420
L14880 10390
L14900 10340
L14920 10320
L14970 10300
L15070 10300
L15110 10320
L15140 10340
L15160 10390
L15160 10420
L15140 10460
L15110 10490
L15070 10510
L14970 10510
L14920 10530
L14900 10560
L14880 10610
L14880 10700
L14900 10750
L14920 10770
L14970 10800
L15070 10800
L15110 10770
L15140 10750
L15160 10700
L15160 10610
L15140 10560
L15110 10530
L15070 10510
" />
<path d="M16020 9920
L14020 9920
" />
<path d="M16470 9650
L16630 10150
L16800 9650
" />
<path d="M16950 10120
L16990 10150
L17090 10150
L17140 10120
L17160 10070
L17160 10050
L17140 10000
L17090 9980
L17020 9980
L16970 9960
L16950 9910
L16950 9880
L16970 9840
L17020 9810
L17090 9810
L17140 9840
" />
<path d="M17350 10120
L17390 10150
L17490 10150
L17540 10120
L17560 10070
L17560 10050
L17540 10000
L17490 9980
L17420 9980
L17370 9960
L17350 9910
L17350 9880
L17370 9840
L17420 9810
L17490 9810
L17540 9840
" />
<path d="M14920 9800
L15020 9800
L15070 9770
L15090 9750
L15140 9680
L15160 9580
L15160 9390
L15140 9340
L15110 9320
L15070 9300
L14970 9300
L14920 9320
L14900 9340
L14880 9390
L14880 9510
L14900 9560
L14920 9580
L14970 9610
L15070 9610
L15110 9580
L15140 9560
L15160 9510
" />
<path d="M16020 8920
L14020 8920
" />
<path d="M16470 8650
L16630 9150
L16800 8650
" />
<path d="M17230 9150
L16950 9150
" />
<path d="M17090 9150
L17090 8650
L17040 8720
L16990 8770
L16950 8790
" />
<path d="M17450 8810
L17450 9310
" />
<path d="M17450 8840
L17500 8810
L17590 8810
L17640 8840
L17660 8860
L17690 8910
L17690 9050
L17660 9100
L17640 9120
L17590 9150
L17500 9150
L17450 9120
" />
<path d="M17970 8860
L17920 8840
L17900 8810
L17880 8770
L17880 8740
L17900 8690
L17920 8670
L17970 8650
L18070 8650
L18110 8670
L18140 8690
L18160 8740
L18160 8770
L18140 8810
L18110 8840
L18070 8860
L17970 8860
L17920 8880
L17900 8910
L17880 8960
L17880 9050
L17900 9100
L17920 9120
L17970 9150
L18070 9150
L18110 9120
L18140 9100
L18160 9050
L18160 8960
L18140 8910
L18110 8880
L18070 8860
" />
<path d="M18590 9150
L18590 8880
L18570 8840
L18520 8810
L18430 8810
L18380 8840
" />
<path d="M18590 9120
L18550 9150
L18430 9150
L18380 9120
L18360 9070
L18360 9030
L18380 8980
L18430 8960
L18550 8960
L18590 8930
" />
<path d="M18830 8810
L18830 9150
" />
<path d="M18830 8860
L18850 8840
L18900 8810
L18970 8810
L19020 8840
L19040 8880
L19040 9150
" />
<path d="M19490 9150
L19490 8880
L19470 8840
L19420 8810
L19330 8810
L19280 8840
" />
<path d="M19490 9120
L19450 9150
L19330 9150
L19280 9120
L19260 9070
L19260 9030
L19280 8980
L19330 8960
L19450 8960
L19490 8930
" />
<path d="M14920 8800
L14640 8800
" />
<path d="M14780 8800
L14780 8300
L14730 8370
L14680 8420
L14640 8440
" />
<path d="M15230 8300
L15280 8300
L15330 8320
L15350 8340
L15380 8390
L15400 8490
L15400 8610
L15380 8700
L15350 8750
L15330 8770
L15280 8800
L15230 8800
L15190 8770
L15160 8750
L15140 8700
L15120 8610
L15120 8490
L15140 8390
L15160 8340
L15190 8320
L15230 8300
" />
<path d="M16020 7920
L14020 7920
" />
<path d="M16470 7650
L16630 8150
L16800 7650
" />
<path d="M16950 8120
L16990 8150
L17090 8150
L17140 8120
L17160 8070
L17160 8050
L17140 8000
L17090 7980
L17020 7980
L16970 7960
L16950 7910
L16950 7880
L16970 7840
L17020 7810
L17090 7810
L17140 7840
" />
<path d="M17580 7810
L17580 8150
" />
<path d="M17370 7810
L17370 8070
L17390 8120
L17440 8150
L17510 8150
L17560 8120
L17580 8100
" />
<path d="M17820 7810
L17820 8310
" />
<path d="M17820 7840
L17870 7810
L17960 7810
L18010 7840
L18030 7860
L18060 7910
L18060 8050
L18030 8100
L18010 8120
L17960 8150
L17870 8150
L17820 8120
" />
<path d="M18270 7810
L18270 8310
" />
<path d="M18270 7840
L18320 7810
L18410 7810
L18460 7840
L18480 7860
L18510 7910
L18510 8050
L18480 8100
L18460 8120
L18410 8150
L18320 8150
L18270 8120
" />
<path d="M18790 8150
L18740 8120
L18720 8070
L18720 7650
" />
<path d="M18930 7810
L19050 8150
" />
<path d="M19170 7810
L19050 8150
L19000 8270
L18980 8290
L18930 8310
" />
<path d="M14920 7800
L14640 7800
" />
<path d="M14780 7800
L14780 7300
L14730 7370
L14680 7420
L14640 7440
" />
<path d="M15400 7800
L15120 7800
" />
<path d="M15260 7800
L15260 7300
L15210 7370
L15160 7420
L15120 7440
" />
<path d="M12520 5420
L12520 7420
" />
<path d="M12750 4900
L12250 4900
" />
<path d="M12750 4660
L12250 4660
L12750 4380
L12250 4380
" />
<path d="M12250 4210
L12250 3930
" />
<path d="M12750 4070
L12250 4070
" />
<path d="M12750 3500
L12750 3780
" />
<path d="M12750 3640
L12250 3640
L12320 3690
L12370 3740
L12390 3780
" />
<path d="M12400 6520
L12400 6800
" />
<path d="M12400 6660
L11900 6660
L11970 6710
L12020 6760
L12040 6800
" />
<path d="M11940 6320
L11920 6300
L11900 6250
L11900 6130
L11920 6090
L11940 6060
L11990 6040
L12040 6040
L12110 6060
L12400 6350
L12400 6040
" />
<path d="M11520 5420
L11520 7420
" />
<path d="M11750 4900
L11250 4900
" />
<path d="M11750 4660
L11250 4660
L11750 4380
L11250 4380
" />
<path d="M11250 4210
L11250 3930
" />
<path d="M11750 4070
L11250 4070
" />
<path d="M11290 3780
L11270 3760
L11250 3710
L11250 3590
L11270 3550
L11290 3520
L11340 3500
L11390 3500
L11460 3520
L11750 3810
L11750 3500
" />
<path d="M11400 6520
L11400 6800
" />
<path d="M11400 6660
L10900 6660
L10970 6710
L11020 6760
L11040 6800
" />
<path d="M10900 6350
L10900 6040
L11090 6210
L11090 6130
L11110 6090
L11130 6060
L11180 6040
L11300 6040
L11350 6060
L11370 6090
L11400 6130
L11400 6280
L11370 6320
L11350 6350
" />
<path d="M10520 5420
L10520 7420
" />
<path d="M10750 4900
L10250 4900
L10250 4780
L10270 4710
L10320 4660
L10370 4640
L10460 4620
L10530 4620
L10630 4640
L10670 4660
L10720 4710
L10750 4780
L10750 4900
" />
<path d="M10750 4120
L10510 4280
" />
<path d="M10750 4400
L10250 4400
L10250 4210
L10270 4160
L10290 4140
L10340 4120
L10410 4120
L10460 4140
L10480 4160
L10510 4210
L10510 4400
" />
<path d="M10750 3900
L10250 3900
L10250 3780
L10270 3710
L10320 3660
L10370 3640
L10460 3620
L10530 3620
L10630 3640
L10670 3660
L10720 3710
L10750 3780
L10750 3900
" />
<path d="M10510 3310
L10750 3310
" />
<path d="M10250 3470
L10510 3310
L10250 3140
" />
<path d="M10400 6520
L10400 6800
" />
<path d="M10400 6660
L9900 6660
L9970 6710
L10020 6760
L10040 6800
" />
<path d="M10060 6090
L10400 6090
" />
<path d="M9870 6210
L10230 6320
L10230 6020
" />
<path d="M12280 9810
L12310 9610
L12290 9570
L12260 9550
L12190 9550
L12140 9570
" />
<path d="M12290 9790
L12240 9810
L12150 9810
L12120 9790
L12100 9760
L12100 9720
L12130 9680
L12170 9660
L12260 9660
L12300 9640
" />
<path d="M12640 9790
L12590 9810
L12520 9810
L12490 9790
L12470 9770
L12450 9740
L12470 9630
L12490 9590
L12510 9570
L12560 9550
L12630 9550
L12660 9570
" />
<path d="M12970 9790
L12920 9810
L12850 9810
L12820 9790
L12800 9770
L12780 9740
L12800 9630
L12820 9590
L12840 9570
L12890 9550
L12960 9550
L12990 9570
" />
<path d="M13280 9790
L13230 9810
L13160 9810
L13130 9790
L13110 9760
L13130 9610
L13150 9570
L13200 9550
L13270 9550
L13300 9570
L13320 9610
L13310 9640
L13120 9680
" />
<path d="M13510 9810
L13480 9790
L13460 9760
L13500 9420
" />
<path d="M13720 9770
L13740 9790
L13710 9810
L13700 9790
L13720 9770
L13710 9810
" />
<path d="M13680 9440
L13720 9420
L13810 9420
L13850 9440
L13860 9480
L13860 9510
L13840 9550
L13810 9570
L13780 9590
L13760 9610
L13730 9640
L13730 9660
" />
<path d="M9690 9050
L9980 9050
" />
<path d="M9640 9220
L9840 8620
L10040 9220
" />
<path d="M10230 9220
L10230 8620
L10380 8620
L10460 8650
L10520 8710
L10550 8760
L10580 8880
L10580 8960
L10550 9080
L10520 9140
L10460 9190
L10380 9220
L10230 9220
" />
<path d="M10780 8620
L11180 9220
" />
<path d="M11180 8620
L10780 9220
" />
<path d="M11690 9220
L11400 9220
L11400 8620
" />
<path d="M11840 8620
L12210 8620
L12010 8850
L12090 8850
L12150 8880
L12180 8910
L12210 8960
L12210 9110
L12180 9160
L12150 9190
L12090 9220
L11920 9220
L11860 9190
L11840 9160
" />
<path d="M12750 8620
L12460 8620
L12430 8910
L12460 8880
L12520 8850
L12660 8850
L12720 8880
L12750 8910
L12780 8960
L12780 9110
L12750 9160
L12720 9190
L12660 9220
L12520 9220
L12460 9190
L12430 9160
" />
<path d="M13320 8620
L13030 8620
L13000 8910
L13030 8880
L13090 8850
L13230 8850
L13290 8880
L13320 8910
L13350 8960
L13350 9110
L13320 9160
L13290 9190
L13230 9220
L13090 9220
L13030 9190
L13000 9160
" />
</g> 
</svg>
