%FSLAX45Y45*%
G04 Gerber Fmt 4.5, Leading zero omitted, Abs format (unit mm)*
G04 Created by KiCad (PCBNEW 4.0.7) date 05/24/18 10:46:34*
%MOMM*%
%LPD*%
G01*
G04 APERTURE LIST*
%ADD10C,0.127000*%
%ADD11C,0.200000*%
%ADD12C,0.300000*%
G04 APERTURE END LIST*
D10*
D11*
X10358760Y-10628000D02*
X10438760Y-10708000D01*
X10438760Y-10628000D02*
X10358760Y-10708000D01*
X11326500Y-9345300D02*
X11406500Y-9425300D01*
X11406500Y-9345300D02*
X11326500Y-9425300D01*
X11377300Y-11618600D02*
X11457300Y-11698600D01*
X11457300Y-11618600D02*
X11377300Y-11698600D01*
X11377300Y-12139300D02*
X11457300Y-12219300D01*
X11457300Y-12139300D02*
X11377300Y-12219300D01*
X11390000Y-13917300D02*
X11470000Y-13997300D01*
X11470000Y-13917300D02*
X11390000Y-13997300D01*
X11555100Y-14577700D02*
X11635100Y-14657700D01*
X11635100Y-14577700D02*
X11555100Y-14657700D01*
X11999600Y-9002400D02*
X12079600Y-9082400D01*
X12079600Y-9002400D02*
X11999600Y-9082400D01*
X12037700Y-11021700D02*
X12117700Y-11101700D01*
X12117700Y-11021700D02*
X12037700Y-11101700D01*
X12418700Y-14577700D02*
X12498700Y-14657700D01*
X12498700Y-14577700D02*
X12418700Y-14657700D01*
X12634600Y-12825100D02*
X12714600Y-12905100D01*
X12714600Y-12825100D02*
X12634600Y-12905100D01*
X13231500Y-9840600D02*
X13311500Y-9920600D01*
X13311500Y-9840600D02*
X13231500Y-9920600D01*
X14145900Y-10805800D02*
X14225900Y-10885800D01*
X14225900Y-10805800D02*
X14145900Y-10885800D01*
X14361800Y-12837800D02*
X14441800Y-12917800D01*
X14441800Y-12837800D02*
X14361800Y-12917800D01*
X14361800Y-13650600D02*
X14441800Y-13730600D01*
X14441800Y-13650600D02*
X14361800Y-13730600D01*
X14361800Y-14247500D02*
X14441800Y-14327500D01*
X14441800Y-14247500D02*
X14361800Y-14327500D01*
X14374500Y-9497700D02*
X14454500Y-9577700D01*
X14454500Y-9497700D02*
X14374500Y-9577700D01*
X14387200Y-10412100D02*
X14467200Y-10492100D01*
X14467200Y-10412100D02*
X14387200Y-10492100D01*
X14844400Y-9561200D02*
X14924400Y-9641200D01*
X14924400Y-9561200D02*
X14844400Y-9641200D01*
X15314300Y-9485000D02*
X15394300Y-9565000D01*
X15394300Y-9485000D02*
X15314300Y-9565000D01*
X15327000Y-11136000D02*
X15407000Y-11216000D01*
X15407000Y-11136000D02*
X15327000Y-11216000D01*
X15466700Y-13409300D02*
X15546700Y-13489300D01*
X15546700Y-13409300D02*
X15466700Y-13489300D01*
X15466700Y-14260200D02*
X15546700Y-14340200D01*
X15546700Y-14260200D02*
X15466700Y-14340200D01*
X15530200Y-11885300D02*
X15610200Y-11965300D01*
X15610200Y-11885300D02*
X15530200Y-11965300D01*
X16012800Y-9307200D02*
X16092800Y-9387200D01*
X16092800Y-9307200D02*
X16012800Y-9387200D01*
X16012800Y-9507200D02*
X16092800Y-9587200D01*
X16092800Y-9507200D02*
X16012800Y-9587200D01*
X16012800Y-9707200D02*
X16092800Y-9787200D01*
X16092800Y-9707200D02*
X16012800Y-9787200D01*
X16012800Y-9907200D02*
X16092800Y-9987200D01*
X16092800Y-9907200D02*
X16012800Y-9987200D01*
X16012800Y-10107200D02*
X16092800Y-10187200D01*
X16092800Y-10107200D02*
X16012800Y-10187200D01*
X16012800Y-10307200D02*
X16092800Y-10387200D01*
X16092800Y-10307200D02*
X16012800Y-10387200D01*
X16012800Y-10507200D02*
X16092800Y-10587200D01*
X16092800Y-10507200D02*
X16012800Y-10587200D01*
X16212800Y-9307200D02*
X16292800Y-9387200D01*
X16292800Y-9307200D02*
X16212800Y-9387200D01*
X16212800Y-9507200D02*
X16292800Y-9587200D01*
X16292800Y-9507200D02*
X16212800Y-9587200D01*
X16212800Y-9707200D02*
X16292800Y-9787200D01*
X16292800Y-9707200D02*
X16212800Y-9787200D01*
X16212800Y-9907200D02*
X16292800Y-9987200D01*
X16292800Y-9907200D02*
X16212800Y-9987200D01*
X16212800Y-10107200D02*
X16292800Y-10187200D01*
X16292800Y-10107200D02*
X16212800Y-10187200D01*
X16212800Y-10307200D02*
X16292800Y-10387200D01*
X16292800Y-10307200D02*
X16212800Y-10387200D01*
X16212800Y-10507200D02*
X16292800Y-10587200D01*
X16292800Y-10507200D02*
X16212800Y-10587200D01*
X16558900Y-10234300D02*
X16638900Y-10314300D01*
X16638900Y-10234300D02*
X16558900Y-10314300D01*
X16609700Y-12558400D02*
X16689700Y-12638400D01*
X16689700Y-12558400D02*
X16609700Y-12638400D01*
X16876400Y-13891900D02*
X16956400Y-13971900D01*
X16956400Y-13891900D02*
X16876400Y-13971900D01*
X17435200Y-9370700D02*
X17515200Y-9450700D01*
X17515200Y-9370700D02*
X17435200Y-9450700D01*
X17638400Y-10869300D02*
X17718400Y-10949300D01*
X17718400Y-10869300D02*
X17638400Y-10949300D01*
X17663800Y-13015600D02*
X17743800Y-13095600D01*
X17743800Y-13015600D02*
X17663800Y-13095600D01*
X17775560Y-14077320D02*
X17855560Y-14157320D01*
X17855560Y-14077320D02*
X17775560Y-14157320D01*
X18248000Y-11999600D02*
X18328000Y-12079600D01*
X18328000Y-11999600D02*
X18248000Y-12079600D01*
X18717900Y-14059540D02*
X18797900Y-14139540D01*
X18797900Y-14059540D02*
X18717900Y-14139540D01*
X19111600Y-12914000D02*
X19191600Y-12994000D01*
X19191600Y-12914000D02*
X19111600Y-12994000D01*
X10768800Y-9385300D02*
G75*
G03X10768800Y-9385300I-50000J0D01*
G01*
X10768800Y-9639300D02*
G75*
G03X10768800Y-9639300I-50000J0D01*
G01*
X10768800Y-9893300D02*
G75*
G03X10768800Y-9893300I-50000J0D01*
G01*
X10768800Y-10147300D02*
G75*
G03X10768800Y-10147300I-50000J0D01*
G01*
X10768800Y-10401300D02*
G75*
G03X10768800Y-10401300I-50000J0D01*
G01*
X10768800Y-10655300D02*
G75*
G03X10768800Y-10655300I-50000J0D01*
G01*
X10768800Y-10909300D02*
G75*
G03X10768800Y-10909300I-50000J0D01*
G01*
X10768800Y-11163300D02*
G75*
G03X10768800Y-11163300I-50000J0D01*
G01*
X10768800Y-11417300D02*
G75*
G03X10768800Y-11417300I-50000J0D01*
G01*
X10768800Y-11671300D02*
G75*
G03X10768800Y-11671300I-50000J0D01*
G01*
X10768800Y-11925300D02*
G75*
G03X10768800Y-11925300I-50000J0D01*
G01*
X10768800Y-12179300D02*
G75*
G03X10768800Y-12179300I-50000J0D01*
G01*
X10768800Y-12433300D02*
G75*
G03X10768800Y-12433300I-50000J0D01*
G01*
X10768800Y-12687300D02*
G75*
G03X10768800Y-12687300I-50000J0D01*
G01*
X10768800Y-12941300D02*
G75*
G03X10768800Y-12941300I-50000J0D01*
G01*
X10768800Y-13195300D02*
G75*
G03X10768800Y-13195300I-50000J0D01*
G01*
X10768800Y-13449300D02*
G75*
G03X10768800Y-13449300I-50000J0D01*
G01*
X10768800Y-13703300D02*
G75*
G03X10768800Y-13703300I-50000J0D01*
G01*
X10768800Y-13957300D02*
G75*
G03X10768800Y-13957300I-50000J0D01*
G01*
X10768800Y-14211300D02*
G75*
G03X10768800Y-14211300I-50000J0D01*
G01*
X11022800Y-9385300D02*
G75*
G03X11022800Y-9385300I-50000J0D01*
G01*
X11022800Y-9639300D02*
G75*
G03X11022800Y-9639300I-50000J0D01*
G01*
X11022800Y-9893300D02*
G75*
G03X11022800Y-9893300I-50000J0D01*
G01*
X11022800Y-10147300D02*
G75*
G03X11022800Y-10147300I-50000J0D01*
G01*
X11022800Y-10401300D02*
G75*
G03X11022800Y-10401300I-50000J0D01*
G01*
X11022800Y-10655300D02*
G75*
G03X11022800Y-10655300I-50000J0D01*
G01*
X11022800Y-10909300D02*
G75*
G03X11022800Y-10909300I-50000J0D01*
G01*
X11022800Y-11163300D02*
G75*
G03X11022800Y-11163300I-50000J0D01*
G01*
X11022800Y-11417300D02*
G75*
G03X11022800Y-11417300I-50000J0D01*
G01*
X11022800Y-11671300D02*
G75*
G03X11022800Y-11671300I-50000J0D01*
G01*
X11022800Y-11925300D02*
G75*
G03X11022800Y-11925300I-50000J0D01*
G01*
X11022800Y-12179300D02*
G75*
G03X11022800Y-12179300I-50000J0D01*
G01*
X11022800Y-12433300D02*
G75*
G03X11022800Y-12433300I-50000J0D01*
G01*
X11022800Y-12687300D02*
G75*
G03X11022800Y-12687300I-50000J0D01*
G01*
X11022800Y-12941300D02*
G75*
G03X11022800Y-12941300I-50000J0D01*
G01*
X11022800Y-13195300D02*
G75*
G03X11022800Y-13195300I-50000J0D01*
G01*
X11022800Y-13449300D02*
G75*
G03X11022800Y-13449300I-50000J0D01*
G01*
X11022800Y-13703300D02*
G75*
G03X11022800Y-13703300I-50000J0D01*
G01*
X11022800Y-13957300D02*
G75*
G03X11022800Y-13957300I-50000J0D01*
G01*
X11022800Y-14211300D02*
G75*
G03X11022800Y-14211300I-50000J0D01*
G01*
X13350000Y-9017500D02*
G75*
G03X13350000Y-9017500I-50000J0D01*
G01*
X13448500Y-14719300D02*
G75*
G03X13448500Y-14719300I-50000J0D01*
G01*
X13604000Y-9017500D02*
G75*
G03X13604000Y-9017500I-50000J0D01*
G01*
X13702500Y-14719300D02*
G75*
G03X13702500Y-14719300I-50000J0D01*
G01*
X14450000Y-9017500D02*
G75*
G03X14450000Y-9017500I-50000J0D01*
G01*
X14464500Y-14706600D02*
G75*
G03X14464500Y-14706600I-50000J0D01*
G01*
X14704000Y-9017500D02*
G75*
G03X14704000Y-9017500I-50000J0D01*
G01*
X14718500Y-14706600D02*
G75*
G03X14718500Y-14706600I-50000J0D01*
G01*
X15391600Y-9029700D02*
G75*
G03X15391600Y-9029700I-50000J0D01*
G01*
X15556700Y-14719300D02*
G75*
G03X15556700Y-14719300I-50000J0D01*
G01*
X15645600Y-9029700D02*
G75*
G03X15645600Y-9029700I-50000J0D01*
G01*
X15810700Y-14719300D02*
G75*
G03X15810700Y-14719300I-50000J0D01*
G01*
X16090100Y-11645900D02*
G75*
G03X16090100Y-11645900I-50000J0D01*
G01*
X16090100Y-11899900D02*
G75*
G03X16090100Y-11899900I-50000J0D01*
G01*
X16090100Y-12153900D02*
G75*
G03X16090100Y-12153900I-50000J0D01*
G01*
X16115500Y-13423900D02*
G75*
G03X16115500Y-13423900I-50000J0D01*
G01*
X16115500Y-13677900D02*
G75*
G03X16115500Y-13677900I-50000J0D01*
G01*
X16115500Y-13931900D02*
G75*
G03X16115500Y-13931900I-50000J0D01*
G01*
X16344100Y-11645900D02*
G75*
G03X16344100Y-11645900I-50000J0D01*
G01*
X16344100Y-11899900D02*
G75*
G03X16344100Y-11899900I-50000J0D01*
G01*
X16344100Y-12153900D02*
G75*
G03X16344100Y-12153900I-50000J0D01*
G01*
X16369500Y-13423900D02*
G75*
G03X16369500Y-13423900I-50000J0D01*
G01*
X16369500Y-13677900D02*
G75*
G03X16369500Y-13677900I-50000J0D01*
G01*
X16369500Y-13931900D02*
G75*
G03X16369500Y-13931900I-50000J0D01*
G01*
X17398200Y-14706600D02*
G75*
G03X17398200Y-14706600I-50000J0D01*
G01*
X17652200Y-14706600D02*
G75*
G03X17652200Y-14706600I-50000J0D01*
G01*
X18350700Y-14732000D02*
G75*
G03X18350700Y-14732000I-50000J0D01*
G01*
X18604700Y-14732000D02*
G75*
G03X18604700Y-14732000I-50000J0D01*
G01*
X19265100Y-14706600D02*
G75*
G03X19265100Y-14706600I-50000J0D01*
G01*
X19519100Y-14706600D02*
G75*
G03X19519100Y-14706600I-50000J0D01*
G01*
X20281900Y-9072900D02*
X20281900Y-9392900D01*
X20121900Y-9232900D02*
X20441900Y-9232900D01*
X20281900Y-14241800D02*
X20281900Y-14561800D01*
X20121900Y-14401800D02*
X20441900Y-14401800D01*
D12*
X271429Y-465714D02*
X271429Y-165714D01*
X342857Y-165714D01*
X385714Y-180000D01*
X414286Y-208571D01*
X428571Y-237143D01*
X442857Y-294286D01*
X442857Y-337143D01*
X428571Y-394286D01*
X414286Y-422857D01*
X385714Y-451429D01*
X342857Y-465714D01*
X271429Y-465714D01*
X571429Y-465714D02*
X571429Y-265714D01*
X571429Y-322857D02*
X585714Y-294286D01*
X600000Y-280000D01*
X628571Y-265714D01*
X657143Y-265714D01*
X757143Y-465714D02*
X757143Y-265714D01*
X757143Y-165714D02*
X742857Y-180000D01*
X757143Y-194286D01*
X771429Y-180000D01*
X757143Y-165714D01*
X757143Y-194286D01*
X942857Y-465714D02*
X914286Y-451429D01*
X900000Y-422857D01*
X900000Y-165714D01*
X1100000Y-465714D02*
X1071429Y-451429D01*
X1057143Y-422857D01*
X1057143Y-165714D01*
X1442857Y-465714D02*
X1442857Y-165714D01*
X1542857Y-380000D01*
X1642857Y-165714D01*
X1642857Y-465714D01*
X1914286Y-465714D02*
X1914286Y-308571D01*
X1900000Y-280000D01*
X1871429Y-265714D01*
X1814286Y-265714D01*
X1785714Y-280000D01*
X1914286Y-451429D02*
X1885714Y-465714D01*
X1814286Y-465714D01*
X1785714Y-451429D01*
X1771429Y-422857D01*
X1771429Y-394286D01*
X1785714Y-365714D01*
X1814286Y-351429D01*
X1885714Y-351429D01*
X1914286Y-337143D01*
X2057143Y-265714D02*
X2057143Y-565714D01*
X2057143Y-280000D02*
X2085714Y-265714D01*
X2142857Y-265714D01*
X2171429Y-280000D01*
X2185714Y-294286D01*
X2200000Y-322857D01*
X2200000Y-408571D01*
X2185714Y-437143D01*
X2171429Y-451429D01*
X2142857Y-465714D01*
X2085714Y-465714D01*
X2057143Y-451429D01*
X2328572Y-437143D02*
X2342857Y-451429D01*
X2328572Y-465714D01*
X2314286Y-451429D01*
X2328572Y-437143D01*
X2328572Y-465714D01*
X2328572Y-280000D02*
X2342857Y-294286D01*
X2328572Y-308571D01*
X2314286Y-294286D01*
X2328572Y-280000D01*
X2328572Y-308571D01*
X-80000Y-920000D02*
X0Y-1000000D01*
X0Y-920000D02*
X-80000Y-1000000D01*
X328571Y-795714D02*
X357143Y-795714D01*
X385714Y-810000D01*
X400000Y-824286D01*
X414286Y-852857D01*
X428571Y-910000D01*
X428571Y-981429D01*
X414286Y-1038571D01*
X400000Y-1067143D01*
X385714Y-1081429D01*
X357143Y-1095714D01*
X328571Y-1095714D01*
X300000Y-1081429D01*
X285714Y-1067143D01*
X271429Y-1038571D01*
X257143Y-981429D01*
X257143Y-910000D01*
X271429Y-852857D01*
X285714Y-824286D01*
X300000Y-810000D01*
X328571Y-795714D01*
X557143Y-1067143D02*
X571429Y-1081429D01*
X557143Y-1095714D01*
X542857Y-1081429D01*
X557143Y-1067143D01*
X557143Y-1095714D01*
X742857Y-924286D02*
X714286Y-910000D01*
X700000Y-895714D01*
X685714Y-867143D01*
X685714Y-852857D01*
X700000Y-824286D01*
X714286Y-810000D01*
X742857Y-795714D01*
X800000Y-795714D01*
X828571Y-810000D01*
X842857Y-824286D01*
X857143Y-852857D01*
X857143Y-867143D01*
X842857Y-895714D01*
X828571Y-910000D01*
X800000Y-924286D01*
X742857Y-924286D01*
X714286Y-938571D01*
X700000Y-952857D01*
X685714Y-981429D01*
X685714Y-1038571D01*
X700000Y-1067143D01*
X714286Y-1081429D01*
X742857Y-1095714D01*
X800000Y-1095714D01*
X828571Y-1081429D01*
X842857Y-1067143D01*
X857143Y-1038571D01*
X857143Y-981429D01*
X842857Y-952857D01*
X828571Y-938571D01*
X800000Y-924286D01*
X1042857Y-795714D02*
X1071429Y-795714D01*
X1100000Y-810000D01*
X1114286Y-824286D01*
X1128571Y-852857D01*
X1142857Y-910000D01*
X1142857Y-981429D01*
X1128571Y-1038571D01*
X1114286Y-1067143D01*
X1100000Y-1081429D01*
X1071429Y-1095714D01*
X1042857Y-1095714D01*
X1014286Y-1081429D01*
X1000000Y-1067143D01*
X985714Y-1038571D01*
X971429Y-981429D01*
X971429Y-910000D01*
X985714Y-852857D01*
X1000000Y-824286D01*
X1014286Y-810000D01*
X1042857Y-795714D01*
X1271429Y-1095714D02*
X1271429Y-895714D01*
X1271429Y-924286D02*
X1285714Y-910000D01*
X1314286Y-895714D01*
X1357143Y-895714D01*
X1385714Y-910000D01*
X1400000Y-938571D01*
X1400000Y-1095714D01*
X1400000Y-938571D02*
X1414286Y-910000D01*
X1442857Y-895714D01*
X1485714Y-895714D01*
X1514286Y-910000D01*
X1528571Y-938571D01*
X1528571Y-1095714D01*
X1671429Y-1095714D02*
X1671429Y-895714D01*
X1671429Y-924286D02*
X1685714Y-910000D01*
X1714286Y-895714D01*
X1757143Y-895714D01*
X1785714Y-910000D01*
X1800000Y-938571D01*
X1800000Y-1095714D01*
X1800000Y-938571D02*
X1814286Y-910000D01*
X1842857Y-895714D01*
X1885714Y-895714D01*
X1914286Y-910000D01*
X1928571Y-938571D01*
X1928571Y-1095714D01*
X2514286Y-781429D02*
X2257143Y-1167143D01*
X2900000Y-795714D02*
X2928571Y-795714D01*
X2957143Y-810000D01*
X2971428Y-824286D01*
X2985714Y-852857D01*
X3000000Y-910000D01*
X3000000Y-981429D01*
X2985714Y-1038571D01*
X2971428Y-1067143D01*
X2957143Y-1081429D01*
X2928571Y-1095714D01*
X2900000Y-1095714D01*
X2871428Y-1081429D01*
X2857143Y-1067143D01*
X2842857Y-1038571D01*
X2828571Y-981429D01*
X2828571Y-910000D01*
X2842857Y-852857D01*
X2857143Y-824286D01*
X2871428Y-810000D01*
X2900000Y-795714D01*
X3128571Y-1067143D02*
X3142857Y-1081429D01*
X3128571Y-1095714D01*
X3114286Y-1081429D01*
X3128571Y-1067143D01*
X3128571Y-1095714D01*
X3328571Y-795714D02*
X3357143Y-795714D01*
X3385714Y-810000D01*
X3400000Y-824286D01*
X3414286Y-852857D01*
X3428571Y-910000D01*
X3428571Y-981429D01*
X3414286Y-1038571D01*
X3400000Y-1067143D01*
X3385714Y-1081429D01*
X3357143Y-1095714D01*
X3328571Y-1095714D01*
X3300000Y-1081429D01*
X3285714Y-1067143D01*
X3271428Y-1038571D01*
X3257143Y-981429D01*
X3257143Y-910000D01*
X3271428Y-852857D01*
X3285714Y-824286D01*
X3300000Y-810000D01*
X3328571Y-795714D01*
X3528571Y-795714D02*
X3714286Y-795714D01*
X3614286Y-910000D01*
X3657143Y-910000D01*
X3685714Y-924286D01*
X3700000Y-938571D01*
X3714286Y-967143D01*
X3714286Y-1038571D01*
X3700000Y-1067143D01*
X3685714Y-1081429D01*
X3657143Y-1095714D01*
X3571428Y-1095714D01*
X3542857Y-1081429D01*
X3528571Y-1067143D01*
X4000000Y-1095714D02*
X3828571Y-1095714D01*
X3914286Y-1095714D02*
X3914286Y-795714D01*
X3885714Y-838571D01*
X3857143Y-867143D01*
X3828571Y-881429D01*
X4114286Y-795714D02*
X4114286Y-852857D01*
X4228571Y-795714D02*
X4228571Y-852857D01*
X4671429Y-1210000D02*
X4657143Y-1195714D01*
X4628571Y-1152857D01*
X4614286Y-1124286D01*
X4600000Y-1081429D01*
X4585714Y-1010000D01*
X4585714Y-952857D01*
X4600000Y-881429D01*
X4614286Y-838571D01*
X4628571Y-810000D01*
X4657143Y-767143D01*
X4671429Y-752857D01*
X4914286Y-895714D02*
X4914286Y-1095714D01*
X4842857Y-781429D02*
X4771429Y-995714D01*
X4957143Y-995714D01*
X5042857Y-795714D02*
X5242857Y-795714D01*
X5114286Y-1095714D01*
X5585714Y-1095714D02*
X5585714Y-795714D01*
X5714286Y-1095714D02*
X5714286Y-938571D01*
X5700000Y-910000D01*
X5671428Y-895714D01*
X5628571Y-895714D01*
X5600000Y-910000D01*
X5585714Y-924286D01*
X5900000Y-1095714D02*
X5871428Y-1081429D01*
X5857143Y-1067143D01*
X5842857Y-1038571D01*
X5842857Y-952857D01*
X5857143Y-924286D01*
X5871428Y-910000D01*
X5900000Y-895714D01*
X5942857Y-895714D01*
X5971428Y-910000D01*
X5985714Y-924286D01*
X6000000Y-952857D01*
X6000000Y-1038571D01*
X5985714Y-1067143D01*
X5971428Y-1081429D01*
X5942857Y-1095714D01*
X5900000Y-1095714D01*
X6171428Y-1095714D02*
X6142857Y-1081429D01*
X6128571Y-1052857D01*
X6128571Y-795714D01*
X6400000Y-1081429D02*
X6371429Y-1095714D01*
X6314286Y-1095714D01*
X6285714Y-1081429D01*
X6271429Y-1052857D01*
X6271429Y-938571D01*
X6285714Y-910000D01*
X6314286Y-895714D01*
X6371429Y-895714D01*
X6400000Y-910000D01*
X6414286Y-938571D01*
X6414286Y-967143D01*
X6271429Y-995714D01*
X6528571Y-1081429D02*
X6557143Y-1095714D01*
X6614286Y-1095714D01*
X6642857Y-1081429D01*
X6657143Y-1052857D01*
X6657143Y-1038571D01*
X6642857Y-1010000D01*
X6614286Y-995714D01*
X6571429Y-995714D01*
X6542857Y-981429D01*
X6528571Y-952857D01*
X6528571Y-938571D01*
X6542857Y-910000D01*
X6571429Y-895714D01*
X6614286Y-895714D01*
X6642857Y-910000D01*
X6757143Y-1210000D02*
X6771429Y-1195714D01*
X6800000Y-1152857D01*
X6814286Y-1124286D01*
X6828571Y-1081429D01*
X6842857Y-1010000D01*
X6842857Y-952857D01*
X6828571Y-881429D01*
X6814286Y-838571D01*
X6800000Y-810000D01*
X6771429Y-767143D01*
X6757143Y-752857D01*
X0Y-1356000D02*
G75*
G03X0Y-1356000I-50000J0D01*
G01*
X428571Y-1491714D02*
X257143Y-1491714D01*
X342857Y-1491714D02*
X342857Y-1191714D01*
X314286Y-1234571D01*
X285714Y-1263143D01*
X257143Y-1277429D01*
X557143Y-1463143D02*
X571429Y-1477429D01*
X557143Y-1491714D01*
X542857Y-1477429D01*
X557143Y-1463143D01*
X557143Y-1491714D01*
X757143Y-1191714D02*
X785714Y-1191714D01*
X814286Y-1206000D01*
X828571Y-1220286D01*
X842857Y-1248857D01*
X857143Y-1306000D01*
X857143Y-1377429D01*
X842857Y-1434571D01*
X828571Y-1463143D01*
X814286Y-1477429D01*
X785714Y-1491714D01*
X757143Y-1491714D01*
X728571Y-1477429D01*
X714286Y-1463143D01*
X700000Y-1434571D01*
X685714Y-1377429D01*
X685714Y-1306000D01*
X700000Y-1248857D01*
X714286Y-1220286D01*
X728571Y-1206000D01*
X757143Y-1191714D01*
X1042857Y-1191714D02*
X1071429Y-1191714D01*
X1100000Y-1206000D01*
X1114286Y-1220286D01*
X1128571Y-1248857D01*
X1142857Y-1306000D01*
X1142857Y-1377429D01*
X1128571Y-1434571D01*
X1114286Y-1463143D01*
X1100000Y-1477429D01*
X1071429Y-1491714D01*
X1042857Y-1491714D01*
X1014286Y-1477429D01*
X1000000Y-1463143D01*
X985714Y-1434571D01*
X971429Y-1377429D01*
X971429Y-1306000D01*
X985714Y-1248857D01*
X1000000Y-1220286D01*
X1014286Y-1206000D01*
X1042857Y-1191714D01*
X1271429Y-1491714D02*
X1271429Y-1291714D01*
X1271429Y-1320286D02*
X1285714Y-1306000D01*
X1314286Y-1291714D01*
X1357143Y-1291714D01*
X1385714Y-1306000D01*
X1400000Y-1334571D01*
X1400000Y-1491714D01*
X1400000Y-1334571D02*
X1414286Y-1306000D01*
X1442857Y-1291714D01*
X1485714Y-1291714D01*
X1514286Y-1306000D01*
X1528571Y-1334571D01*
X1528571Y-1491714D01*
X1671429Y-1491714D02*
X1671429Y-1291714D01*
X1671429Y-1320286D02*
X1685714Y-1306000D01*
X1714286Y-1291714D01*
X1757143Y-1291714D01*
X1785714Y-1306000D01*
X1800000Y-1334571D01*
X1800000Y-1491714D01*
X1800000Y-1334571D02*
X1814286Y-1306000D01*
X1842857Y-1291714D01*
X1885714Y-1291714D01*
X1914286Y-1306000D01*
X1928571Y-1334571D01*
X1928571Y-1491714D01*
X2514286Y-1177429D02*
X2257143Y-1563143D01*
X2900000Y-1191714D02*
X2928571Y-1191714D01*
X2957143Y-1206000D01*
X2971428Y-1220286D01*
X2985714Y-1248857D01*
X3000000Y-1306000D01*
X3000000Y-1377429D01*
X2985714Y-1434571D01*
X2971428Y-1463143D01*
X2957143Y-1477429D01*
X2928571Y-1491714D01*
X2900000Y-1491714D01*
X2871428Y-1477429D01*
X2857143Y-1463143D01*
X2842857Y-1434571D01*
X2828571Y-1377429D01*
X2828571Y-1306000D01*
X2842857Y-1248857D01*
X2857143Y-1220286D01*
X2871428Y-1206000D01*
X2900000Y-1191714D01*
X3128571Y-1463143D02*
X3142857Y-1477429D01*
X3128571Y-1491714D01*
X3114286Y-1477429D01*
X3128571Y-1463143D01*
X3128571Y-1491714D01*
X3328571Y-1191714D02*
X3357143Y-1191714D01*
X3385714Y-1206000D01*
X3400000Y-1220286D01*
X3414286Y-1248857D01*
X3428571Y-1306000D01*
X3428571Y-1377429D01*
X3414286Y-1434571D01*
X3400000Y-1463143D01*
X3385714Y-1477429D01*
X3357143Y-1491714D01*
X3328571Y-1491714D01*
X3300000Y-1477429D01*
X3285714Y-1463143D01*
X3271428Y-1434571D01*
X3257143Y-1377429D01*
X3257143Y-1306000D01*
X3271428Y-1248857D01*
X3285714Y-1220286D01*
X3300000Y-1206000D01*
X3328571Y-1191714D01*
X3528571Y-1191714D02*
X3714286Y-1191714D01*
X3614286Y-1306000D01*
X3657143Y-1306000D01*
X3685714Y-1320286D01*
X3700000Y-1334571D01*
X3714286Y-1363143D01*
X3714286Y-1434571D01*
X3700000Y-1463143D01*
X3685714Y-1477429D01*
X3657143Y-1491714D01*
X3571428Y-1491714D01*
X3542857Y-1477429D01*
X3528571Y-1463143D01*
X3857143Y-1491714D02*
X3914286Y-1491714D01*
X3942857Y-1477429D01*
X3957143Y-1463143D01*
X3985714Y-1420286D01*
X4000000Y-1363143D01*
X4000000Y-1248857D01*
X3985714Y-1220286D01*
X3971428Y-1206000D01*
X3942857Y-1191714D01*
X3885714Y-1191714D01*
X3857143Y-1206000D01*
X3842857Y-1220286D01*
X3828571Y-1248857D01*
X3828571Y-1320286D01*
X3842857Y-1348857D01*
X3857143Y-1363143D01*
X3885714Y-1377429D01*
X3942857Y-1377429D01*
X3971428Y-1363143D01*
X3985714Y-1348857D01*
X4000000Y-1320286D01*
X4114286Y-1191714D02*
X4114286Y-1248857D01*
X4228571Y-1191714D02*
X4228571Y-1248857D01*
X4671429Y-1606000D02*
X4657143Y-1591714D01*
X4628571Y-1548857D01*
X4614286Y-1520286D01*
X4600000Y-1477429D01*
X4585714Y-1406000D01*
X4585714Y-1348857D01*
X4600000Y-1277429D01*
X4614286Y-1234571D01*
X4628571Y-1206000D01*
X4657143Y-1163143D01*
X4671429Y-1148857D01*
X4757143Y-1191714D02*
X4957143Y-1191714D01*
X4828571Y-1491714D01*
X5128571Y-1191714D02*
X5157143Y-1191714D01*
X5185714Y-1206000D01*
X5200000Y-1220286D01*
X5214286Y-1248857D01*
X5228571Y-1306000D01*
X5228571Y-1377429D01*
X5214286Y-1434571D01*
X5200000Y-1463143D01*
X5185714Y-1477429D01*
X5157143Y-1491714D01*
X5128571Y-1491714D01*
X5100000Y-1477429D01*
X5085714Y-1463143D01*
X5071429Y-1434571D01*
X5057143Y-1377429D01*
X5057143Y-1306000D01*
X5071429Y-1248857D01*
X5085714Y-1220286D01*
X5100000Y-1206000D01*
X5128571Y-1191714D01*
X5585714Y-1491714D02*
X5585714Y-1191714D01*
X5714286Y-1491714D02*
X5714286Y-1334571D01*
X5700000Y-1306000D01*
X5671428Y-1291714D01*
X5628571Y-1291714D01*
X5600000Y-1306000D01*
X5585714Y-1320286D01*
X5900000Y-1491714D02*
X5871428Y-1477429D01*
X5857143Y-1463143D01*
X5842857Y-1434571D01*
X5842857Y-1348857D01*
X5857143Y-1320286D01*
X5871428Y-1306000D01*
X5900000Y-1291714D01*
X5942857Y-1291714D01*
X5971428Y-1306000D01*
X5985714Y-1320286D01*
X6000000Y-1348857D01*
X6000000Y-1434571D01*
X5985714Y-1463143D01*
X5971428Y-1477429D01*
X5942857Y-1491714D01*
X5900000Y-1491714D01*
X6171428Y-1491714D02*
X6142857Y-1477429D01*
X6128571Y-1448857D01*
X6128571Y-1191714D01*
X6400000Y-1477429D02*
X6371429Y-1491714D01*
X6314286Y-1491714D01*
X6285714Y-1477429D01*
X6271429Y-1448857D01*
X6271429Y-1334571D01*
X6285714Y-1306000D01*
X6314286Y-1291714D01*
X6371429Y-1291714D01*
X6400000Y-1306000D01*
X6414286Y-1334571D01*
X6414286Y-1363143D01*
X6271429Y-1391714D01*
X6528571Y-1477429D02*
X6557143Y-1491714D01*
X6614286Y-1491714D01*
X6642857Y-1477429D01*
X6657143Y-1448857D01*
X6657143Y-1434571D01*
X6642857Y-1406000D01*
X6614286Y-1391714D01*
X6571429Y-1391714D01*
X6542857Y-1377429D01*
X6528571Y-1348857D01*
X6528571Y-1334571D01*
X6542857Y-1306000D01*
X6571429Y-1291714D01*
X6614286Y-1291714D01*
X6642857Y-1306000D01*
X6757143Y-1606000D02*
X6771429Y-1591714D01*
X6800000Y-1548857D01*
X6814286Y-1520286D01*
X6828571Y-1477429D01*
X6842857Y-1406000D01*
X6842857Y-1348857D01*
X6828571Y-1277429D01*
X6814286Y-1234571D01*
X6800000Y-1206000D01*
X6771429Y-1163143D01*
X6757143Y-1148857D01*
X-160000Y-1592000D02*
X-160000Y-1912000D01*
X-320000Y-1752000D02*
X0Y-1752000D01*
X242857Y-1587714D02*
X428571Y-1587714D01*
X328571Y-1702000D01*
X371429Y-1702000D01*
X400000Y-1716286D01*
X414286Y-1730571D01*
X428571Y-1759143D01*
X428571Y-1830571D01*
X414286Y-1859143D01*
X400000Y-1873429D01*
X371429Y-1887714D01*
X285714Y-1887714D01*
X257143Y-1873429D01*
X242857Y-1859143D01*
X557143Y-1859143D02*
X571429Y-1873429D01*
X557143Y-1887714D01*
X542857Y-1873429D01*
X557143Y-1859143D01*
X557143Y-1887714D01*
X685714Y-1616286D02*
X700000Y-1602000D01*
X728571Y-1587714D01*
X800000Y-1587714D01*
X828571Y-1602000D01*
X842857Y-1616286D01*
X857143Y-1644857D01*
X857143Y-1673429D01*
X842857Y-1716286D01*
X671429Y-1887714D01*
X857143Y-1887714D01*
X1042857Y-1587714D02*
X1071429Y-1587714D01*
X1100000Y-1602000D01*
X1114286Y-1616286D01*
X1128571Y-1644857D01*
X1142857Y-1702000D01*
X1142857Y-1773429D01*
X1128571Y-1830571D01*
X1114286Y-1859143D01*
X1100000Y-1873429D01*
X1071429Y-1887714D01*
X1042857Y-1887714D01*
X1014286Y-1873429D01*
X1000000Y-1859143D01*
X985714Y-1830571D01*
X971429Y-1773429D01*
X971429Y-1702000D01*
X985714Y-1644857D01*
X1000000Y-1616286D01*
X1014286Y-1602000D01*
X1042857Y-1587714D01*
X1271429Y-1887714D02*
X1271429Y-1687714D01*
X1271429Y-1716286D02*
X1285714Y-1702000D01*
X1314286Y-1687714D01*
X1357143Y-1687714D01*
X1385714Y-1702000D01*
X1400000Y-1730571D01*
X1400000Y-1887714D01*
X1400000Y-1730571D02*
X1414286Y-1702000D01*
X1442857Y-1687714D01*
X1485714Y-1687714D01*
X1514286Y-1702000D01*
X1528571Y-1730571D01*
X1528571Y-1887714D01*
X1671429Y-1887714D02*
X1671429Y-1687714D01*
X1671429Y-1716286D02*
X1685714Y-1702000D01*
X1714286Y-1687714D01*
X1757143Y-1687714D01*
X1785714Y-1702000D01*
X1800000Y-1730571D01*
X1800000Y-1887714D01*
X1800000Y-1730571D02*
X1814286Y-1702000D01*
X1842857Y-1687714D01*
X1885714Y-1687714D01*
X1914286Y-1702000D01*
X1928571Y-1730571D01*
X1928571Y-1887714D01*
X2514286Y-1573429D02*
X2257143Y-1959143D01*
X2900000Y-1587714D02*
X2928571Y-1587714D01*
X2957143Y-1602000D01*
X2971428Y-1616286D01*
X2985714Y-1644857D01*
X3000000Y-1702000D01*
X3000000Y-1773429D01*
X2985714Y-1830571D01*
X2971428Y-1859143D01*
X2957143Y-1873429D01*
X2928571Y-1887714D01*
X2900000Y-1887714D01*
X2871428Y-1873429D01*
X2857143Y-1859143D01*
X2842857Y-1830571D01*
X2828571Y-1773429D01*
X2828571Y-1702000D01*
X2842857Y-1644857D01*
X2857143Y-1616286D01*
X2871428Y-1602000D01*
X2900000Y-1587714D01*
X3128571Y-1859143D02*
X3142857Y-1873429D01*
X3128571Y-1887714D01*
X3114286Y-1873429D01*
X3128571Y-1859143D01*
X3128571Y-1887714D01*
X3428571Y-1887714D02*
X3257143Y-1887714D01*
X3342857Y-1887714D02*
X3342857Y-1587714D01*
X3314286Y-1630571D01*
X3285714Y-1659143D01*
X3257143Y-1673429D01*
X3542857Y-1616286D02*
X3557143Y-1602000D01*
X3585714Y-1587714D01*
X3657143Y-1587714D01*
X3685714Y-1602000D01*
X3700000Y-1616286D01*
X3714286Y-1644857D01*
X3714286Y-1673429D01*
X3700000Y-1716286D01*
X3528571Y-1887714D01*
X3714286Y-1887714D01*
X3971428Y-1587714D02*
X3914286Y-1587714D01*
X3885714Y-1602000D01*
X3871428Y-1616286D01*
X3842857Y-1659143D01*
X3828571Y-1716286D01*
X3828571Y-1830571D01*
X3842857Y-1859143D01*
X3857143Y-1873429D01*
X3885714Y-1887714D01*
X3942857Y-1887714D01*
X3971428Y-1873429D01*
X3985714Y-1859143D01*
X4000000Y-1830571D01*
X4000000Y-1759143D01*
X3985714Y-1730571D01*
X3971428Y-1716286D01*
X3942857Y-1702000D01*
X3885714Y-1702000D01*
X3857143Y-1716286D01*
X3842857Y-1730571D01*
X3828571Y-1759143D01*
X4114286Y-1587714D02*
X4114286Y-1644857D01*
X4228571Y-1587714D02*
X4228571Y-1644857D01*
X4671429Y-2002000D02*
X4657143Y-1987714D01*
X4628571Y-1944857D01*
X4614286Y-1916286D01*
X4600000Y-1873429D01*
X4585714Y-1802000D01*
X4585714Y-1744857D01*
X4600000Y-1673429D01*
X4614286Y-1630571D01*
X4628571Y-1602000D01*
X4657143Y-1559143D01*
X4671429Y-1544857D01*
X4771429Y-1616286D02*
X4785714Y-1602000D01*
X4814286Y-1587714D01*
X4885714Y-1587714D01*
X4914286Y-1602000D01*
X4928571Y-1616286D01*
X4942857Y-1644857D01*
X4942857Y-1673429D01*
X4928571Y-1716286D01*
X4757143Y-1887714D01*
X4942857Y-1887714D01*
X5300000Y-1887714D02*
X5300000Y-1587714D01*
X5428571Y-1887714D02*
X5428571Y-1730571D01*
X5414286Y-1702000D01*
X5385714Y-1687714D01*
X5342857Y-1687714D01*
X5314286Y-1702000D01*
X5300000Y-1716286D01*
X5614286Y-1887714D02*
X5585714Y-1873429D01*
X5571429Y-1859143D01*
X5557143Y-1830571D01*
X5557143Y-1744857D01*
X5571429Y-1716286D01*
X5585714Y-1702000D01*
X5614286Y-1687714D01*
X5657143Y-1687714D01*
X5685714Y-1702000D01*
X5700000Y-1716286D01*
X5714286Y-1744857D01*
X5714286Y-1830571D01*
X5700000Y-1859143D01*
X5685714Y-1873429D01*
X5657143Y-1887714D01*
X5614286Y-1887714D01*
X5885714Y-1887714D02*
X5857143Y-1873429D01*
X5842857Y-1844857D01*
X5842857Y-1587714D01*
X6114286Y-1873429D02*
X6085714Y-1887714D01*
X6028571Y-1887714D01*
X6000000Y-1873429D01*
X5985714Y-1844857D01*
X5985714Y-1730571D01*
X6000000Y-1702000D01*
X6028571Y-1687714D01*
X6085714Y-1687714D01*
X6114286Y-1702000D01*
X6128571Y-1730571D01*
X6128571Y-1759143D01*
X5985714Y-1787714D01*
X6242857Y-1873429D02*
X6271429Y-1887714D01*
X6328571Y-1887714D01*
X6357143Y-1873429D01*
X6371429Y-1844857D01*
X6371429Y-1830571D01*
X6357143Y-1802000D01*
X6328571Y-1787714D01*
X6285714Y-1787714D01*
X6257143Y-1773429D01*
X6242857Y-1744857D01*
X6242857Y-1730571D01*
X6257143Y-1702000D01*
X6285714Y-1687714D01*
X6328571Y-1687714D01*
X6357143Y-1702000D01*
X6471428Y-2002000D02*
X6485714Y-1987714D01*
X6514286Y-1944857D01*
X6528571Y-1916286D01*
X6542857Y-1873429D01*
X6557143Y-1802000D01*
X6557143Y-1744857D01*
X6542857Y-1673429D01*
X6528571Y-1630571D01*
X6514286Y-1602000D01*
X6485714Y-1559143D01*
X6471428Y-1544857D01*
M02*
