%FSLAX45Y45*%
G04 Gerber Fmt 4.5, Leading zero omitted, Abs format (unit mm)*
G04 Created by KiCad (PCBNEW 4.0.7) date 11/12/18 12:54:29*
%MOMM*%
%LPD*%
G01*
G04 APERTURE LIST*
%ADD10C,0.127000*%
%ADD11C,0.150000*%
%ADD12C,0.200000*%
%ADD13C,0.300000*%
G04 APERTURE END LIST*
D10*
D11*
X12200000Y-8200000D02*
X12200000Y-7300000D01*
X14700000Y-8200000D02*
X12200000Y-8200000D01*
X14700000Y-7300000D02*
X14700000Y-8200000D01*
X12200000Y-7300000D02*
X14700000Y-7300000D01*
D12*
X13060000Y-7325000D02*
X13120000Y-7385000D01*
X13120000Y-7325000D02*
X13060000Y-7385000D01*
X13065000Y-8115000D02*
X13125000Y-8175000D01*
X13125000Y-8115000D02*
X13065000Y-8175000D01*
X13170000Y-7750000D02*
X13230000Y-7810000D01*
X13230000Y-7750000D02*
X13170000Y-7810000D01*
X13605000Y-7325000D02*
X13665000Y-7385000D01*
X13665000Y-7325000D02*
X13605000Y-7385000D01*
X13615000Y-8115000D02*
X13675000Y-8175000D01*
X13675000Y-8115000D02*
X13615000Y-8175000D01*
X14115000Y-8115000D02*
X14175000Y-8175000D01*
X14175000Y-8115000D02*
X14115000Y-8175000D01*
X14130000Y-7325000D02*
X14190000Y-7385000D01*
X14190000Y-7325000D02*
X14130000Y-7385000D01*
X14410000Y-7960000D02*
X14470000Y-8020000D01*
X14470000Y-7960000D02*
X14410000Y-8020000D01*
X14615000Y-7325000D02*
X14675000Y-7385000D01*
X14675000Y-7325000D02*
X14615000Y-7385000D01*
X14615000Y-7690000D02*
X14675000Y-7750000D01*
X14675000Y-7690000D02*
X14615000Y-7750000D01*
X14615000Y-8115000D02*
X14675000Y-8175000D01*
X14675000Y-8115000D02*
X14615000Y-8175000D01*
X12440000Y-7500000D02*
G75*
G03X12440000Y-7500000I-50000J0D01*
G01*
X12440000Y-7754000D02*
G75*
G03X12440000Y-7754000I-50000J0D01*
G01*
X12440000Y-8008000D02*
G75*
G03X12440000Y-8008000I-50000J0D01*
G01*
X12694000Y-7500000D02*
G75*
G03X12694000Y-7500000I-50000J0D01*
G01*
X12694000Y-7754000D02*
G75*
G03X12694000Y-7754000I-50000J0D01*
G01*
X12694000Y-8008000D02*
G75*
G03X12694000Y-8008000I-50000J0D01*
G01*
D13*
X12463928Y-8673214D02*
X12463928Y-8373214D01*
X12535357Y-8373214D01*
X12578214Y-8387500D01*
X12606786Y-8416072D01*
X12621071Y-8444643D01*
X12635357Y-8501786D01*
X12635357Y-8544643D01*
X12621071Y-8601786D01*
X12606786Y-8630357D01*
X12578214Y-8658929D01*
X12535357Y-8673214D01*
X12463928Y-8673214D01*
X12763928Y-8673214D02*
X12763928Y-8473214D01*
X12763928Y-8530357D02*
X12778214Y-8501786D01*
X12792500Y-8487500D01*
X12821071Y-8473214D01*
X12849643Y-8473214D01*
X12949643Y-8673214D02*
X12949643Y-8473214D01*
X12949643Y-8373214D02*
X12935357Y-8387500D01*
X12949643Y-8401786D01*
X12963928Y-8387500D01*
X12949643Y-8373214D01*
X12949643Y-8401786D01*
X13135357Y-8673214D02*
X13106786Y-8658929D01*
X13092500Y-8630357D01*
X13092500Y-8373214D01*
X13292500Y-8673214D02*
X13263928Y-8658929D01*
X13249643Y-8630357D01*
X13249643Y-8373214D01*
X13635357Y-8673214D02*
X13635357Y-8373214D01*
X13735357Y-8587500D01*
X13835357Y-8373214D01*
X13835357Y-8673214D01*
X14106786Y-8673214D02*
X14106786Y-8516072D01*
X14092500Y-8487500D01*
X14063928Y-8473214D01*
X14006786Y-8473214D01*
X13978214Y-8487500D01*
X14106786Y-8658929D02*
X14078214Y-8673214D01*
X14006786Y-8673214D01*
X13978214Y-8658929D01*
X13963928Y-8630357D01*
X13963928Y-8601786D01*
X13978214Y-8573214D01*
X14006786Y-8558929D01*
X14078214Y-8558929D01*
X14106786Y-8544643D01*
X14249643Y-8473214D02*
X14249643Y-8773214D01*
X14249643Y-8487500D02*
X14278214Y-8473214D01*
X14335357Y-8473214D01*
X14363928Y-8487500D01*
X14378214Y-8501786D01*
X14392500Y-8530357D01*
X14392500Y-8616072D01*
X14378214Y-8644643D01*
X14363928Y-8658929D01*
X14335357Y-8673214D01*
X14278214Y-8673214D01*
X14249643Y-8658929D01*
X14521071Y-8644643D02*
X14535357Y-8658929D01*
X14521071Y-8673214D01*
X14506786Y-8658929D01*
X14521071Y-8644643D01*
X14521071Y-8673214D01*
X14521071Y-8487500D02*
X14535357Y-8501786D01*
X14521071Y-8516072D01*
X14506786Y-8501786D01*
X14521071Y-8487500D01*
X14521071Y-8516072D01*
X12132500Y-9137500D02*
X12192500Y-9197500D01*
X12192500Y-9137500D02*
X12132500Y-9197500D01*
X12521071Y-9003214D02*
X12549643Y-9003214D01*
X12578214Y-9017500D01*
X12592500Y-9031786D01*
X12606786Y-9060357D01*
X12621071Y-9117500D01*
X12621071Y-9188929D01*
X12606786Y-9246072D01*
X12592500Y-9274643D01*
X12578214Y-9288929D01*
X12549643Y-9303214D01*
X12521071Y-9303214D01*
X12492500Y-9288929D01*
X12478214Y-9274643D01*
X12463928Y-9246072D01*
X12449643Y-9188929D01*
X12449643Y-9117500D01*
X12463928Y-9060357D01*
X12478214Y-9031786D01*
X12492500Y-9017500D01*
X12521071Y-9003214D01*
X12749643Y-9274643D02*
X12763928Y-9288929D01*
X12749643Y-9303214D01*
X12735357Y-9288929D01*
X12749643Y-9274643D01*
X12749643Y-9303214D01*
X13021071Y-9003214D02*
X12963928Y-9003214D01*
X12935357Y-9017500D01*
X12921071Y-9031786D01*
X12892500Y-9074643D01*
X12878214Y-9131786D01*
X12878214Y-9246072D01*
X12892500Y-9274643D01*
X12906786Y-9288929D01*
X12935357Y-9303214D01*
X12992500Y-9303214D01*
X13021071Y-9288929D01*
X13035357Y-9274643D01*
X13049643Y-9246072D01*
X13049643Y-9174643D01*
X13035357Y-9146072D01*
X13021071Y-9131786D01*
X12992500Y-9117500D01*
X12935357Y-9117500D01*
X12906786Y-9131786D01*
X12892500Y-9146072D01*
X12878214Y-9174643D01*
X13235357Y-9003214D02*
X13263928Y-9003214D01*
X13292500Y-9017500D01*
X13306786Y-9031786D01*
X13321071Y-9060357D01*
X13335357Y-9117500D01*
X13335357Y-9188929D01*
X13321071Y-9246072D01*
X13306786Y-9274643D01*
X13292500Y-9288929D01*
X13263928Y-9303214D01*
X13235357Y-9303214D01*
X13206786Y-9288929D01*
X13192500Y-9274643D01*
X13178214Y-9246072D01*
X13163928Y-9188929D01*
X13163928Y-9117500D01*
X13178214Y-9060357D01*
X13192500Y-9031786D01*
X13206786Y-9017500D01*
X13235357Y-9003214D01*
X13463928Y-9303214D02*
X13463928Y-9103214D01*
X13463928Y-9131786D02*
X13478214Y-9117500D01*
X13506786Y-9103214D01*
X13549643Y-9103214D01*
X13578214Y-9117500D01*
X13592500Y-9146072D01*
X13592500Y-9303214D01*
X13592500Y-9146072D02*
X13606786Y-9117500D01*
X13635357Y-9103214D01*
X13678214Y-9103214D01*
X13706786Y-9117500D01*
X13721071Y-9146072D01*
X13721071Y-9303214D01*
X13863928Y-9303214D02*
X13863928Y-9103214D01*
X13863928Y-9131786D02*
X13878214Y-9117500D01*
X13906786Y-9103214D01*
X13949643Y-9103214D01*
X13978214Y-9117500D01*
X13992500Y-9146072D01*
X13992500Y-9303214D01*
X13992500Y-9146072D02*
X14006786Y-9117500D01*
X14035357Y-9103214D01*
X14078214Y-9103214D01*
X14106786Y-9117500D01*
X14121071Y-9146072D01*
X14121071Y-9303214D01*
X14706786Y-8988929D02*
X14449643Y-9374643D01*
X15092500Y-9003214D02*
X15121071Y-9003214D01*
X15149643Y-9017500D01*
X15163928Y-9031786D01*
X15178214Y-9060357D01*
X15192500Y-9117500D01*
X15192500Y-9188929D01*
X15178214Y-9246072D01*
X15163928Y-9274643D01*
X15149643Y-9288929D01*
X15121071Y-9303214D01*
X15092500Y-9303214D01*
X15063928Y-9288929D01*
X15049643Y-9274643D01*
X15035357Y-9246072D01*
X15021071Y-9188929D01*
X15021071Y-9117500D01*
X15035357Y-9060357D01*
X15049643Y-9031786D01*
X15063928Y-9017500D01*
X15092500Y-9003214D01*
X15321071Y-9274643D02*
X15335357Y-9288929D01*
X15321071Y-9303214D01*
X15306786Y-9288929D01*
X15321071Y-9274643D01*
X15321071Y-9303214D01*
X15521071Y-9003214D02*
X15549643Y-9003214D01*
X15578214Y-9017500D01*
X15592500Y-9031786D01*
X15606785Y-9060357D01*
X15621071Y-9117500D01*
X15621071Y-9188929D01*
X15606785Y-9246072D01*
X15592500Y-9274643D01*
X15578214Y-9288929D01*
X15549643Y-9303214D01*
X15521071Y-9303214D01*
X15492500Y-9288929D01*
X15478214Y-9274643D01*
X15463928Y-9246072D01*
X15449643Y-9188929D01*
X15449643Y-9117500D01*
X15463928Y-9060357D01*
X15478214Y-9031786D01*
X15492500Y-9017500D01*
X15521071Y-9003214D01*
X15735357Y-9031786D02*
X15749643Y-9017500D01*
X15778214Y-9003214D01*
X15849643Y-9003214D01*
X15878214Y-9017500D01*
X15892500Y-9031786D01*
X15906785Y-9060357D01*
X15906785Y-9088929D01*
X15892500Y-9131786D01*
X15721071Y-9303214D01*
X15906785Y-9303214D01*
X16163928Y-9103214D02*
X16163928Y-9303214D01*
X16092500Y-8988929D02*
X16021071Y-9203214D01*
X16206785Y-9203214D01*
X16306786Y-9003214D02*
X16306786Y-9060357D01*
X16421071Y-9003214D02*
X16421071Y-9060357D01*
X16863928Y-9417500D02*
X16849643Y-9403214D01*
X16821071Y-9360357D01*
X16806786Y-9331786D01*
X16792500Y-9288929D01*
X16778214Y-9217500D01*
X16778214Y-9160357D01*
X16792500Y-9088929D01*
X16806786Y-9046072D01*
X16821071Y-9017500D01*
X16849643Y-8974643D01*
X16863928Y-8960357D01*
X17135357Y-9303214D02*
X16963928Y-9303214D01*
X17049643Y-9303214D02*
X17049643Y-9003214D01*
X17021071Y-9046072D01*
X16992500Y-9074643D01*
X16963928Y-9088929D01*
X17421071Y-9303214D02*
X17249643Y-9303214D01*
X17335357Y-9303214D02*
X17335357Y-9003214D01*
X17306786Y-9046072D01*
X17278214Y-9074643D01*
X17249643Y-9088929D01*
X17778214Y-9303214D02*
X17778214Y-9003214D01*
X17906786Y-9303214D02*
X17906786Y-9146072D01*
X17892500Y-9117500D01*
X17863928Y-9103214D01*
X17821071Y-9103214D01*
X17792500Y-9117500D01*
X17778214Y-9131786D01*
X18092500Y-9303214D02*
X18063928Y-9288929D01*
X18049643Y-9274643D01*
X18035357Y-9246072D01*
X18035357Y-9160357D01*
X18049643Y-9131786D01*
X18063928Y-9117500D01*
X18092500Y-9103214D01*
X18135357Y-9103214D01*
X18163928Y-9117500D01*
X18178214Y-9131786D01*
X18192500Y-9160357D01*
X18192500Y-9246072D01*
X18178214Y-9274643D01*
X18163928Y-9288929D01*
X18135357Y-9303214D01*
X18092500Y-9303214D01*
X18363928Y-9303214D02*
X18335357Y-9288929D01*
X18321071Y-9260357D01*
X18321071Y-9003214D01*
X18592500Y-9288929D02*
X18563929Y-9303214D01*
X18506786Y-9303214D01*
X18478214Y-9288929D01*
X18463929Y-9260357D01*
X18463929Y-9146072D01*
X18478214Y-9117500D01*
X18506786Y-9103214D01*
X18563929Y-9103214D01*
X18592500Y-9117500D01*
X18606786Y-9146072D01*
X18606786Y-9174643D01*
X18463929Y-9203214D01*
X18721071Y-9288929D02*
X18749643Y-9303214D01*
X18806786Y-9303214D01*
X18835357Y-9288929D01*
X18849643Y-9260357D01*
X18849643Y-9246072D01*
X18835357Y-9217500D01*
X18806786Y-9203214D01*
X18763929Y-9203214D01*
X18735357Y-9188929D01*
X18721071Y-9160357D01*
X18721071Y-9146072D01*
X18735357Y-9117500D01*
X18763929Y-9103214D01*
X18806786Y-9103214D01*
X18835357Y-9117500D01*
X18949643Y-9417500D02*
X18963929Y-9403214D01*
X18992500Y-9360357D01*
X19006786Y-9331786D01*
X19021071Y-9288929D01*
X19035357Y-9217500D01*
X19035357Y-9160357D01*
X19021071Y-9088929D01*
X19006786Y-9046072D01*
X18992500Y-9017500D01*
X18963929Y-8974643D01*
X18949643Y-8960357D01*
X12192500Y-9563500D02*
G75*
G03X12192500Y-9563500I-50000J0D01*
G01*
X12621071Y-9699214D02*
X12449643Y-9699214D01*
X12535357Y-9699214D02*
X12535357Y-9399214D01*
X12506786Y-9442072D01*
X12478214Y-9470643D01*
X12449643Y-9484929D01*
X12749643Y-9670643D02*
X12763928Y-9684929D01*
X12749643Y-9699214D01*
X12735357Y-9684929D01*
X12749643Y-9670643D01*
X12749643Y-9699214D01*
X12949643Y-9399214D02*
X12978214Y-9399214D01*
X13006786Y-9413500D01*
X13021071Y-9427786D01*
X13035357Y-9456357D01*
X13049643Y-9513500D01*
X13049643Y-9584929D01*
X13035357Y-9642072D01*
X13021071Y-9670643D01*
X13006786Y-9684929D01*
X12978214Y-9699214D01*
X12949643Y-9699214D01*
X12921071Y-9684929D01*
X12906786Y-9670643D01*
X12892500Y-9642072D01*
X12878214Y-9584929D01*
X12878214Y-9513500D01*
X12892500Y-9456357D01*
X12906786Y-9427786D01*
X12921071Y-9413500D01*
X12949643Y-9399214D01*
X13235357Y-9399214D02*
X13263928Y-9399214D01*
X13292500Y-9413500D01*
X13306786Y-9427786D01*
X13321071Y-9456357D01*
X13335357Y-9513500D01*
X13335357Y-9584929D01*
X13321071Y-9642072D01*
X13306786Y-9670643D01*
X13292500Y-9684929D01*
X13263928Y-9699214D01*
X13235357Y-9699214D01*
X13206786Y-9684929D01*
X13192500Y-9670643D01*
X13178214Y-9642072D01*
X13163928Y-9584929D01*
X13163928Y-9513500D01*
X13178214Y-9456357D01*
X13192500Y-9427786D01*
X13206786Y-9413500D01*
X13235357Y-9399214D01*
X13463928Y-9699214D02*
X13463928Y-9499214D01*
X13463928Y-9527786D02*
X13478214Y-9513500D01*
X13506786Y-9499214D01*
X13549643Y-9499214D01*
X13578214Y-9513500D01*
X13592500Y-9542072D01*
X13592500Y-9699214D01*
X13592500Y-9542072D02*
X13606786Y-9513500D01*
X13635357Y-9499214D01*
X13678214Y-9499214D01*
X13706786Y-9513500D01*
X13721071Y-9542072D01*
X13721071Y-9699214D01*
X13863928Y-9699214D02*
X13863928Y-9499214D01*
X13863928Y-9527786D02*
X13878214Y-9513500D01*
X13906786Y-9499214D01*
X13949643Y-9499214D01*
X13978214Y-9513500D01*
X13992500Y-9542072D01*
X13992500Y-9699214D01*
X13992500Y-9542072D02*
X14006786Y-9513500D01*
X14035357Y-9499214D01*
X14078214Y-9499214D01*
X14106786Y-9513500D01*
X14121071Y-9542072D01*
X14121071Y-9699214D01*
X14706786Y-9384929D02*
X14449643Y-9770643D01*
X15092500Y-9399214D02*
X15121071Y-9399214D01*
X15149643Y-9413500D01*
X15163928Y-9427786D01*
X15178214Y-9456357D01*
X15192500Y-9513500D01*
X15192500Y-9584929D01*
X15178214Y-9642072D01*
X15163928Y-9670643D01*
X15149643Y-9684929D01*
X15121071Y-9699214D01*
X15092500Y-9699214D01*
X15063928Y-9684929D01*
X15049643Y-9670643D01*
X15035357Y-9642072D01*
X15021071Y-9584929D01*
X15021071Y-9513500D01*
X15035357Y-9456357D01*
X15049643Y-9427786D01*
X15063928Y-9413500D01*
X15092500Y-9399214D01*
X15321071Y-9670643D02*
X15335357Y-9684929D01*
X15321071Y-9699214D01*
X15306786Y-9684929D01*
X15321071Y-9670643D01*
X15321071Y-9699214D01*
X15521071Y-9399214D02*
X15549643Y-9399214D01*
X15578214Y-9413500D01*
X15592500Y-9427786D01*
X15606785Y-9456357D01*
X15621071Y-9513500D01*
X15621071Y-9584929D01*
X15606785Y-9642072D01*
X15592500Y-9670643D01*
X15578214Y-9684929D01*
X15549643Y-9699214D01*
X15521071Y-9699214D01*
X15492500Y-9684929D01*
X15478214Y-9670643D01*
X15463928Y-9642072D01*
X15449643Y-9584929D01*
X15449643Y-9513500D01*
X15463928Y-9456357D01*
X15478214Y-9427786D01*
X15492500Y-9413500D01*
X15521071Y-9399214D01*
X15721071Y-9399214D02*
X15906785Y-9399214D01*
X15806785Y-9513500D01*
X15849643Y-9513500D01*
X15878214Y-9527786D01*
X15892500Y-9542072D01*
X15906785Y-9570643D01*
X15906785Y-9642072D01*
X15892500Y-9670643D01*
X15878214Y-9684929D01*
X15849643Y-9699214D01*
X15763928Y-9699214D01*
X15735357Y-9684929D01*
X15721071Y-9670643D01*
X16049643Y-9699214D02*
X16106785Y-9699214D01*
X16135357Y-9684929D01*
X16149643Y-9670643D01*
X16178214Y-9627786D01*
X16192500Y-9570643D01*
X16192500Y-9456357D01*
X16178214Y-9427786D01*
X16163928Y-9413500D01*
X16135357Y-9399214D01*
X16078214Y-9399214D01*
X16049643Y-9413500D01*
X16035357Y-9427786D01*
X16021071Y-9456357D01*
X16021071Y-9527786D01*
X16035357Y-9556357D01*
X16049643Y-9570643D01*
X16078214Y-9584929D01*
X16135357Y-9584929D01*
X16163928Y-9570643D01*
X16178214Y-9556357D01*
X16192500Y-9527786D01*
X16306786Y-9399214D02*
X16306786Y-9456357D01*
X16421071Y-9399214D02*
X16421071Y-9456357D01*
X16863928Y-9813500D02*
X16849643Y-9799214D01*
X16821071Y-9756357D01*
X16806786Y-9727786D01*
X16792500Y-9684929D01*
X16778214Y-9613500D01*
X16778214Y-9556357D01*
X16792500Y-9484929D01*
X16806786Y-9442072D01*
X16821071Y-9413500D01*
X16849643Y-9370643D01*
X16863928Y-9356357D01*
X17106786Y-9399214D02*
X17049643Y-9399214D01*
X17021071Y-9413500D01*
X17006786Y-9427786D01*
X16978214Y-9470643D01*
X16963928Y-9527786D01*
X16963928Y-9642072D01*
X16978214Y-9670643D01*
X16992500Y-9684929D01*
X17021071Y-9699214D01*
X17078214Y-9699214D01*
X17106786Y-9684929D01*
X17121071Y-9670643D01*
X17135357Y-9642072D01*
X17135357Y-9570643D01*
X17121071Y-9542072D01*
X17106786Y-9527786D01*
X17078214Y-9513500D01*
X17021071Y-9513500D01*
X16992500Y-9527786D01*
X16978214Y-9542072D01*
X16963928Y-9570643D01*
X17492500Y-9699214D02*
X17492500Y-9399214D01*
X17621071Y-9699214D02*
X17621071Y-9542072D01*
X17606786Y-9513500D01*
X17578214Y-9499214D01*
X17535357Y-9499214D01*
X17506786Y-9513500D01*
X17492500Y-9527786D01*
X17806786Y-9699214D02*
X17778214Y-9684929D01*
X17763928Y-9670643D01*
X17749643Y-9642072D01*
X17749643Y-9556357D01*
X17763928Y-9527786D01*
X17778214Y-9513500D01*
X17806786Y-9499214D01*
X17849643Y-9499214D01*
X17878214Y-9513500D01*
X17892500Y-9527786D01*
X17906786Y-9556357D01*
X17906786Y-9642072D01*
X17892500Y-9670643D01*
X17878214Y-9684929D01*
X17849643Y-9699214D01*
X17806786Y-9699214D01*
X18078214Y-9699214D02*
X18049643Y-9684929D01*
X18035357Y-9656357D01*
X18035357Y-9399214D01*
X18306786Y-9684929D02*
X18278214Y-9699214D01*
X18221071Y-9699214D01*
X18192500Y-9684929D01*
X18178214Y-9656357D01*
X18178214Y-9542072D01*
X18192500Y-9513500D01*
X18221071Y-9499214D01*
X18278214Y-9499214D01*
X18306786Y-9513500D01*
X18321071Y-9542072D01*
X18321071Y-9570643D01*
X18178214Y-9599214D01*
X18435357Y-9684929D02*
X18463929Y-9699214D01*
X18521071Y-9699214D01*
X18549643Y-9684929D01*
X18563929Y-9656357D01*
X18563929Y-9642072D01*
X18549643Y-9613500D01*
X18521071Y-9599214D01*
X18478214Y-9599214D01*
X18449643Y-9584929D01*
X18435357Y-9556357D01*
X18435357Y-9542072D01*
X18449643Y-9513500D01*
X18478214Y-9499214D01*
X18521071Y-9499214D01*
X18549643Y-9513500D01*
X18663928Y-9813500D02*
X18678214Y-9799214D01*
X18706786Y-9756357D01*
X18721071Y-9727786D01*
X18735357Y-9684929D01*
X18749643Y-9613500D01*
X18749643Y-9556357D01*
X18735357Y-9484929D01*
X18721071Y-9442072D01*
X18706786Y-9413500D01*
X18678214Y-9370643D01*
X18663928Y-9356357D01*
M02*
