G04 #@! TF.FileFunction,Copper,L2,Bot,Signal*
%FSLAX46Y46*%
G04 Gerber Fmt 4.6, Leading zero omitted, Abs format (unit mm)*
G04 Created by KiCad (PCBNEW 4.0.7) date 03/28/18 16:17:30*
%MOMM*%
%LPD*%
G01*
G04 APERTURE LIST*
%ADD10C,0.100000*%
%ADD11R,1.700000X1.700000*%
%ADD12O,1.700000X1.700000*%
%ADD13C,1.000000*%
%ADD14C,0.600000*%
%ADD15C,0.250000*%
%ADD16C,0.254000*%
G04 APERTURE END LIST*
D10*
D11*
X165989000Y-65862200D03*
D12*
X168529000Y-65862200D03*
X165989000Y-68402200D03*
X168529000Y-68402200D03*
X165989000Y-70942200D03*
X168529000Y-70942200D03*
D13*
X187706000Y-72085200D03*
X171069000Y-65354200D03*
X171069000Y-67513200D03*
X170688000Y-69545200D03*
X170942000Y-70815200D03*
X176149000Y-71831200D03*
X176022000Y-66497200D03*
X180721000Y-64592200D03*
D14*
X168529000Y-65862200D02*
X169418000Y-65862200D01*
X169418000Y-65862200D02*
X171069000Y-67513200D01*
X171069000Y-67513200D02*
X170942000Y-67386200D01*
X169545000Y-68402200D02*
X168529000Y-68402200D01*
X170688000Y-69545200D02*
X169545000Y-68402200D01*
X170815000Y-70942200D02*
X168529000Y-70942200D01*
X170942000Y-70815200D02*
X170815000Y-70942200D01*
D15*
X165989000Y-65862200D02*
X165989000Y-66116200D01*
X165989000Y-66116200D02*
X167259000Y-67386200D01*
X167259000Y-67386200D02*
X167259000Y-71577200D01*
X167259000Y-71577200D02*
X168148000Y-72466200D01*
X168148000Y-72466200D02*
X175514000Y-72466200D01*
X175514000Y-72466200D02*
X176149000Y-71831200D01*
D14*
X176403000Y-66116200D02*
X176022000Y-66497200D01*
X178562000Y-66116200D02*
X176403000Y-66116200D01*
X179197000Y-66116200D02*
X178562000Y-66116200D01*
X180086000Y-66116200D02*
X179197000Y-66116200D01*
X180594000Y-65608200D02*
X180086000Y-66116200D01*
X180594000Y-64719200D02*
X180594000Y-65608200D01*
X180721000Y-64592200D02*
X180594000Y-64719200D01*
D16*
G36*
X179586197Y-64365444D02*
X179585803Y-64816975D01*
X179659000Y-64994125D01*
X179659000Y-65181200D01*
X176403000Y-65181200D01*
X176045191Y-65252373D01*
X175881008Y-65362076D01*
X175797225Y-65362003D01*
X175379914Y-65534433D01*
X175060355Y-65853435D01*
X174887197Y-66270444D01*
X174886803Y-66721975D01*
X175059233Y-67139286D01*
X175378235Y-67458845D01*
X175795244Y-67632003D01*
X176246775Y-67632397D01*
X176664086Y-67459967D01*
X176983645Y-67140965D01*
X177020919Y-67051200D01*
X180086000Y-67051200D01*
X180443809Y-66980027D01*
X180747145Y-66777345D01*
X181255142Y-66269347D01*
X181255145Y-66269345D01*
X181457827Y-65966009D01*
X181529000Y-65608200D01*
X181529000Y-65389342D01*
X181682645Y-65235965D01*
X181855803Y-64818956D01*
X181856197Y-64367425D01*
X181686695Y-63957200D01*
X188595000Y-63957200D01*
X188595000Y-72720200D01*
X176864982Y-72720200D01*
X177110645Y-72474965D01*
X177283803Y-72057956D01*
X177284197Y-71606425D01*
X177111767Y-71189114D01*
X176792765Y-70869555D01*
X176375756Y-70696397D01*
X175924225Y-70696003D01*
X175506914Y-70868433D01*
X175187355Y-71187435D01*
X175014197Y-71604444D01*
X175014108Y-71706200D01*
X171655978Y-71706200D01*
X171903645Y-71458965D01*
X172076803Y-71041956D01*
X172077197Y-70590425D01*
X171904767Y-70173114D01*
X171729240Y-69997280D01*
X171822803Y-69771956D01*
X171823197Y-69320425D01*
X171650767Y-68903114D01*
X171366498Y-68618348D01*
X171711086Y-68475967D01*
X172030645Y-68156965D01*
X172203803Y-67739956D01*
X172204197Y-67288425D01*
X172031767Y-66871114D01*
X171712765Y-66551555D01*
X171295756Y-66378397D01*
X171256453Y-66378363D01*
X170079145Y-65201055D01*
X169775809Y-64998373D01*
X169725953Y-64988456D01*
X169608147Y-64812146D01*
X169126378Y-64490239D01*
X168558093Y-64377200D01*
X168499907Y-64377200D01*
X167931622Y-64490239D01*
X167449853Y-64812146D01*
X167449029Y-64813379D01*
X167442162Y-64776883D01*
X167303090Y-64560759D01*
X167090890Y-64415769D01*
X166839000Y-64364760D01*
X165139000Y-64364760D01*
X164903683Y-64409038D01*
X164687559Y-64548110D01*
X164542569Y-64760310D01*
X164491560Y-65012200D01*
X164491560Y-66712200D01*
X164535838Y-66947517D01*
X164674910Y-67163641D01*
X164887110Y-67308631D01*
X164995107Y-67330501D01*
X164717355Y-67635276D01*
X164547524Y-68045310D01*
X164668845Y-68275200D01*
X165862000Y-68275200D01*
X165862000Y-68255200D01*
X166116000Y-68255200D01*
X166116000Y-68275200D01*
X166136000Y-68275200D01*
X166136000Y-68529200D01*
X166116000Y-68529200D01*
X166116000Y-70815200D01*
X166136000Y-70815200D01*
X166136000Y-71069200D01*
X166116000Y-71069200D01*
X166116000Y-72263019D01*
X166345892Y-72383686D01*
X166784638Y-72177640D01*
X167327198Y-72720200D01*
X163830000Y-72720200D01*
X163830000Y-71299090D01*
X164547524Y-71299090D01*
X164717355Y-71709124D01*
X165107642Y-72137383D01*
X165632108Y-72383686D01*
X165862000Y-72263019D01*
X165862000Y-71069200D01*
X164668845Y-71069200D01*
X164547524Y-71299090D01*
X163830000Y-71299090D01*
X163830000Y-68759090D01*
X164547524Y-68759090D01*
X164717355Y-69169124D01*
X165107642Y-69597383D01*
X165266954Y-69672200D01*
X165107642Y-69747017D01*
X164717355Y-70175276D01*
X164547524Y-70585310D01*
X164668845Y-70815200D01*
X165862000Y-70815200D01*
X165862000Y-68529200D01*
X164668845Y-68529200D01*
X164547524Y-68759090D01*
X163830000Y-68759090D01*
X163830000Y-63957200D01*
X179755715Y-63957200D01*
X179586197Y-64365444D01*
X179586197Y-64365444D01*
G37*
X179586197Y-64365444D02*
X179585803Y-64816975D01*
X179659000Y-64994125D01*
X179659000Y-65181200D01*
X176403000Y-65181200D01*
X176045191Y-65252373D01*
X175881008Y-65362076D01*
X175797225Y-65362003D01*
X175379914Y-65534433D01*
X175060355Y-65853435D01*
X174887197Y-66270444D01*
X174886803Y-66721975D01*
X175059233Y-67139286D01*
X175378235Y-67458845D01*
X175795244Y-67632003D01*
X176246775Y-67632397D01*
X176664086Y-67459967D01*
X176983645Y-67140965D01*
X177020919Y-67051200D01*
X180086000Y-67051200D01*
X180443809Y-66980027D01*
X180747145Y-66777345D01*
X181255142Y-66269347D01*
X181255145Y-66269345D01*
X181457827Y-65966009D01*
X181529000Y-65608200D01*
X181529000Y-65389342D01*
X181682645Y-65235965D01*
X181855803Y-64818956D01*
X181856197Y-64367425D01*
X181686695Y-63957200D01*
X188595000Y-63957200D01*
X188595000Y-72720200D01*
X176864982Y-72720200D01*
X177110645Y-72474965D01*
X177283803Y-72057956D01*
X177284197Y-71606425D01*
X177111767Y-71189114D01*
X176792765Y-70869555D01*
X176375756Y-70696397D01*
X175924225Y-70696003D01*
X175506914Y-70868433D01*
X175187355Y-71187435D01*
X175014197Y-71604444D01*
X175014108Y-71706200D01*
X171655978Y-71706200D01*
X171903645Y-71458965D01*
X172076803Y-71041956D01*
X172077197Y-70590425D01*
X171904767Y-70173114D01*
X171729240Y-69997280D01*
X171822803Y-69771956D01*
X171823197Y-69320425D01*
X171650767Y-68903114D01*
X171366498Y-68618348D01*
X171711086Y-68475967D01*
X172030645Y-68156965D01*
X172203803Y-67739956D01*
X172204197Y-67288425D01*
X172031767Y-66871114D01*
X171712765Y-66551555D01*
X171295756Y-66378397D01*
X171256453Y-66378363D01*
X170079145Y-65201055D01*
X169775809Y-64998373D01*
X169725953Y-64988456D01*
X169608147Y-64812146D01*
X169126378Y-64490239D01*
X168558093Y-64377200D01*
X168499907Y-64377200D01*
X167931622Y-64490239D01*
X167449853Y-64812146D01*
X167449029Y-64813379D01*
X167442162Y-64776883D01*
X167303090Y-64560759D01*
X167090890Y-64415769D01*
X166839000Y-64364760D01*
X165139000Y-64364760D01*
X164903683Y-64409038D01*
X164687559Y-64548110D01*
X164542569Y-64760310D01*
X164491560Y-65012200D01*
X164491560Y-66712200D01*
X164535838Y-66947517D01*
X164674910Y-67163641D01*
X164887110Y-67308631D01*
X164995107Y-67330501D01*
X164717355Y-67635276D01*
X164547524Y-68045310D01*
X164668845Y-68275200D01*
X165862000Y-68275200D01*
X165862000Y-68255200D01*
X166116000Y-68255200D01*
X166116000Y-68275200D01*
X166136000Y-68275200D01*
X166136000Y-68529200D01*
X166116000Y-68529200D01*
X166116000Y-70815200D01*
X166136000Y-70815200D01*
X166136000Y-71069200D01*
X166116000Y-71069200D01*
X166116000Y-72263019D01*
X166345892Y-72383686D01*
X166784638Y-72177640D01*
X167327198Y-72720200D01*
X163830000Y-72720200D01*
X163830000Y-71299090D01*
X164547524Y-71299090D01*
X164717355Y-71709124D01*
X165107642Y-72137383D01*
X165632108Y-72383686D01*
X165862000Y-72263019D01*
X165862000Y-71069200D01*
X164668845Y-71069200D01*
X164547524Y-71299090D01*
X163830000Y-71299090D01*
X163830000Y-68759090D01*
X164547524Y-68759090D01*
X164717355Y-69169124D01*
X165107642Y-69597383D01*
X165266954Y-69672200D01*
X165107642Y-69747017D01*
X164717355Y-70175276D01*
X164547524Y-70585310D01*
X164668845Y-70815200D01*
X165862000Y-70815200D01*
X165862000Y-68529200D01*
X164668845Y-68529200D01*
X164547524Y-68759090D01*
X163830000Y-68759090D01*
X163830000Y-63957200D01*
X179755715Y-63957200D01*
X179586197Y-64365444D01*
M02*
