G04 #@! TF.FileFunction,Other,Fab,Top*
%FSLAX46Y46*%
G04 Gerber Fmt 4.6, Leading zero omitted, Abs format (unit mm)*
G04 Created by KiCad (PCBNEW 4.0.7) date 03/28/18 16:17:30*
%MOMM*%
%LPD*%
G01*
G04 APERTURE LIST*
%ADD10C,0.100000*%
%ADD11C,0.200000*%
%ADD12C,0.300000*%
%ADD13C,0.150000*%
G04 APERTURE END LIST*
D10*
D11*
X188746000Y-63830200D02*
X163746000Y-63830200D01*
X163711000Y-63873000D02*
X163711000Y-72873000D01*
D12*
X195917429Y-65418057D02*
X195917429Y-65703772D01*
X195988857Y-65846629D01*
X196060286Y-65918057D01*
X196274571Y-66060915D01*
X196560286Y-66132343D01*
X197131714Y-66132343D01*
X197274571Y-66060915D01*
X197346000Y-65989486D01*
X197417429Y-65846629D01*
X197417429Y-65560915D01*
X197346000Y-65418057D01*
X197274571Y-65346629D01*
X197131714Y-65275200D01*
X196774571Y-65275200D01*
X196631714Y-65346629D01*
X196560286Y-65418057D01*
X196488857Y-65560915D01*
X196488857Y-65846629D01*
X196560286Y-65989486D01*
X196631714Y-66060915D01*
X196774571Y-66132343D01*
X195917429Y-67918057D02*
X196917429Y-67918057D01*
X196774571Y-67918057D02*
X196846000Y-67989485D01*
X196917429Y-68132343D01*
X196917429Y-68346628D01*
X196846000Y-68489485D01*
X196703143Y-68560914D01*
X195917429Y-68560914D01*
X196703143Y-68560914D02*
X196846000Y-68632343D01*
X196917429Y-68775200D01*
X196917429Y-68989485D01*
X196846000Y-69132343D01*
X196703143Y-69203771D01*
X195917429Y-69203771D01*
X195917429Y-69918057D02*
X196917429Y-69918057D01*
X196774571Y-69918057D02*
X196846000Y-69989485D01*
X196917429Y-70132343D01*
X196917429Y-70346628D01*
X196846000Y-70489485D01*
X196703143Y-70560914D01*
X195917429Y-70560914D01*
X196703143Y-70560914D02*
X196846000Y-70632343D01*
X196917429Y-70775200D01*
X196917429Y-70989485D01*
X196846000Y-71132343D01*
X196703143Y-71203771D01*
X195917429Y-71203771D01*
X192278000Y-63703200D02*
X192278000Y-72847200D01*
X190246000Y-63703200D02*
X194978000Y-63703200D01*
X190246000Y-72847200D02*
X194978000Y-72847200D01*
X192278000Y-72847200D02*
X191691579Y-71720696D01*
X192278000Y-72847200D02*
X192864421Y-71720696D01*
X192278000Y-63703200D02*
X191691579Y-64829704D01*
X192278000Y-63703200D02*
X192864421Y-64829704D01*
X172561715Y-77121629D02*
X172633144Y-77050200D01*
X172776001Y-76978771D01*
X173133144Y-76978771D01*
X173276001Y-77050200D01*
X173347430Y-77121629D01*
X173418858Y-77264486D01*
X173418858Y-77407343D01*
X173347430Y-77621629D01*
X172490287Y-78478771D01*
X173418858Y-78478771D01*
X174776001Y-76978771D02*
X174061715Y-76978771D01*
X173990286Y-77693057D01*
X174061715Y-77621629D01*
X174204572Y-77550200D01*
X174561715Y-77550200D01*
X174704572Y-77621629D01*
X174776001Y-77693057D01*
X174847429Y-77835914D01*
X174847429Y-78193057D01*
X174776001Y-78335914D01*
X174704572Y-78407343D01*
X174561715Y-78478771D01*
X174204572Y-78478771D01*
X174061715Y-78407343D01*
X173990286Y-78335914D01*
X176633143Y-78478771D02*
X176633143Y-77478771D01*
X176633143Y-77621629D02*
X176704571Y-77550200D01*
X176847429Y-77478771D01*
X177061714Y-77478771D01*
X177204571Y-77550200D01*
X177276000Y-77693057D01*
X177276000Y-78478771D01*
X177276000Y-77693057D02*
X177347429Y-77550200D01*
X177490286Y-77478771D01*
X177704571Y-77478771D01*
X177847429Y-77550200D01*
X177918857Y-77693057D01*
X177918857Y-78478771D01*
X178633143Y-78478771D02*
X178633143Y-77478771D01*
X178633143Y-77621629D02*
X178704571Y-77550200D01*
X178847429Y-77478771D01*
X179061714Y-77478771D01*
X179204571Y-77550200D01*
X179276000Y-77693057D01*
X179276000Y-78478771D01*
X179276000Y-77693057D02*
X179347429Y-77550200D01*
X179490286Y-77478771D01*
X179704571Y-77478771D01*
X179847429Y-77550200D01*
X179918857Y-77693057D01*
X179918857Y-78478771D01*
X163703000Y-75895200D02*
X188722000Y-75895200D01*
X163703000Y-73482200D02*
X163703000Y-78595200D01*
X188722000Y-73482200D02*
X188722000Y-78595200D01*
X188722000Y-75895200D02*
X187595496Y-76481621D01*
X188722000Y-75895200D02*
X187595496Y-75308779D01*
X163703000Y-75895200D02*
X164829504Y-76481621D01*
X163703000Y-75895200D02*
X164829504Y-75308779D01*
D11*
X188746000Y-72847200D02*
X163746000Y-72847200D01*
X188730000Y-63873000D02*
X188730000Y-72873000D01*
D10*
X174482000Y-64734200D02*
X174482000Y-65974200D01*
X172482000Y-64734200D02*
X174482000Y-64734200D01*
X172482000Y-65974200D02*
X172482000Y-64734200D01*
X174482000Y-65974200D02*
X172482000Y-65974200D01*
X174482000Y-66512200D02*
X174482000Y-67752200D01*
X172482000Y-66512200D02*
X174482000Y-66512200D01*
X172482000Y-67752200D02*
X172482000Y-66512200D01*
X174482000Y-67752200D02*
X172482000Y-67752200D01*
X185690000Y-65974200D02*
X185690000Y-64734200D01*
X187690000Y-65974200D02*
X185690000Y-65974200D01*
X187690000Y-64734200D02*
X187690000Y-65974200D01*
X185690000Y-64734200D02*
X187690000Y-64734200D01*
X185690000Y-67752200D02*
X185690000Y-66512200D01*
X187690000Y-67752200D02*
X185690000Y-67752200D01*
X187690000Y-66512200D02*
X187690000Y-67752200D01*
X185690000Y-66512200D02*
X187690000Y-66512200D01*
X172482000Y-72324200D02*
X172482000Y-71084200D01*
X174482000Y-72324200D02*
X172482000Y-72324200D01*
X174482000Y-71084200D02*
X174482000Y-72324200D01*
X172482000Y-71084200D02*
X174482000Y-71084200D01*
X187690000Y-68290200D02*
X187690000Y-69530200D01*
X185690000Y-68290200D02*
X187690000Y-68290200D01*
X185690000Y-69530200D02*
X185690000Y-68290200D01*
X187690000Y-69530200D02*
X185690000Y-69530200D01*
X187690000Y-70068200D02*
X187690000Y-71308200D01*
X185690000Y-70068200D02*
X187690000Y-70068200D01*
X185690000Y-71308200D02*
X185690000Y-70068200D01*
X187690000Y-71308200D02*
X185690000Y-71308200D01*
X165989000Y-64592200D02*
X169799000Y-64592200D01*
X169799000Y-64592200D02*
X169799000Y-72212200D01*
X169799000Y-72212200D02*
X164719000Y-72212200D01*
X164719000Y-72212200D02*
X164719000Y-65862200D01*
X164719000Y-65862200D02*
X165989000Y-64592200D01*
D13*
X173315334Y-65711343D02*
X173267715Y-65758962D01*
X173124858Y-65806581D01*
X173029620Y-65806581D01*
X172886762Y-65758962D01*
X172791524Y-65663724D01*
X172743905Y-65568486D01*
X172696286Y-65378010D01*
X172696286Y-65235152D01*
X172743905Y-65044676D01*
X172791524Y-64949438D01*
X172886762Y-64854200D01*
X173029620Y-64806581D01*
X173124858Y-64806581D01*
X173267715Y-64854200D01*
X173315334Y-64901819D01*
X174172477Y-65139914D02*
X174172477Y-65806581D01*
X173934381Y-64758962D02*
X173696286Y-65473248D01*
X174315334Y-65473248D01*
X173188334Y-67489343D02*
X173140715Y-67536962D01*
X172997858Y-67584581D01*
X172902620Y-67584581D01*
X172759762Y-67536962D01*
X172664524Y-67441724D01*
X172616905Y-67346486D01*
X172569286Y-67156010D01*
X172569286Y-67013152D01*
X172616905Y-66822676D01*
X172664524Y-66727438D01*
X172759762Y-66632200D01*
X172902620Y-66584581D01*
X172997858Y-66584581D01*
X173140715Y-66632200D01*
X173188334Y-66679819D01*
X173569286Y-66679819D02*
X173616905Y-66632200D01*
X173712143Y-66584581D01*
X173950239Y-66584581D01*
X174045477Y-66632200D01*
X174093096Y-66679819D01*
X174140715Y-66775057D01*
X174140715Y-66870295D01*
X174093096Y-67013152D01*
X173521667Y-67584581D01*
X174140715Y-67584581D01*
X186523334Y-65711343D02*
X186475715Y-65758962D01*
X186332858Y-65806581D01*
X186237620Y-65806581D01*
X186094762Y-65758962D01*
X185999524Y-65663724D01*
X185951905Y-65568486D01*
X185904286Y-65378010D01*
X185904286Y-65235152D01*
X185951905Y-65044676D01*
X185999524Y-64949438D01*
X186094762Y-64854200D01*
X186237620Y-64806581D01*
X186332858Y-64806581D01*
X186475715Y-64854200D01*
X186523334Y-64901819D01*
X186856667Y-64806581D02*
X187475715Y-64806581D01*
X187142381Y-65187533D01*
X187285239Y-65187533D01*
X187380477Y-65235152D01*
X187428096Y-65282771D01*
X187475715Y-65378010D01*
X187475715Y-65616105D01*
X187428096Y-65711343D01*
X187380477Y-65758962D01*
X187285239Y-65806581D01*
X186999524Y-65806581D01*
X186904286Y-65758962D01*
X186856667Y-65711343D01*
X186523334Y-67489343D02*
X186475715Y-67536962D01*
X186332858Y-67584581D01*
X186237620Y-67584581D01*
X186094762Y-67536962D01*
X185999524Y-67441724D01*
X185951905Y-67346486D01*
X185904286Y-67156010D01*
X185904286Y-67013152D01*
X185951905Y-66822676D01*
X185999524Y-66727438D01*
X186094762Y-66632200D01*
X186237620Y-66584581D01*
X186332858Y-66584581D01*
X186475715Y-66632200D01*
X186523334Y-66679819D01*
X187428096Y-66584581D02*
X186951905Y-66584581D01*
X186904286Y-67060771D01*
X186951905Y-67013152D01*
X187047143Y-66965533D01*
X187285239Y-66965533D01*
X187380477Y-67013152D01*
X187428096Y-67060771D01*
X187475715Y-67156010D01*
X187475715Y-67394105D01*
X187428096Y-67489343D01*
X187380477Y-67536962D01*
X187285239Y-67584581D01*
X187047143Y-67584581D01*
X186951905Y-67536962D01*
X186904286Y-67489343D01*
X173315334Y-72061343D02*
X173267715Y-72108962D01*
X173124858Y-72156581D01*
X173029620Y-72156581D01*
X172886762Y-72108962D01*
X172791524Y-72013724D01*
X172743905Y-71918486D01*
X172696286Y-71728010D01*
X172696286Y-71585152D01*
X172743905Y-71394676D01*
X172791524Y-71299438D01*
X172886762Y-71204200D01*
X173029620Y-71156581D01*
X173124858Y-71156581D01*
X173267715Y-71204200D01*
X173315334Y-71251819D01*
X174172477Y-71156581D02*
X173982000Y-71156581D01*
X173886762Y-71204200D01*
X173839143Y-71251819D01*
X173743905Y-71394676D01*
X173696286Y-71585152D01*
X173696286Y-71966105D01*
X173743905Y-72061343D01*
X173791524Y-72108962D01*
X173886762Y-72156581D01*
X174077239Y-72156581D01*
X174172477Y-72108962D01*
X174220096Y-72061343D01*
X174267715Y-71966105D01*
X174267715Y-71728010D01*
X174220096Y-71632771D01*
X174172477Y-71585152D01*
X174077239Y-71537533D01*
X173886762Y-71537533D01*
X173791524Y-71585152D01*
X173743905Y-71632771D01*
X173696286Y-71728010D01*
X186523334Y-69267343D02*
X186475715Y-69314962D01*
X186332858Y-69362581D01*
X186237620Y-69362581D01*
X186094762Y-69314962D01*
X185999524Y-69219724D01*
X185951905Y-69124486D01*
X185904286Y-68934010D01*
X185904286Y-68791152D01*
X185951905Y-68600676D01*
X185999524Y-68505438D01*
X186094762Y-68410200D01*
X186237620Y-68362581D01*
X186332858Y-68362581D01*
X186475715Y-68410200D01*
X186523334Y-68457819D01*
X187094762Y-68791152D02*
X186999524Y-68743533D01*
X186951905Y-68695914D01*
X186904286Y-68600676D01*
X186904286Y-68553057D01*
X186951905Y-68457819D01*
X186999524Y-68410200D01*
X187094762Y-68362581D01*
X187285239Y-68362581D01*
X187380477Y-68410200D01*
X187428096Y-68457819D01*
X187475715Y-68553057D01*
X187475715Y-68600676D01*
X187428096Y-68695914D01*
X187380477Y-68743533D01*
X187285239Y-68791152D01*
X187094762Y-68791152D01*
X186999524Y-68838771D01*
X186951905Y-68886390D01*
X186904286Y-68981629D01*
X186904286Y-69172105D01*
X186951905Y-69267343D01*
X186999524Y-69314962D01*
X187094762Y-69362581D01*
X187285239Y-69362581D01*
X187380477Y-69314962D01*
X187428096Y-69267343D01*
X187475715Y-69172105D01*
X187475715Y-68981629D01*
X187428096Y-68886390D01*
X187380477Y-68838771D01*
X187285239Y-68791152D01*
X186523334Y-71045343D02*
X186475715Y-71092962D01*
X186332858Y-71140581D01*
X186237620Y-71140581D01*
X186094762Y-71092962D01*
X185999524Y-70997724D01*
X185951905Y-70902486D01*
X185904286Y-70712010D01*
X185904286Y-70569152D01*
X185951905Y-70378676D01*
X185999524Y-70283438D01*
X186094762Y-70188200D01*
X186237620Y-70140581D01*
X186332858Y-70140581D01*
X186475715Y-70188200D01*
X186523334Y-70235819D01*
X186999524Y-71140581D02*
X187190000Y-71140581D01*
X187285239Y-71092962D01*
X187332858Y-71045343D01*
X187428096Y-70902486D01*
X187475715Y-70712010D01*
X187475715Y-70331057D01*
X187428096Y-70235819D01*
X187380477Y-70188200D01*
X187285239Y-70140581D01*
X187094762Y-70140581D01*
X186999524Y-70188200D01*
X186951905Y-70235819D01*
X186904286Y-70331057D01*
X186904286Y-70569152D01*
X186951905Y-70664390D01*
X186999524Y-70712010D01*
X187094762Y-70759629D01*
X187285239Y-70759629D01*
X187380477Y-70712010D01*
X187428096Y-70664390D01*
X187475715Y-70569152D01*
X166671667Y-62012581D02*
X166671667Y-62726867D01*
X166624047Y-62869724D01*
X166528809Y-62964962D01*
X166385952Y-63012581D01*
X166290714Y-63012581D01*
X167671667Y-63012581D02*
X167100238Y-63012581D01*
X167385952Y-63012581D02*
X167385952Y-62012581D01*
X167290714Y-62155438D01*
X167195476Y-62250676D01*
X167100238Y-62298295D01*
M02*
