%FSLAX45Y45*%
G04 Gerber Fmt 4.5, Leading zero omitted, Abs format (unit mm)*
G04 Created by KiCad (PCBNEW 4.0.7) date 11/06/18 10:36:49*
%MOMM*%
%LPD*%
G01*
G04 APERTURE LIST*
%ADD10C,0.127000*%
%ADD11C,0.150000*%
%ADD12C,0.200000*%
%ADD13C,0.300000*%
G04 APERTURE END LIST*
D10*
D11*
X12700000Y-9900000D02*
X12700000Y-9000000D01*
X15200000Y-9900000D02*
X12700000Y-9900000D01*
X15200000Y-9000000D02*
X15200000Y-9900000D01*
X12700000Y-9000000D02*
X15200000Y-9000000D01*
D12*
X13270000Y-9020000D02*
X13330000Y-9080000D01*
X13330000Y-9020000D02*
X13270000Y-9080000D01*
X13290000Y-9800000D02*
X13350000Y-9860000D01*
X13350000Y-9800000D02*
X13290000Y-9860000D01*
X13770000Y-9020000D02*
X13830000Y-9080000D01*
X13830000Y-9020000D02*
X13770000Y-9080000D01*
X13965000Y-9800000D02*
X14025000Y-9860000D01*
X14025000Y-9800000D02*
X13965000Y-9860000D01*
X14450000Y-9040000D02*
X14510000Y-9100000D01*
X14510000Y-9040000D02*
X14450000Y-9100000D01*
X14560000Y-9800000D02*
X14620000Y-9860000D01*
X14620000Y-9800000D02*
X14560000Y-9860000D01*
X15090000Y-9050000D02*
X15150000Y-9110000D01*
X15150000Y-9050000D02*
X15090000Y-9110000D01*
X15090000Y-9400000D02*
X15150000Y-9460000D01*
X15150000Y-9400000D02*
X15090000Y-9460000D01*
X15090000Y-9800000D02*
X15150000Y-9860000D01*
X15150000Y-9800000D02*
X15090000Y-9860000D01*
X12910000Y-9195000D02*
G75*
G03X12910000Y-9195000I-50000J0D01*
G01*
X12910000Y-9449000D02*
G75*
G03X12910000Y-9449000I-50000J0D01*
G01*
X12910000Y-9703000D02*
G75*
G03X12910000Y-9703000I-50000J0D01*
G01*
X13164000Y-9195000D02*
G75*
G03X13164000Y-9195000I-50000J0D01*
G01*
X13164000Y-9449000D02*
G75*
G03X13164000Y-9449000I-50000J0D01*
G01*
X13164000Y-9703000D02*
G75*
G03X13164000Y-9703000I-50000J0D01*
G01*
D13*
X12963928Y-10373214D02*
X12963928Y-10073214D01*
X13035357Y-10073214D01*
X13078214Y-10087500D01*
X13106786Y-10116072D01*
X13121071Y-10144643D01*
X13135357Y-10201786D01*
X13135357Y-10244643D01*
X13121071Y-10301786D01*
X13106786Y-10330357D01*
X13078214Y-10358929D01*
X13035357Y-10373214D01*
X12963928Y-10373214D01*
X13263928Y-10373214D02*
X13263928Y-10173214D01*
X13263928Y-10230357D02*
X13278214Y-10201786D01*
X13292500Y-10187500D01*
X13321071Y-10173214D01*
X13349643Y-10173214D01*
X13449643Y-10373214D02*
X13449643Y-10173214D01*
X13449643Y-10073214D02*
X13435357Y-10087500D01*
X13449643Y-10101786D01*
X13463928Y-10087500D01*
X13449643Y-10073214D01*
X13449643Y-10101786D01*
X13635357Y-10373214D02*
X13606786Y-10358929D01*
X13592500Y-10330357D01*
X13592500Y-10073214D01*
X13792500Y-10373214D02*
X13763928Y-10358929D01*
X13749643Y-10330357D01*
X13749643Y-10073214D01*
X14135357Y-10373214D02*
X14135357Y-10073214D01*
X14235357Y-10287500D01*
X14335357Y-10073214D01*
X14335357Y-10373214D01*
X14606786Y-10373214D02*
X14606786Y-10216072D01*
X14592500Y-10187500D01*
X14563928Y-10173214D01*
X14506786Y-10173214D01*
X14478214Y-10187500D01*
X14606786Y-10358929D02*
X14578214Y-10373214D01*
X14506786Y-10373214D01*
X14478214Y-10358929D01*
X14463928Y-10330357D01*
X14463928Y-10301786D01*
X14478214Y-10273214D01*
X14506786Y-10258929D01*
X14578214Y-10258929D01*
X14606786Y-10244643D01*
X14749643Y-10173214D02*
X14749643Y-10473214D01*
X14749643Y-10187500D02*
X14778214Y-10173214D01*
X14835357Y-10173214D01*
X14863928Y-10187500D01*
X14878214Y-10201786D01*
X14892500Y-10230357D01*
X14892500Y-10316072D01*
X14878214Y-10344643D01*
X14863928Y-10358929D01*
X14835357Y-10373214D01*
X14778214Y-10373214D01*
X14749643Y-10358929D01*
X15021071Y-10344643D02*
X15035357Y-10358929D01*
X15021071Y-10373214D01*
X15006786Y-10358929D01*
X15021071Y-10344643D01*
X15021071Y-10373214D01*
X15021071Y-10187500D02*
X15035357Y-10201786D01*
X15021071Y-10216072D01*
X15006786Y-10201786D01*
X15021071Y-10187500D01*
X15021071Y-10216072D01*
X12632500Y-10837500D02*
X12692500Y-10897500D01*
X12692500Y-10837500D02*
X12632500Y-10897500D01*
X13021071Y-10703214D02*
X13049643Y-10703214D01*
X13078214Y-10717500D01*
X13092500Y-10731786D01*
X13106786Y-10760357D01*
X13121071Y-10817500D01*
X13121071Y-10888929D01*
X13106786Y-10946072D01*
X13092500Y-10974643D01*
X13078214Y-10988929D01*
X13049643Y-11003214D01*
X13021071Y-11003214D01*
X12992500Y-10988929D01*
X12978214Y-10974643D01*
X12963928Y-10946072D01*
X12949643Y-10888929D01*
X12949643Y-10817500D01*
X12963928Y-10760357D01*
X12978214Y-10731786D01*
X12992500Y-10717500D01*
X13021071Y-10703214D01*
X13249643Y-10974643D02*
X13263928Y-10988929D01*
X13249643Y-11003214D01*
X13235357Y-10988929D01*
X13249643Y-10974643D01*
X13249643Y-11003214D01*
X13521071Y-10703214D02*
X13463928Y-10703214D01*
X13435357Y-10717500D01*
X13421071Y-10731786D01*
X13392500Y-10774643D01*
X13378214Y-10831786D01*
X13378214Y-10946072D01*
X13392500Y-10974643D01*
X13406786Y-10988929D01*
X13435357Y-11003214D01*
X13492500Y-11003214D01*
X13521071Y-10988929D01*
X13535357Y-10974643D01*
X13549643Y-10946072D01*
X13549643Y-10874643D01*
X13535357Y-10846072D01*
X13521071Y-10831786D01*
X13492500Y-10817500D01*
X13435357Y-10817500D01*
X13406786Y-10831786D01*
X13392500Y-10846072D01*
X13378214Y-10874643D01*
X13735357Y-10703214D02*
X13763928Y-10703214D01*
X13792500Y-10717500D01*
X13806786Y-10731786D01*
X13821071Y-10760357D01*
X13835357Y-10817500D01*
X13835357Y-10888929D01*
X13821071Y-10946072D01*
X13806786Y-10974643D01*
X13792500Y-10988929D01*
X13763928Y-11003214D01*
X13735357Y-11003214D01*
X13706786Y-10988929D01*
X13692500Y-10974643D01*
X13678214Y-10946072D01*
X13663928Y-10888929D01*
X13663928Y-10817500D01*
X13678214Y-10760357D01*
X13692500Y-10731786D01*
X13706786Y-10717500D01*
X13735357Y-10703214D01*
X13963928Y-11003214D02*
X13963928Y-10803214D01*
X13963928Y-10831786D02*
X13978214Y-10817500D01*
X14006786Y-10803214D01*
X14049643Y-10803214D01*
X14078214Y-10817500D01*
X14092500Y-10846072D01*
X14092500Y-11003214D01*
X14092500Y-10846072D02*
X14106786Y-10817500D01*
X14135357Y-10803214D01*
X14178214Y-10803214D01*
X14206786Y-10817500D01*
X14221071Y-10846072D01*
X14221071Y-11003214D01*
X14363928Y-11003214D02*
X14363928Y-10803214D01*
X14363928Y-10831786D02*
X14378214Y-10817500D01*
X14406786Y-10803214D01*
X14449643Y-10803214D01*
X14478214Y-10817500D01*
X14492500Y-10846072D01*
X14492500Y-11003214D01*
X14492500Y-10846072D02*
X14506786Y-10817500D01*
X14535357Y-10803214D01*
X14578214Y-10803214D01*
X14606786Y-10817500D01*
X14621071Y-10846072D01*
X14621071Y-11003214D01*
X15206786Y-10688929D02*
X14949643Y-11074643D01*
X15592500Y-10703214D02*
X15621071Y-10703214D01*
X15649643Y-10717500D01*
X15663928Y-10731786D01*
X15678214Y-10760357D01*
X15692500Y-10817500D01*
X15692500Y-10888929D01*
X15678214Y-10946072D01*
X15663928Y-10974643D01*
X15649643Y-10988929D01*
X15621071Y-11003214D01*
X15592500Y-11003214D01*
X15563928Y-10988929D01*
X15549643Y-10974643D01*
X15535357Y-10946072D01*
X15521071Y-10888929D01*
X15521071Y-10817500D01*
X15535357Y-10760357D01*
X15549643Y-10731786D01*
X15563928Y-10717500D01*
X15592500Y-10703214D01*
X15821071Y-10974643D02*
X15835357Y-10988929D01*
X15821071Y-11003214D01*
X15806786Y-10988929D01*
X15821071Y-10974643D01*
X15821071Y-11003214D01*
X16021071Y-10703214D02*
X16049643Y-10703214D01*
X16078214Y-10717500D01*
X16092500Y-10731786D01*
X16106785Y-10760357D01*
X16121071Y-10817500D01*
X16121071Y-10888929D01*
X16106785Y-10946072D01*
X16092500Y-10974643D01*
X16078214Y-10988929D01*
X16049643Y-11003214D01*
X16021071Y-11003214D01*
X15992500Y-10988929D01*
X15978214Y-10974643D01*
X15963928Y-10946072D01*
X15949643Y-10888929D01*
X15949643Y-10817500D01*
X15963928Y-10760357D01*
X15978214Y-10731786D01*
X15992500Y-10717500D01*
X16021071Y-10703214D01*
X16235357Y-10731786D02*
X16249643Y-10717500D01*
X16278214Y-10703214D01*
X16349643Y-10703214D01*
X16378214Y-10717500D01*
X16392500Y-10731786D01*
X16406785Y-10760357D01*
X16406785Y-10788929D01*
X16392500Y-10831786D01*
X16221071Y-11003214D01*
X16406785Y-11003214D01*
X16663928Y-10803214D02*
X16663928Y-11003214D01*
X16592500Y-10688929D02*
X16521071Y-10903214D01*
X16706785Y-10903214D01*
X16806786Y-10703214D02*
X16806786Y-10760357D01*
X16921071Y-10703214D02*
X16921071Y-10760357D01*
X17363928Y-11117500D02*
X17349643Y-11103214D01*
X17321071Y-11060357D01*
X17306786Y-11031786D01*
X17292500Y-10988929D01*
X17278214Y-10917500D01*
X17278214Y-10860357D01*
X17292500Y-10788929D01*
X17306786Y-10746072D01*
X17321071Y-10717500D01*
X17349643Y-10674643D01*
X17363928Y-10660357D01*
X17492500Y-11003214D02*
X17549643Y-11003214D01*
X17578214Y-10988929D01*
X17592500Y-10974643D01*
X17621071Y-10931786D01*
X17635357Y-10874643D01*
X17635357Y-10760357D01*
X17621071Y-10731786D01*
X17606786Y-10717500D01*
X17578214Y-10703214D01*
X17521071Y-10703214D01*
X17492500Y-10717500D01*
X17478214Y-10731786D01*
X17463928Y-10760357D01*
X17463928Y-10831786D01*
X17478214Y-10860357D01*
X17492500Y-10874643D01*
X17521071Y-10888929D01*
X17578214Y-10888929D01*
X17606786Y-10874643D01*
X17621071Y-10860357D01*
X17635357Y-10831786D01*
X17992500Y-11003214D02*
X17992500Y-10703214D01*
X18121071Y-11003214D02*
X18121071Y-10846072D01*
X18106786Y-10817500D01*
X18078214Y-10803214D01*
X18035357Y-10803214D01*
X18006786Y-10817500D01*
X17992500Y-10831786D01*
X18306786Y-11003214D02*
X18278214Y-10988929D01*
X18263928Y-10974643D01*
X18249643Y-10946072D01*
X18249643Y-10860357D01*
X18263928Y-10831786D01*
X18278214Y-10817500D01*
X18306786Y-10803214D01*
X18349643Y-10803214D01*
X18378214Y-10817500D01*
X18392500Y-10831786D01*
X18406786Y-10860357D01*
X18406786Y-10946072D01*
X18392500Y-10974643D01*
X18378214Y-10988929D01*
X18349643Y-11003214D01*
X18306786Y-11003214D01*
X18578214Y-11003214D02*
X18549643Y-10988929D01*
X18535357Y-10960357D01*
X18535357Y-10703214D01*
X18806786Y-10988929D02*
X18778214Y-11003214D01*
X18721071Y-11003214D01*
X18692500Y-10988929D01*
X18678214Y-10960357D01*
X18678214Y-10846072D01*
X18692500Y-10817500D01*
X18721071Y-10803214D01*
X18778214Y-10803214D01*
X18806786Y-10817500D01*
X18821071Y-10846072D01*
X18821071Y-10874643D01*
X18678214Y-10903214D01*
X18935357Y-10988929D02*
X18963929Y-11003214D01*
X19021071Y-11003214D01*
X19049643Y-10988929D01*
X19063929Y-10960357D01*
X19063929Y-10946072D01*
X19049643Y-10917500D01*
X19021071Y-10903214D01*
X18978214Y-10903214D01*
X18949643Y-10888929D01*
X18935357Y-10860357D01*
X18935357Y-10846072D01*
X18949643Y-10817500D01*
X18978214Y-10803214D01*
X19021071Y-10803214D01*
X19049643Y-10817500D01*
X19163928Y-11117500D02*
X19178214Y-11103214D01*
X19206786Y-11060357D01*
X19221071Y-11031786D01*
X19235357Y-10988929D01*
X19249643Y-10917500D01*
X19249643Y-10860357D01*
X19235357Y-10788929D01*
X19221071Y-10746072D01*
X19206786Y-10717500D01*
X19178214Y-10674643D01*
X19163928Y-10660357D01*
X12692500Y-11263500D02*
G75*
G03X12692500Y-11263500I-50000J0D01*
G01*
X13121071Y-11399214D02*
X12949643Y-11399214D01*
X13035357Y-11399214D02*
X13035357Y-11099214D01*
X13006786Y-11142072D01*
X12978214Y-11170643D01*
X12949643Y-11184929D01*
X13249643Y-11370643D02*
X13263928Y-11384929D01*
X13249643Y-11399214D01*
X13235357Y-11384929D01*
X13249643Y-11370643D01*
X13249643Y-11399214D01*
X13449643Y-11099214D02*
X13478214Y-11099214D01*
X13506786Y-11113500D01*
X13521071Y-11127786D01*
X13535357Y-11156357D01*
X13549643Y-11213500D01*
X13549643Y-11284929D01*
X13535357Y-11342071D01*
X13521071Y-11370643D01*
X13506786Y-11384929D01*
X13478214Y-11399214D01*
X13449643Y-11399214D01*
X13421071Y-11384929D01*
X13406786Y-11370643D01*
X13392500Y-11342071D01*
X13378214Y-11284929D01*
X13378214Y-11213500D01*
X13392500Y-11156357D01*
X13406786Y-11127786D01*
X13421071Y-11113500D01*
X13449643Y-11099214D01*
X13735357Y-11099214D02*
X13763928Y-11099214D01*
X13792500Y-11113500D01*
X13806786Y-11127786D01*
X13821071Y-11156357D01*
X13835357Y-11213500D01*
X13835357Y-11284929D01*
X13821071Y-11342071D01*
X13806786Y-11370643D01*
X13792500Y-11384929D01*
X13763928Y-11399214D01*
X13735357Y-11399214D01*
X13706786Y-11384929D01*
X13692500Y-11370643D01*
X13678214Y-11342071D01*
X13663928Y-11284929D01*
X13663928Y-11213500D01*
X13678214Y-11156357D01*
X13692500Y-11127786D01*
X13706786Y-11113500D01*
X13735357Y-11099214D01*
X13963928Y-11399214D02*
X13963928Y-11199214D01*
X13963928Y-11227786D02*
X13978214Y-11213500D01*
X14006786Y-11199214D01*
X14049643Y-11199214D01*
X14078214Y-11213500D01*
X14092500Y-11242071D01*
X14092500Y-11399214D01*
X14092500Y-11242071D02*
X14106786Y-11213500D01*
X14135357Y-11199214D01*
X14178214Y-11199214D01*
X14206786Y-11213500D01*
X14221071Y-11242071D01*
X14221071Y-11399214D01*
X14363928Y-11399214D02*
X14363928Y-11199214D01*
X14363928Y-11227786D02*
X14378214Y-11213500D01*
X14406786Y-11199214D01*
X14449643Y-11199214D01*
X14478214Y-11213500D01*
X14492500Y-11242071D01*
X14492500Y-11399214D01*
X14492500Y-11242071D02*
X14506786Y-11213500D01*
X14535357Y-11199214D01*
X14578214Y-11199214D01*
X14606786Y-11213500D01*
X14621071Y-11242071D01*
X14621071Y-11399214D01*
X15206786Y-11084929D02*
X14949643Y-11470643D01*
X15592500Y-11099214D02*
X15621071Y-11099214D01*
X15649643Y-11113500D01*
X15663928Y-11127786D01*
X15678214Y-11156357D01*
X15692500Y-11213500D01*
X15692500Y-11284929D01*
X15678214Y-11342071D01*
X15663928Y-11370643D01*
X15649643Y-11384929D01*
X15621071Y-11399214D01*
X15592500Y-11399214D01*
X15563928Y-11384929D01*
X15549643Y-11370643D01*
X15535357Y-11342071D01*
X15521071Y-11284929D01*
X15521071Y-11213500D01*
X15535357Y-11156357D01*
X15549643Y-11127786D01*
X15563928Y-11113500D01*
X15592500Y-11099214D01*
X15821071Y-11370643D02*
X15835357Y-11384929D01*
X15821071Y-11399214D01*
X15806786Y-11384929D01*
X15821071Y-11370643D01*
X15821071Y-11399214D01*
X16021071Y-11099214D02*
X16049643Y-11099214D01*
X16078214Y-11113500D01*
X16092500Y-11127786D01*
X16106785Y-11156357D01*
X16121071Y-11213500D01*
X16121071Y-11284929D01*
X16106785Y-11342071D01*
X16092500Y-11370643D01*
X16078214Y-11384929D01*
X16049643Y-11399214D01*
X16021071Y-11399214D01*
X15992500Y-11384929D01*
X15978214Y-11370643D01*
X15963928Y-11342071D01*
X15949643Y-11284929D01*
X15949643Y-11213500D01*
X15963928Y-11156357D01*
X15978214Y-11127786D01*
X15992500Y-11113500D01*
X16021071Y-11099214D01*
X16221071Y-11099214D02*
X16406785Y-11099214D01*
X16306785Y-11213500D01*
X16349643Y-11213500D01*
X16378214Y-11227786D01*
X16392500Y-11242071D01*
X16406785Y-11270643D01*
X16406785Y-11342071D01*
X16392500Y-11370643D01*
X16378214Y-11384929D01*
X16349643Y-11399214D01*
X16263928Y-11399214D01*
X16235357Y-11384929D01*
X16221071Y-11370643D01*
X16549643Y-11399214D02*
X16606785Y-11399214D01*
X16635357Y-11384929D01*
X16649643Y-11370643D01*
X16678214Y-11327786D01*
X16692500Y-11270643D01*
X16692500Y-11156357D01*
X16678214Y-11127786D01*
X16663928Y-11113500D01*
X16635357Y-11099214D01*
X16578214Y-11099214D01*
X16549643Y-11113500D01*
X16535357Y-11127786D01*
X16521071Y-11156357D01*
X16521071Y-11227786D01*
X16535357Y-11256357D01*
X16549643Y-11270643D01*
X16578214Y-11284929D01*
X16635357Y-11284929D01*
X16663928Y-11270643D01*
X16678214Y-11256357D01*
X16692500Y-11227786D01*
X16806786Y-11099214D02*
X16806786Y-11156357D01*
X16921071Y-11099214D02*
X16921071Y-11156357D01*
X17363928Y-11513500D02*
X17349643Y-11499214D01*
X17321071Y-11456357D01*
X17306786Y-11427786D01*
X17292500Y-11384929D01*
X17278214Y-11313500D01*
X17278214Y-11256357D01*
X17292500Y-11184929D01*
X17306786Y-11142072D01*
X17321071Y-11113500D01*
X17349643Y-11070643D01*
X17363928Y-11056357D01*
X17606786Y-11099214D02*
X17549643Y-11099214D01*
X17521071Y-11113500D01*
X17506786Y-11127786D01*
X17478214Y-11170643D01*
X17463928Y-11227786D01*
X17463928Y-11342071D01*
X17478214Y-11370643D01*
X17492500Y-11384929D01*
X17521071Y-11399214D01*
X17578214Y-11399214D01*
X17606786Y-11384929D01*
X17621071Y-11370643D01*
X17635357Y-11342071D01*
X17635357Y-11270643D01*
X17621071Y-11242071D01*
X17606786Y-11227786D01*
X17578214Y-11213500D01*
X17521071Y-11213500D01*
X17492500Y-11227786D01*
X17478214Y-11242071D01*
X17463928Y-11270643D01*
X17992500Y-11399214D02*
X17992500Y-11099214D01*
X18121071Y-11399214D02*
X18121071Y-11242071D01*
X18106786Y-11213500D01*
X18078214Y-11199214D01*
X18035357Y-11199214D01*
X18006786Y-11213500D01*
X17992500Y-11227786D01*
X18306786Y-11399214D02*
X18278214Y-11384929D01*
X18263928Y-11370643D01*
X18249643Y-11342071D01*
X18249643Y-11256357D01*
X18263928Y-11227786D01*
X18278214Y-11213500D01*
X18306786Y-11199214D01*
X18349643Y-11199214D01*
X18378214Y-11213500D01*
X18392500Y-11227786D01*
X18406786Y-11256357D01*
X18406786Y-11342071D01*
X18392500Y-11370643D01*
X18378214Y-11384929D01*
X18349643Y-11399214D01*
X18306786Y-11399214D01*
X18578214Y-11399214D02*
X18549643Y-11384929D01*
X18535357Y-11356357D01*
X18535357Y-11099214D01*
X18806786Y-11384929D02*
X18778214Y-11399214D01*
X18721071Y-11399214D01*
X18692500Y-11384929D01*
X18678214Y-11356357D01*
X18678214Y-11242071D01*
X18692500Y-11213500D01*
X18721071Y-11199214D01*
X18778214Y-11199214D01*
X18806786Y-11213500D01*
X18821071Y-11242071D01*
X18821071Y-11270643D01*
X18678214Y-11299214D01*
X18935357Y-11384929D02*
X18963929Y-11399214D01*
X19021071Y-11399214D01*
X19049643Y-11384929D01*
X19063929Y-11356357D01*
X19063929Y-11342071D01*
X19049643Y-11313500D01*
X19021071Y-11299214D01*
X18978214Y-11299214D01*
X18949643Y-11284929D01*
X18935357Y-11256357D01*
X18935357Y-11242071D01*
X18949643Y-11213500D01*
X18978214Y-11199214D01*
X19021071Y-11199214D01*
X19049643Y-11213500D01*
X19163928Y-11513500D02*
X19178214Y-11499214D01*
X19206786Y-11456357D01*
X19221071Y-11427786D01*
X19235357Y-11384929D01*
X19249643Y-11313500D01*
X19249643Y-11256357D01*
X19235357Y-11184929D01*
X19221071Y-11142072D01*
X19206786Y-11113500D01*
X19178214Y-11070643D01*
X19163928Y-11056357D01*
M02*
